<?xml version="1.0" encoding="UTF-8" standalone="no"?>
<!DOCTYPE svg PUBLIC "-//W3C//DTD SVG 1.1//EN"
 "http://www.w3.org/Graphics/SVG/1.1/DTD/svg11.dtd">
<!-- Generated by graphviz version 2.38.0 (20140413.2041)
 -->
<!-- Title: snakemake_dag Pages: 1 -->
<svg width="1381pt" height="620pt"
 viewBox="0.00 0.00 1380.50 620.00" xmlns="http://www.w3.org/2000/svg" xmlns:xlink="http://www.w3.org/1999/xlink">
<g id="graph0" class="graph" transform="scale(1 1) rotate(0) translate(4 616)">
<title>snakemake_dag</title>
<polygon fill="white" stroke="none" points="-4,4 -4,-616 1376.5,-616 1376.5,4 -4,4"/>
<!-- 0 -->
<g id="node1" class="node"><title>0</title>
<path fill="none" stroke="#567bd8" stroke-width="2" d="M1249.5,-180C1249.5,-180 1192.5,-180 1192.5,-180 1186.5,-180 1180.5,-174 1180.5,-168 1180.5,-168 1180.5,-156 1180.5,-156 1180.5,-150 1186.5,-144 1192.5,-144 1192.5,-144 1249.5,-144 1249.5,-144 1255.5,-144 1261.5,-150 1261.5,-156 1261.5,-156 1261.5,-168 1261.5,-168 1261.5,-174 1255.5,-180 1249.5,-180"/>
<text text-anchor="middle" x="1221" y="-159.5" font-family="sans" font-size="10.00">mikado_stats</text>
</g>
<!-- 9 -->
<g id="node10" class="node"><title>9</title>
<path fill="none" stroke="#d87556" stroke-width="2" d="M1168.5,-108C1168.5,-108 1075.5,-108 1075.5,-108 1069.5,-108 1063.5,-102 1063.5,-96 1063.5,-96 1063.5,-84 1063.5,-84 1063.5,-78 1069.5,-72 1075.5,-72 1075.5,-72 1168.5,-72 1168.5,-72 1174.5,-72 1180.5,-78 1180.5,-84 1180.5,-84 1180.5,-96 1180.5,-96 1180.5,-102 1174.5,-108 1168.5,-108"/>
<text text-anchor="middle" x="1122" y="-87.5" font-family="sans" font-size="10.00">mikado_collect_stats</text>
</g>
<!-- 0&#45;&gt;9 -->
<g id="edge11" class="edge"><title>0&#45;&gt;9</title>
<path fill="none" stroke="grey" stroke-width="2" d="M1196.78,-143.876C1184.08,-134.893 1168.34,-123.763 1154.58,-114.034"/>
<polygon fill="grey" stroke="grey" stroke-width="2" points="1156.5,-111.105 1146.31,-108.19 1152.46,-116.821 1156.5,-111.105"/>
</g>
<!-- 1 -->
<g id="node2" class="node"><title>1</title>
<path fill="none" stroke="#ced856" stroke-width="2" d="M1172,-540C1172,-540 1102,-540 1102,-540 1096,-540 1090,-534 1090,-528 1090,-528 1090,-516 1090,-516 1090,-510 1096,-504 1102,-504 1102,-504 1172,-504 1172,-504 1178,-504 1184,-510 1184,-516 1184,-516 1184,-528 1184,-528 1184,-534 1178,-540 1172,-540"/>
<text text-anchor="middle" x="1137" y="-519.5" font-family="sans" font-size="10.00">transdecoder_lo</text>
</g>
<!-- 26 -->
<g id="node27" class="node"><title>26</title>
<path fill="none" stroke="#88d856" stroke-width="2" d="M1171.5,-468C1171.5,-468 1088.5,-468 1088.5,-468 1082.5,-468 1076.5,-462 1076.5,-456 1076.5,-456 1076.5,-444 1076.5,-444 1076.5,-438 1082.5,-432 1088.5,-432 1088.5,-432 1171.5,-432 1171.5,-432 1177.5,-432 1183.5,-438 1183.5,-444 1183.5,-444 1183.5,-456 1183.5,-456 1183.5,-462 1177.5,-468 1171.5,-468"/>
<text text-anchor="middle" x="1130" y="-447.5" font-family="sans" font-size="10.00">transdecoder_pred</text>
</g>
<!-- 1&#45;&gt;26 -->
<g id="edge55" class="edge"><title>1&#45;&gt;26</title>
<path fill="none" stroke="grey" stroke-width="2" d="M1135.27,-503.697C1134.5,-495.983 1133.57,-486.712 1132.71,-478.112"/>
<polygon fill="grey" stroke="grey" stroke-width="2" points="1136.19,-477.706 1131.71,-468.104 1129.22,-478.403 1136.19,-477.706"/>
</g>
<!-- 2 -->
<g id="node3" class="node"><title>2</title>
<path fill="none" stroke="#afd856" stroke-width="2" d="M1360.5,-252C1360.5,-252 1291.5,-252 1291.5,-252 1285.5,-252 1279.5,-246 1279.5,-240 1279.5,-240 1279.5,-228 1279.5,-228 1279.5,-222 1285.5,-216 1291.5,-216 1291.5,-216 1360.5,-216 1360.5,-216 1366.5,-216 1372.5,-222 1372.5,-228 1372.5,-228 1372.5,-240 1372.5,-240 1372.5,-246 1366.5,-252 1360.5,-252"/>
<text text-anchor="middle" x="1326" y="-237" font-family="sans" font-size="10.00">mikado_pick</text>
<text text-anchor="middle" x="1326" y="-226" font-family="sans" font-size="10.00">mode: stringent</text>
</g>
<!-- 3 -->
<g id="node4" class="node"><title>3</title>
<path fill="none" stroke="#567bd8" stroke-width="2" d="M1351.5,-180C1351.5,-180 1294.5,-180 1294.5,-180 1288.5,-180 1282.5,-174 1282.5,-168 1282.5,-168 1282.5,-156 1282.5,-156 1282.5,-150 1288.5,-144 1294.5,-144 1294.5,-144 1351.5,-144 1351.5,-144 1357.5,-144 1363.5,-150 1363.5,-156 1363.5,-156 1363.5,-168 1363.5,-168 1363.5,-174 1357.5,-180 1351.5,-180"/>
<text text-anchor="middle" x="1323" y="-159.5" font-family="sans" font-size="10.00">mikado_stats</text>
</g>
<!-- 2&#45;&gt;3 -->
<g id="edge5" class="edge"><title>2&#45;&gt;3</title>
<path fill="none" stroke="grey" stroke-width="2" d="M1325.26,-215.697C1324.93,-207.983 1324.53,-198.712 1324.16,-190.112"/>
<polygon fill="grey" stroke="grey" stroke-width="2" points="1327.66,-189.945 1323.73,-180.104 1320.66,-190.245 1327.66,-189.945"/>
</g>
<!-- 3&#45;&gt;9 -->
<g id="edge13" class="edge"><title>3&#45;&gt;9</title>
<path fill="none" stroke="grey" stroke-width="2" d="M1282.32,-146.834C1253.22,-136.697 1213.58,-122.894 1181,-111.548"/>
<polygon fill="grey" stroke="grey" stroke-width="2" points="1181.73,-108.096 1171.14,-108.113 1179.43,-114.707 1181.73,-108.096"/>
</g>
<!-- 4 -->
<g id="node5" class="node"><title>4</title>
<path fill="none" stroke="#567bd8" stroke-width="2" d="M947.5,-180C947.5,-180 890.5,-180 890.5,-180 884.5,-180 878.5,-174 878.5,-168 878.5,-168 878.5,-156 878.5,-156 878.5,-150 884.5,-144 890.5,-144 890.5,-144 947.5,-144 947.5,-144 953.5,-144 959.5,-150 959.5,-156 959.5,-156 959.5,-168 959.5,-168 959.5,-174 953.5,-180 947.5,-180"/>
<text text-anchor="middle" x="919" y="-159.5" font-family="sans" font-size="10.00">mikado_stats</text>
</g>
<!-- 4&#45;&gt;9 -->
<g id="edge14" class="edge"><title>4&#45;&gt;9</title>
<path fill="none" stroke="grey" stroke-width="2" d="M959.592,-147.003C989.184,-136.799 1029.74,-122.815 1062.92,-111.374"/>
<polygon fill="grey" stroke="grey" stroke-width="2" points="1064.2,-114.635 1072.51,-108.066 1061.91,-108.017 1064.2,-114.635"/>
</g>
<!-- 5 -->
<g id="node6" class="node"><title>5</title>
<path fill="none" stroke="#567bd8" stroke-width="2" d="M1051.5,-180C1051.5,-180 994.5,-180 994.5,-180 988.5,-180 982.5,-174 982.5,-168 982.5,-168 982.5,-156 982.5,-156 982.5,-150 988.5,-144 994.5,-144 994.5,-144 1051.5,-144 1051.5,-144 1057.5,-144 1063.5,-150 1063.5,-156 1063.5,-156 1063.5,-168 1063.5,-168 1063.5,-174 1057.5,-180 1051.5,-180"/>
<text text-anchor="middle" x="1023" y="-159.5" font-family="sans" font-size="10.00">mikado_stats</text>
</g>
<!-- 5&#45;&gt;9 -->
<g id="edge10" class="edge"><title>5&#45;&gt;9</title>
<path fill="none" stroke="grey" stroke-width="2" d="M1047.22,-143.876C1059.92,-134.893 1075.66,-123.763 1089.42,-114.034"/>
<polygon fill="grey" stroke="grey" stroke-width="2" points="1091.54,-116.821 1097.69,-108.19 1087.5,-111.105 1091.54,-116.821"/>
</g>
<!-- 6 -->
<g id="node7" class="node"><title>6</title>
<path fill="none" stroke="#d8bc56" stroke-width="2" d="M546,-540C546,-540 498,-540 498,-540 492,-540 486,-534 486,-528 486,-528 486,-516 486,-516 486,-510 492,-504 498,-504 498,-504 546,-504 546,-504 552,-504 558,-510 558,-516 558,-516 558,-528 558,-528 558,-534 552,-540 546,-540"/>
<text text-anchor="middle" x="522" y="-519.5" font-family="sans" font-size="10.00">make_blast</text>
</g>
<!-- 7 -->
<g id="node8" class="node"><title>7</title>
<path fill="none" stroke="#56d8d0" stroke-width="2" d="M743.5,-468C743.5,-468 684.5,-468 684.5,-468 678.5,-468 672.5,-462 672.5,-456 672.5,-456 672.5,-444 672.5,-444 672.5,-438 678.5,-432 684.5,-432 684.5,-432 743.5,-432 743.5,-432 749.5,-432 755.5,-438 755.5,-444 755.5,-444 755.5,-456 755.5,-456 755.5,-462 749.5,-468 743.5,-468"/>
<text text-anchor="middle" x="714" y="-453" font-family="sans" font-size="10.00">blastx</text>
<text text-anchor="middle" x="714" y="-442" font-family="sans" font-size="10.00">chunk_id: 009</text>
</g>
<!-- 6&#45;&gt;7 -->
<g id="edge8" class="edge"><title>6&#45;&gt;7</title>
<path fill="none" stroke="grey" stroke-width="2" d="M558.114,-507.834C587.675,-497.056 629.852,-481.679 662.881,-469.637"/>
<polygon fill="grey" stroke="grey" stroke-width="2" points="664.178,-472.89 672.374,-466.176 661.78,-466.313 664.178,-472.89"/>
</g>
<!-- 12 -->
<g id="node13" class="node"><title>12</title>
<path fill="none" stroke="#56d8d0" stroke-width="2" d="M844.5,-468C844.5,-468 785.5,-468 785.5,-468 779.5,-468 773.5,-462 773.5,-456 773.5,-456 773.5,-444 773.5,-444 773.5,-438 779.5,-432 785.5,-432 785.5,-432 844.5,-432 844.5,-432 850.5,-432 856.5,-438 856.5,-444 856.5,-444 856.5,-456 856.5,-456 856.5,-462 850.5,-468 844.5,-468"/>
<text text-anchor="middle" x="815" y="-453" font-family="sans" font-size="10.00">blastx</text>
<text text-anchor="middle" x="815" y="-442" font-family="sans" font-size="10.00">chunk_id: 001</text>
</g>
<!-- 6&#45;&gt;12 -->
<g id="edge19" class="edge"><title>6&#45;&gt;12</title>
<path fill="none" stroke="grey" stroke-width="2" d="M558.231,-509.186C564.459,-507.332 570.892,-505.527 577,-504 656.063,-484.234 680.331,-489.023 763.501,-467.925"/>
<polygon fill="grey" stroke="grey" stroke-width="2" points="764.581,-471.261 773.386,-465.368 762.828,-464.484 764.581,-471.261"/>
</g>
<!-- 15 -->
<g id="node16" class="node"><title>15</title>
<path fill="none" stroke="#56d8d0" stroke-width="2" d="M945.5,-468C945.5,-468 886.5,-468 886.5,-468 880.5,-468 874.5,-462 874.5,-456 874.5,-456 874.5,-444 874.5,-444 874.5,-438 880.5,-432 886.5,-432 886.5,-432 945.5,-432 945.5,-432 951.5,-432 957.5,-438 957.5,-444 957.5,-444 957.5,-456 957.5,-456 957.5,-462 951.5,-468 945.5,-468"/>
<text text-anchor="middle" x="916" y="-453" font-family="sans" font-size="10.00">blastx</text>
<text text-anchor="middle" x="916" y="-442" font-family="sans" font-size="10.00">chunk_id: 006</text>
</g>
<!-- 6&#45;&gt;15 -->
<g id="edge26" class="edge"><title>6&#45;&gt;15</title>
<path fill="none" stroke="grey" stroke-width="2" d="M558.151,-508.842C564.388,-507.028 570.845,-505.325 577,-504 699.904,-477.538 737.309,-495.565 864.329,-467.857"/>
<polygon fill="grey" stroke="grey" stroke-width="2" points="865.446,-471.193 874.441,-465.596 863.919,-464.362 865.446,-471.193"/>
</g>
<!-- 16 -->
<g id="node17" class="node"><title>16</title>
<path fill="none" stroke="#56d8d0" stroke-width="2" d="M1046.5,-468C1046.5,-468 987.5,-468 987.5,-468 981.5,-468 975.5,-462 975.5,-456 975.5,-456 975.5,-444 975.5,-444 975.5,-438 981.5,-432 987.5,-432 987.5,-432 1046.5,-432 1046.5,-432 1052.5,-432 1058.5,-438 1058.5,-444 1058.5,-444 1058.5,-456 1058.5,-456 1058.5,-462 1052.5,-468 1046.5,-468"/>
<text text-anchor="middle" x="1017" y="-453" font-family="sans" font-size="10.00">blastx</text>
<text text-anchor="middle" x="1017" y="-442" font-family="sans" font-size="10.00">chunk_id: 003</text>
</g>
<!-- 6&#45;&gt;16 -->
<g id="edge28" class="edge"><title>6&#45;&gt;16</title>
<path fill="none" stroke="grey" stroke-width="2" d="M558.116,-508.673C564.357,-506.879 570.824,-505.226 577,-504 744.142,-470.809 794.228,-502.467 965.614,-467.75"/>
<polygon fill="grey" stroke="grey" stroke-width="2" points="966.384,-471.165 975.466,-465.709 964.964,-464.31 966.384,-471.165"/>
</g>
<!-- 17 -->
<g id="node18" class="node"><title>17</title>
<path fill="none" stroke="#56d8d0" stroke-width="2" d="M137.5,-468C137.5,-468 78.5,-468 78.5,-468 72.5,-468 66.5,-462 66.5,-456 66.5,-456 66.5,-444 66.5,-444 66.5,-438 72.5,-432 78.5,-432 78.5,-432 137.5,-432 137.5,-432 143.5,-432 149.5,-438 149.5,-444 149.5,-444 149.5,-456 149.5,-456 149.5,-462 143.5,-468 137.5,-468"/>
<text text-anchor="middle" x="108" y="-453" font-family="sans" font-size="10.00">blastx</text>
<text text-anchor="middle" x="108" y="-442" font-family="sans" font-size="10.00">chunk_id: 004</text>
</g>
<!-- 6&#45;&gt;17 -->
<g id="edge30" class="edge"><title>6&#45;&gt;17</title>
<path fill="none" stroke="grey" stroke-width="2" d="M485.936,-517.957C421.825,-512.073 283.808,-497.272 159.631,-468.168"/>
<polygon fill="grey" stroke="grey" stroke-width="2" points="160.113,-464.685 149.574,-465.771 158.491,-471.494 160.113,-464.685"/>
</g>
<!-- 18 -->
<g id="node19" class="node"><title>18</title>
<path fill="none" stroke="#56d8d0" stroke-width="2" d="M238.5,-468C238.5,-468 179.5,-468 179.5,-468 173.5,-468 167.5,-462 167.5,-456 167.5,-456 167.5,-444 167.5,-444 167.5,-438 173.5,-432 179.5,-432 179.5,-432 238.5,-432 238.5,-432 244.5,-432 250.5,-438 250.5,-444 250.5,-444 250.5,-456 250.5,-456 250.5,-462 244.5,-468 238.5,-468"/>
<text text-anchor="middle" x="209" y="-453" font-family="sans" font-size="10.00">blastx</text>
<text text-anchor="middle" x="209" y="-442" font-family="sans" font-size="10.00">chunk_id: 010</text>
</g>
<!-- 6&#45;&gt;18 -->
<g id="edge32" class="edge"><title>6&#45;&gt;18</title>
<path fill="none" stroke="grey" stroke-width="2" d="M485.926,-515.247C436.823,-507.087 346.105,-490.842 260.491,-468.24"/>
<polygon fill="grey" stroke="grey" stroke-width="2" points="261.183,-464.802 250.618,-465.598 259.374,-471.564 261.183,-464.802"/>
</g>
<!-- 20 -->
<g id="node21" class="node"><title>20</title>
<path fill="none" stroke="#56d8d0" stroke-width="2" d="M339.5,-468C339.5,-468 280.5,-468 280.5,-468 274.5,-468 268.5,-462 268.5,-456 268.5,-456 268.5,-444 268.5,-444 268.5,-438 274.5,-432 280.5,-432 280.5,-432 339.5,-432 339.5,-432 345.5,-432 351.5,-438 351.5,-444 351.5,-444 351.5,-456 351.5,-456 351.5,-462 345.5,-468 339.5,-468"/>
<text text-anchor="middle" x="310" y="-453" font-family="sans" font-size="10.00">blastx</text>
<text text-anchor="middle" x="310" y="-442" font-family="sans" font-size="10.00">chunk_id: 007</text>
</g>
<!-- 6&#45;&gt;20 -->
<g id="edge36" class="edge"><title>6&#45;&gt;20</title>
<path fill="none" stroke="grey" stroke-width="2" d="M485.929,-509.331C455.126,-499.337 409.394,-484.43 361.363,-468.44"/>
<polygon fill="grey" stroke="grey" stroke-width="2" points="362.323,-465.071 351.73,-465.228 360.11,-471.711 362.323,-465.071"/>
</g>
<!-- 21 -->
<g id="node22" class="node"><title>21</title>
<path fill="none" stroke="#56d8d0" stroke-width="2" d="M440.5,-468C440.5,-468 381.5,-468 381.5,-468 375.5,-468 369.5,-462 369.5,-456 369.5,-456 369.5,-444 369.5,-444 369.5,-438 375.5,-432 381.5,-432 381.5,-432 440.5,-432 440.5,-432 446.5,-432 452.5,-438 452.5,-444 452.5,-444 452.5,-456 452.5,-456 452.5,-462 446.5,-468 440.5,-468"/>
<text text-anchor="middle" x="411" y="-453" font-family="sans" font-size="10.00">blastx</text>
<text text-anchor="middle" x="411" y="-442" font-family="sans" font-size="10.00">chunk_id: 008</text>
</g>
<!-- 6&#45;&gt;21 -->
<g id="edge38" class="edge"><title>6&#45;&gt;21</title>
<path fill="none" stroke="grey" stroke-width="2" d="M494.846,-503.876C480.467,-494.808 462.619,-483.552 447.09,-473.759"/>
<polygon fill="grey" stroke="grey" stroke-width="2" points="448.584,-470.564 438.258,-468.19 444.85,-476.484 448.584,-470.564"/>
</g>
<!-- 22 -->
<g id="node23" class="node"><title>22</title>
<path fill="none" stroke="#56d8d0" stroke-width="2" d="M541.5,-468C541.5,-468 482.5,-468 482.5,-468 476.5,-468 470.5,-462 470.5,-456 470.5,-456 470.5,-444 470.5,-444 470.5,-438 476.5,-432 482.5,-432 482.5,-432 541.5,-432 541.5,-432 547.5,-432 553.5,-438 553.5,-444 553.5,-444 553.5,-456 553.5,-456 553.5,-462 547.5,-468 541.5,-468"/>
<text text-anchor="middle" x="512" y="-453" font-family="sans" font-size="10.00">blastx</text>
<text text-anchor="middle" x="512" y="-442" font-family="sans" font-size="10.00">chunk_id: 005</text>
</g>
<!-- 6&#45;&gt;22 -->
<g id="edge40" class="edge"><title>6&#45;&gt;22</title>
<path fill="none" stroke="grey" stroke-width="2" d="M519.528,-503.697C518.426,-495.983 517.102,-486.712 515.873,-478.112"/>
<polygon fill="grey" stroke="grey" stroke-width="2" points="519.323,-477.509 514.443,-468.104 512.393,-478.499 519.323,-477.509"/>
</g>
<!-- 28 -->
<g id="node29" class="node"><title>28</title>
<path fill="none" stroke="#56d8d0" stroke-width="2" d="M642.5,-468C642.5,-468 583.5,-468 583.5,-468 577.5,-468 571.5,-462 571.5,-456 571.5,-456 571.5,-444 571.5,-444 571.5,-438 577.5,-432 583.5,-432 583.5,-432 642.5,-432 642.5,-432 648.5,-432 654.5,-438 654.5,-444 654.5,-444 654.5,-456 654.5,-456 654.5,-462 648.5,-468 642.5,-468"/>
<text text-anchor="middle" x="613" y="-453" font-family="sans" font-size="10.00">blastx</text>
<text text-anchor="middle" x="613" y="-442" font-family="sans" font-size="10.00">chunk_id: 002</text>
</g>
<!-- 6&#45;&gt;28 -->
<g id="edge57" class="edge"><title>6&#45;&gt;28</title>
<path fill="none" stroke="grey" stroke-width="2" d="M544.494,-503.697C555.955,-494.881 570.058,-484.032 582.484,-474.474"/>
<polygon fill="grey" stroke="grey" stroke-width="2" points="584.972,-476.976 590.764,-468.104 580.704,-471.427 584.972,-476.976"/>
</g>
<!-- 24 -->
<g id="node25" class="node"><title>24</title>
<path fill="none" stroke="#d85656" stroke-width="2" d="M629,-396C629,-396 597,-396 597,-396 591,-396 585,-390 585,-384 585,-384 585,-372 585,-372 585,-366 591,-360 597,-360 597,-360 629,-360 629,-360 635,-360 641,-366 641,-372 641,-372 641,-384 641,-384 641,-390 635,-396 629,-396"/>
<text text-anchor="middle" x="613" y="-375.5" font-family="sans" font-size="10.00">blast_all</text>
</g>
<!-- 7&#45;&gt;24 -->
<g id="edge52" class="edge"><title>7&#45;&gt;24</title>
<path fill="none" stroke="grey" stroke-width="2" d="M689.293,-431.876C676.331,-422.893 660.272,-411.763 646.235,-402.034"/>
<polygon fill="grey" stroke="grey" stroke-width="2" points="648.015,-399.009 637.802,-396.19 644.028,-404.763 648.015,-399.009"/>
</g>
<!-- 8 -->
<g id="node9" class="node"><title>8</title>
<path fill="none" stroke="#68d856" stroke-width="2" d="M1171.5,-396C1171.5,-396 1108.5,-396 1108.5,-396 1102.5,-396 1096.5,-390 1096.5,-384 1096.5,-384 1096.5,-372 1096.5,-372 1096.5,-366 1102.5,-360 1108.5,-360 1108.5,-360 1171.5,-360 1171.5,-360 1177.5,-360 1183.5,-366 1183.5,-372 1183.5,-372 1183.5,-384 1183.5,-384 1183.5,-390 1177.5,-396 1171.5,-396"/>
<text text-anchor="middle" x="1140" y="-375.5" font-family="sans" font-size="10.00">genome_index</text>
</g>
<!-- 14 -->
<g id="node15" class="node"><title>14</title>
<path fill="none" stroke="#56d8a9" stroke-width="2" d="M1158,-324C1158,-324 1086,-324 1086,-324 1080,-324 1074,-318 1074,-312 1074,-312 1074,-300 1074,-300 1074,-294 1080,-288 1086,-288 1086,-288 1158,-288 1158,-288 1164,-288 1170,-294 1170,-300 1170,-300 1170,-312 1170,-312 1170,-318 1164,-324 1158,-324"/>
<text text-anchor="middle" x="1122" y="-303.5" font-family="sans" font-size="10.00">mikado_serialise</text>
</g>
<!-- 8&#45;&gt;14 -->
<g id="edge22" class="edge"><title>8&#45;&gt;14</title>
<path fill="none" stroke="grey" stroke-width="2" d="M1135.55,-359.697C1133.55,-351.898 1131.13,-342.509 1128.9,-333.829"/>
<polygon fill="grey" stroke="grey" stroke-width="2" points="1132.28,-332.918 1126.4,-324.104 1125.5,-334.661 1132.28,-332.918"/>
</g>
<!-- 23 -->
<g id="node24" class="node"><title>23</title>
<path fill="none" stroke="#56c1d8" stroke-width="2" d="M1137,-36C1137,-36 1107,-36 1107,-36 1101,-36 1095,-30 1095,-24 1095,-24 1095,-12 1095,-12 1095,-6 1101,-0 1107,-0 1107,-0 1137,-0 1137,-0 1143,-0 1149,-6 1149,-12 1149,-12 1149,-24 1149,-24 1149,-30 1143,-36 1137,-36"/>
<text text-anchor="middle" x="1122" y="-15.5" font-family="sans" font-size="10.00">all</text>
</g>
<!-- 9&#45;&gt;23 -->
<g id="edge42" class="edge"><title>9&#45;&gt;23</title>
<path fill="none" stroke="grey" stroke-width="2" d="M1122,-71.6966C1122,-63.9827 1122,-54.7125 1122,-46.1124"/>
<polygon fill="grey" stroke="grey" stroke-width="2" points="1125.5,-46.1043 1122,-36.1043 1118.5,-46.1044 1125.5,-46.1043"/>
</g>
<!-- 10 -->
<g id="node11" class="node"><title>10</title>
<path fill="none" stroke="#afd856" stroke-width="2" d="M953,-252C953,-252 875,-252 875,-252 869,-252 863,-246 863,-240 863,-240 863,-228 863,-228 863,-222 869,-216 875,-216 875,-216 953,-216 953,-216 959,-216 965,-222 965,-228 965,-228 965,-240 965,-240 965,-246 959,-252 953,-252"/>
<text text-anchor="middle" x="914" y="-237" font-family="sans" font-size="10.00">mikado_pick</text>
<text text-anchor="middle" x="914" y="-226" font-family="sans" font-size="10.00">mode: permissive</text>
</g>
<!-- 10&#45;&gt;4 -->
<g id="edge6" class="edge"><title>10&#45;&gt;4</title>
<path fill="none" stroke="grey" stroke-width="2" d="M915.236,-215.697C915.787,-207.983 916.449,-198.712 917.063,-190.112"/>
<polygon fill="grey" stroke="grey" stroke-width="2" points="920.557,-190.328 917.778,-180.104 913.575,-189.83 920.557,-190.328"/>
</g>
<!-- 11 -->
<g id="node12" class="node"><title>11</title>
<path fill="none" stroke="#afd856" stroke-width="2" d="M1249.5,-252C1249.5,-252 1190.5,-252 1190.5,-252 1184.5,-252 1178.5,-246 1178.5,-240 1178.5,-240 1178.5,-228 1178.5,-228 1178.5,-222 1184.5,-216 1190.5,-216 1190.5,-216 1249.5,-216 1249.5,-216 1255.5,-216 1261.5,-222 1261.5,-228 1261.5,-228 1261.5,-240 1261.5,-240 1261.5,-246 1255.5,-252 1249.5,-252"/>
<text text-anchor="middle" x="1220" y="-237" font-family="sans" font-size="10.00">mikado_pick</text>
<text text-anchor="middle" x="1220" y="-226" font-family="sans" font-size="10.00">mode: lenient</text>
</g>
<!-- 11&#45;&gt;0 -->
<g id="edge1" class="edge"><title>11&#45;&gt;0</title>
<path fill="none" stroke="grey" stroke-width="2" d="M1220.25,-215.697C1220.36,-207.983 1220.49,-198.712 1220.61,-190.112"/>
<polygon fill="grey" stroke="grey" stroke-width="2" points="1224.11,-190.153 1220.76,-180.104 1217.11,-190.053 1224.11,-190.153"/>
</g>
<!-- 12&#45;&gt;24 -->
<g id="edge48" class="edge"><title>12&#45;&gt;24</title>
<path fill="none" stroke="grey" stroke-width="2" d="M773.145,-434.496C737.175,-422.031 685.75,-404.21 650.957,-392.153"/>
<polygon fill="grey" stroke="grey" stroke-width="2" points="651.765,-388.729 641.17,-388.762 649.473,-395.343 651.765,-388.729"/>
</g>
<!-- 13 -->
<g id="node14" class="node"><title>13</title>
<path fill="none" stroke="#56d88a" stroke-width="2" d="M628,-540C628,-540 598,-540 598,-540 592,-540 586,-534 586,-528 586,-528 586,-516 586,-516 586,-510 592,-504 598,-504 598,-504 628,-504 628,-504 634,-504 640,-510 640,-516 640,-516 640,-528 640,-528 640,-534 634,-540 628,-540"/>
<text text-anchor="middle" x="613" y="-519.5" font-family="sans" font-size="10.00">split_fa</text>
</g>
<!-- 13&#45;&gt;7 -->
<g id="edge9" class="edge"><title>13&#45;&gt;7</title>
<path fill="none" stroke="grey" stroke-width="2" d="M637.707,-503.876C650.669,-494.893 666.728,-483.763 680.765,-474.034"/>
<polygon fill="grey" stroke="grey" stroke-width="2" points="682.972,-476.763 689.198,-468.19 678.985,-471.009 682.972,-476.763"/>
</g>
<!-- 13&#45;&gt;12 -->
<g id="edge20" class="edge"><title>13&#45;&gt;12</title>
<path fill="none" stroke="grey" stroke-width="2" d="M640.243,-511.559C671.813,-500.619 724.523,-482.354 763.814,-468.738"/>
<polygon fill="grey" stroke="grey" stroke-width="2" points="765.191,-471.965 773.494,-465.383 762.899,-465.351 765.191,-471.965"/>
</g>
<!-- 13&#45;&gt;15 -->
<g id="edge27" class="edge"><title>13&#45;&gt;15</title>
<path fill="none" stroke="grey" stroke-width="2" d="M640.093,-516.354C684.84,-508.456 777.105,-491.221 864.558,-467.951"/>
<polygon fill="grey" stroke="grey" stroke-width="2" points="865.624,-471.288 874.37,-465.308 863.804,-464.529 865.624,-471.288"/>
</g>
<!-- 13&#45;&gt;16 -->
<g id="edge29" class="edge"><title>13&#45;&gt;16</title>
<path fill="none" stroke="grey" stroke-width="2" d="M640.321,-518.522C698.513,-512.9 839.003,-497.499 965.56,-467.856"/>
<polygon fill="grey" stroke="grey" stroke-width="2" points="966.503,-471.23 975.421,-465.51 964.883,-464.42 966.503,-471.23"/>
</g>
<!-- 13&#45;&gt;17 -->
<g id="edge31" class="edge"><title>13&#45;&gt;17</title>
<path fill="none" stroke="grey" stroke-width="2" d="M585.63,-509.533C579.584,-507.383 573.147,-505.38 567,-504 392.17,-464.74 338.49,-504.164 159.539,-468.026"/>
<polygon fill="grey" stroke="grey" stroke-width="2" points="160.035,-464.555 149.533,-465.954 158.615,-471.409 160.035,-464.555"/>
</g>
<!-- 13&#45;&gt;18 -->
<g id="edge33" class="edge"><title>13&#45;&gt;18</title>
<path fill="none" stroke="grey" stroke-width="2" d="M585.599,-509.666C579.555,-507.508 573.127,-505.468 567,-504 436.114,-472.638 395.342,-497.143 260.432,-468.051"/>
<polygon fill="grey" stroke="grey" stroke-width="2" points="261.073,-464.608 250.553,-465.862 259.559,-471.442 261.073,-464.608"/>
</g>
<!-- 13&#45;&gt;20 -->
<g id="edge37" class="edge"><title>13&#45;&gt;20</title>
<path fill="none" stroke="grey" stroke-width="2" d="M585.533,-509.925C579.494,-507.75 573.084,-505.639 567,-504 479.914,-480.545 452.355,-490.363 361.487,-468.163"/>
<polygon fill="grey" stroke="grey" stroke-width="2" points="362.147,-464.721 351.596,-465.683 360.444,-471.51 362.147,-464.721"/>
</g>
<!-- 13&#45;&gt;21 -->
<g id="edge39" class="edge"><title>13&#45;&gt;21</title>
<path fill="none" stroke="grey" stroke-width="2" d="M585.801,-510.812C579.631,-508.539 573.099,-506.162 567,-504 522.945,-488.382 509.689,-484.464 462.339,-468.447"/>
<polygon fill="grey" stroke="grey" stroke-width="2" points="463.336,-465.09 452.742,-465.193 461.088,-471.719 463.336,-465.09"/>
</g>
<!-- 13&#45;&gt;22 -->
<g id="edge41" class="edge"><title>13&#45;&gt;22</title>
<path fill="none" stroke="grey" stroke-width="2" d="M588.293,-503.876C575.331,-494.893 559.272,-483.763 545.235,-474.034"/>
<polygon fill="grey" stroke="grey" stroke-width="2" points="547.015,-471.009 536.802,-468.19 543.028,-476.763 547.015,-471.009"/>
</g>
<!-- 13&#45;&gt;28 -->
<g id="edge58" class="edge"><title>13&#45;&gt;28</title>
<path fill="none" stroke="grey" stroke-width="2" d="M613,-503.697C613,-495.983 613,-486.712 613,-478.112"/>
<polygon fill="grey" stroke="grey" stroke-width="2" points="616.5,-478.104 613,-468.104 609.5,-478.104 616.5,-478.104"/>
</g>
<!-- 14&#45;&gt;2 -->
<g id="edge4" class="edge"><title>14&#45;&gt;2</title>
<path fill="none" stroke="grey" stroke-width="2" d="M1170.09,-288.5C1199.98,-278.243 1238.54,-265.012 1269.83,-254.274"/>
<polygon fill="grey" stroke="grey" stroke-width="2" points="1270.97,-257.584 1279.29,-251.028 1268.7,-250.963 1270.97,-257.584"/>
</g>
<!-- 14&#45;&gt;10 -->
<g id="edge16" class="edge"><title>14&#45;&gt;10</title>
<path fill="none" stroke="grey" stroke-width="2" d="M1073.76,-288.765C1044.07,-278.772 1005.77,-265.883 974.111,-255.23"/>
<polygon fill="grey" stroke="grey" stroke-width="2" points="975.111,-251.873 964.517,-252.001 972.878,-258.508 975.111,-251.873"/>
</g>
<!-- 14&#45;&gt;11 -->
<g id="edge18" class="edge"><title>14&#45;&gt;11</title>
<path fill="none" stroke="grey" stroke-width="2" d="M1145.97,-287.876C1158.55,-278.893 1174.13,-267.763 1187.75,-258.034"/>
<polygon fill="grey" stroke="grey" stroke-width="2" points="1189.83,-260.85 1195.93,-252.19 1185.76,-255.154 1189.83,-260.85"/>
</g>
<!-- 19 -->
<g id="node20" class="node"><title>19</title>
<path fill="none" stroke="#afd856" stroke-width="2" d="M1148,-252C1148,-252 1096,-252 1096,-252 1090,-252 1084,-246 1084,-240 1084,-240 1084,-228 1084,-228 1084,-222 1090,-216 1096,-216 1096,-216 1148,-216 1148,-216 1154,-216 1160,-222 1160,-228 1160,-228 1160,-240 1160,-240 1160,-246 1154,-252 1148,-252"/>
<text text-anchor="middle" x="1122" y="-237" font-family="sans" font-size="10.00">mikado_pick</text>
<text text-anchor="middle" x="1122" y="-226" font-family="sans" font-size="10.00">mode: split</text>
</g>
<!-- 14&#45;&gt;19 -->
<g id="edge35" class="edge"><title>14&#45;&gt;19</title>
<path fill="none" stroke="grey" stroke-width="2" d="M1122,-287.697C1122,-279.983 1122,-270.712 1122,-262.112"/>
<polygon fill="grey" stroke="grey" stroke-width="2" points="1125.5,-262.104 1122,-252.104 1118.5,-262.104 1125.5,-262.104"/>
</g>
<!-- 25 -->
<g id="node26" class="node"><title>25</title>
<path fill="none" stroke="#afd856" stroke-width="2" d="M1053,-252C1053,-252 995,-252 995,-252 989,-252 983,-246 983,-240 983,-240 983,-228 983,-228 983,-222 989,-216 995,-216 995,-216 1053,-216 1053,-216 1059,-216 1065,-222 1065,-228 1065,-228 1065,-240 1065,-240 1065,-246 1059,-252 1053,-252"/>
<text text-anchor="middle" x="1024" y="-237" font-family="sans" font-size="10.00">mikado_pick</text>
<text text-anchor="middle" x="1024" y="-226" font-family="sans" font-size="10.00">mode: nosplit</text>
</g>
<!-- 14&#45;&gt;25 -->
<g id="edge54" class="edge"><title>14&#45;&gt;25</title>
<path fill="none" stroke="grey" stroke-width="2" d="M1098.03,-287.876C1085.45,-278.893 1069.87,-267.763 1056.25,-258.034"/>
<polygon fill="grey" stroke="grey" stroke-width="2" points="1058.24,-255.154 1048.07,-252.19 1054.17,-260.85 1058.24,-255.154"/>
</g>
<!-- 15&#45;&gt;24 -->
<g id="edge46" class="edge"><title>15&#45;&gt;24</title>
<path fill="none" stroke="grey" stroke-width="2" d="M874.37,-434.692C871.212,-433.739 868.063,-432.83 865,-432 790.067,-411.703 700.843,-394.556 651.192,-385.624"/>
<polygon fill="grey" stroke="grey" stroke-width="2" points="651.677,-382.155 641.217,-383.844 650.447,-389.046 651.677,-382.155"/>
</g>
<!-- 16&#45;&gt;24 -->
<g id="edge44" class="edge"><title>16&#45;&gt;24</title>
<path fill="none" stroke="grey" stroke-width="2" d="M975.421,-434.49C972.251,-433.583 969.086,-432.74 966,-432 853.258,-404.96 716.773,-389.136 651.46,-382.576"/>
<polygon fill="grey" stroke="grey" stroke-width="2" points="651.526,-379.066 641.23,-381.566 650.838,-386.032 651.526,-379.066"/>
</g>
<!-- 17&#45;&gt;24 -->
<g id="edge49" class="edge"><title>17&#45;&gt;24</title>
<path fill="none" stroke="grey" stroke-width="2" d="M149.553,-434.137C152.393,-433.349 155.227,-432.625 158,-432 309.891,-397.739 495.591,-384.883 574.539,-380.731"/>
<polygon fill="grey" stroke="grey" stroke-width="2" points="575.147,-384.204 584.956,-380.201 574.791,-377.213 575.147,-384.204"/>
</g>
<!-- 18&#45;&gt;24 -->
<g id="edge50" class="edge"><title>18&#45;&gt;24</title>
<path fill="none" stroke="grey" stroke-width="2" d="M250.577,-434.241C253.412,-433.428 256.238,-432.671 259,-432 371.979,-404.571 508.888,-388.926 574.413,-382.491"/>
<polygon fill="grey" stroke="grey" stroke-width="2" points="575.058,-385.945 584.676,-381.502 574.386,-378.978 575.058,-385.945"/>
</g>
<!-- 29 -->
<g id="node30" class="node"><title>29</title>
<path fill="none" stroke="#567bd8" stroke-width="2" d="M1150.5,-180C1150.5,-180 1093.5,-180 1093.5,-180 1087.5,-180 1081.5,-174 1081.5,-168 1081.5,-168 1081.5,-156 1081.5,-156 1081.5,-150 1087.5,-144 1093.5,-144 1093.5,-144 1150.5,-144 1150.5,-144 1156.5,-144 1162.5,-150 1162.5,-156 1162.5,-156 1162.5,-168 1162.5,-168 1162.5,-174 1156.5,-180 1150.5,-180"/>
<text text-anchor="middle" x="1122" y="-159.5" font-family="sans" font-size="10.00">mikado_stats</text>
</g>
<!-- 19&#45;&gt;29 -->
<g id="edge59" class="edge"><title>19&#45;&gt;29</title>
<path fill="none" stroke="grey" stroke-width="2" d="M1122,-215.697C1122,-207.983 1122,-198.712 1122,-190.112"/>
<polygon fill="grey" stroke="grey" stroke-width="2" points="1125.5,-190.104 1122,-180.104 1118.5,-190.104 1125.5,-190.104"/>
</g>
<!-- 20&#45;&gt;24 -->
<g id="edge45" class="edge"><title>20&#45;&gt;24</title>
<path fill="none" stroke="grey" stroke-width="2" d="M351.625,-434.426C354.448,-433.568 357.259,-432.75 360,-432 435.165,-411.431 524.767,-394.38 574.636,-385.539"/>
<polygon fill="grey" stroke="grey" stroke-width="2" points="575.411,-388.957 584.655,-383.779 574.2,-382.062 575.411,-388.957"/>
</g>
<!-- 21&#45;&gt;24 -->
<g id="edge43" class="edge"><title>21&#45;&gt;24</title>
<path fill="none" stroke="grey" stroke-width="2" d="M452.855,-434.496C488.825,-422.031 540.25,-404.21 575.043,-392.153"/>
<polygon fill="grey" stroke="grey" stroke-width="2" points="576.527,-395.343 584.83,-388.762 574.235,-388.729 576.527,-395.343"/>
</g>
<!-- 22&#45;&gt;24 -->
<g id="edge47" class="edge"><title>22&#45;&gt;24</title>
<path fill="none" stroke="grey" stroke-width="2" d="M536.707,-431.876C549.669,-422.893 565.728,-411.763 579.765,-402.034"/>
<polygon fill="grey" stroke="grey" stroke-width="2" points="581.972,-404.763 588.198,-396.19 577.985,-399.009 581.972,-404.763"/>
</g>
<!-- 24&#45;&gt;14 -->
<g id="edge23" class="edge"><title>24&#45;&gt;14</title>
<path fill="none" stroke="grey" stroke-width="2" d="M641.091,-373.137C721.547,-362.072 954.079,-330.093 1063.62,-315.029"/>
<polygon fill="grey" stroke="grey" stroke-width="2" points="1064.39,-318.455 1073.82,-313.625 1063.44,-311.521 1064.39,-318.455"/>
</g>
<!-- 25&#45;&gt;5 -->
<g id="edge7" class="edge"><title>25&#45;&gt;5</title>
<path fill="none" stroke="grey" stroke-width="2" d="M1023.75,-215.697C1023.64,-207.983 1023.51,-198.712 1023.39,-190.112"/>
<polygon fill="grey" stroke="grey" stroke-width="2" points="1026.89,-190.053 1023.24,-180.104 1019.89,-190.153 1026.89,-190.053"/>
</g>
<!-- 26&#45;&gt;14 -->
<g id="edge24" class="edge"><title>26&#45;&gt;14</title>
<path fill="none" stroke="grey" stroke-width="2" d="M1110.96,-431.837C1101.82,-422.3 1091.83,-409.624 1087,-396 1081.65,-380.92 1082.4,-375.324 1087,-360 1089.92,-350.281 1095.26,-340.7 1100.91,-332.415"/>
<polygon fill="grey" stroke="grey" stroke-width="2" points="1103.76,-334.442 1106.82,-324.297 1098.1,-330.324 1103.76,-334.442"/>
</g>
<!-- 27 -->
<g id="node28" class="node"><title>27</title>
<path fill="none" stroke="#569ad8" stroke-width="2" d="M1172.5,-612C1172.5,-612 1101.5,-612 1101.5,-612 1095.5,-612 1089.5,-606 1089.5,-600 1089.5,-600 1089.5,-588 1089.5,-588 1089.5,-582 1095.5,-576 1101.5,-576 1101.5,-576 1172.5,-576 1172.5,-576 1178.5,-576 1184.5,-582 1184.5,-588 1184.5,-588 1184.5,-600 1184.5,-600 1184.5,-606 1178.5,-612 1172.5,-612"/>
<text text-anchor="middle" x="1137" y="-591.5" font-family="sans" font-size="10.00">mikado_prepare</text>
</g>
<!-- 27&#45;&gt;1 -->
<g id="edge2" class="edge"><title>27&#45;&gt;1</title>
<path fill="none" stroke="grey" stroke-width="2" d="M1137,-575.697C1137,-567.983 1137,-558.712 1137,-550.112"/>
<polygon fill="grey" stroke="grey" stroke-width="2" points="1140.5,-550.104 1137,-540.104 1133.5,-550.104 1140.5,-550.104"/>
</g>
<!-- 27&#45;&gt;2 -->
<g id="edge3" class="edge"><title>27&#45;&gt;2</title>
<path fill="none" stroke="grey" stroke-width="2" d="M1184.81,-582.684C1212.92,-574.726 1247.76,-561.371 1273,-540 1308.13,-510.248 1326,-497.038 1326,-451 1326,-451 1326,-451 1326,-377 1326,-336.996 1326,-290.653 1326,-262.08"/>
<polygon fill="grey" stroke="grey" stroke-width="2" points="1329.5,-262.049 1326,-252.049 1322.5,-262.049 1329.5,-262.049"/>
</g>
<!-- 27&#45;&gt;10 -->
<g id="edge15" class="edge"><title>27&#45;&gt;10</title>
<path fill="none" stroke="grey" stroke-width="2" d="M1089.18,-592.015C901.41,-587.938 220.393,-571.124 129,-540 63.064,-517.546 0,-520.655 0,-451 0,-451 0,-451 0,-377 0,-330.501 15.1039,-311.885 55,-288 122.942,-247.325 667.41,-237.671 852.597,-235.554"/>
<polygon fill="grey" stroke="grey" stroke-width="2" points="852.748,-239.053 862.709,-235.442 852.671,-232.053 852.748,-239.053"/>
</g>
<!-- 27&#45;&gt;11 -->
<g id="edge17" class="edge"><title>27&#45;&gt;11</title>
<path fill="none" stroke="grey" stroke-width="2" d="M1184.65,-576.875C1204.54,-568.326 1226.74,-556.185 1243,-540 1274.41,-508.728 1288,-495.324 1288,-451 1288,-451 1288,-451 1288,-377 1288,-332.604 1260.63,-287.382 1240.62,-260.254"/>
<polygon fill="grey" stroke="grey" stroke-width="2" points="1243.26,-257.948 1234.42,-252.106 1237.69,-262.185 1243.26,-257.948"/>
</g>
<!-- 27&#45;&gt;13 -->
<g id="edge21" class="edge"><title>27&#45;&gt;13</title>
<path fill="none" stroke="grey" stroke-width="2" d="M1089.11,-586.602C985.719,-572.791 743.446,-540.426 650.35,-527.99"/>
<polygon fill="grey" stroke="grey" stroke-width="2" points="650.643,-524.498 640.268,-526.643 649.717,-531.436 650.643,-524.498"/>
</g>
<!-- 27&#45;&gt;14 -->
<g id="edge25" class="edge"><title>27&#45;&gt;14</title>
<path fill="none" stroke="grey" stroke-width="2" d="M1163.12,-575.816C1174.58,-566.692 1186.81,-554.386 1193,-540 1207.06,-507.323 1246.82,-469.307 1192,-360 1185.96,-347.948 1175.73,-337.896 1164.94,-329.903"/>
<polygon fill="grey" stroke="grey" stroke-width="2" points="1166.85,-326.973 1156.63,-324.192 1162.89,-332.742 1166.85,-326.973"/>
</g>
<!-- 27&#45;&gt;19 -->
<g id="edge34" class="edge"><title>27&#45;&gt;19</title>
<path fill="none" stroke="grey" stroke-width="2" d="M1171.73,-576C1187.03,-567.063 1204.17,-554.859 1216,-540 1242.37,-506.873 1250,-493.344 1250,-451 1250,-451 1250,-451 1250,-377 1250,-323.996 1200.19,-281.863 1162.71,-257.664"/>
<polygon fill="grey" stroke="grey" stroke-width="2" points="1164.3,-254.53 1153.97,-252.193 1160.59,-260.464 1164.3,-254.53"/>
</g>
<!-- 27&#45;&gt;25 -->
<g id="edge53" class="edge"><title>27&#45;&gt;25</title>
<path fill="none" stroke="grey" stroke-width="2" d="M1089.42,-591.94C878.483,-586.621 38,-558.675 38,-451 38,-451 38,-451 38,-377 38,-170.33 747.708,-295.951 972.946,-251.811"/>
<polygon fill="grey" stroke="grey" stroke-width="2" points="973.943,-255.177 982.984,-249.653 972.472,-248.333 973.943,-255.177"/>
</g>
<!-- 27&#45;&gt;26 -->
<g id="edge56" class="edge"><title>27&#45;&gt;26</title>
<path fill="none" stroke="grey" stroke-width="2" d="M1110.88,-575.816C1099.42,-566.692 1087.19,-554.386 1081,-540 1074.67,-525.304 1075.17,-518.899 1081,-504 1085.2,-493.279 1092.69,-483.427 1100.58,-475.201"/>
<polygon fill="grey" stroke="grey" stroke-width="2" points="1103.12,-477.608 1107.85,-468.125 1098.24,-472.592 1103.12,-477.608"/>
</g>
<!-- 28&#45;&gt;24 -->
<g id="edge51" class="edge"><title>28&#45;&gt;24</title>
<path fill="none" stroke="grey" stroke-width="2" d="M613,-431.697C613,-423.983 613,-414.712 613,-406.112"/>
<polygon fill="grey" stroke="grey" stroke-width="2" points="616.5,-406.104 613,-396.104 609.5,-406.104 616.5,-406.104"/>
</g>
<!-- 29&#45;&gt;9 -->
<g id="edge12" class="edge"><title>29&#45;&gt;9</title>
<path fill="none" stroke="grey" stroke-width="2" d="M1122,-143.697C1122,-135.983 1122,-126.712 1122,-118.112"/>
<polygon fill="grey" stroke="grey" stroke-width="2" points="1125.5,-118.104 1122,-108.104 1118.5,-118.104 1125.5,-118.104"/>
</g>
</g>
</svg>
