<?xml version="1.0" encoding="UTF-8" standalone="no"?>
<!DOCTYPE svg PUBLIC "-//W3C//DTD SVG 1.1//EN"
 "http://www.w3.org/Graphics/SVG/1.1/DTD/svg11.dtd">
<!-- Generated by graphviz version 2.38.0 (20140413.2041)
 -->
<!-- Title: snakemake_dag Pages: 1 -->
<svg width="1521pt" height="846pt"
 viewBox="0.00 0.00 1521.00 846.00" xmlns="http://www.w3.org/2000/svg" xmlns:xlink="http://www.w3.org/1999/xlink">
<g id="graph0" class="graph" transform="scale(1 1) rotate(0) translate(4 842)">
<title>snakemake_dag</title>
<polygon fill="white" stroke="none" points="-4,4 -4,-842 1517,-842 1517,4 -4,4"/>
<!-- 0 -->
<g id="node1" class="node"><title>0</title>
<path fill="none" stroke="#5673d8" stroke-width="2" d="M1299,-252C1299,-252 1237,-252 1237,-252 1231,-252 1225,-246 1225,-240 1225,-240 1225,-228 1225,-228 1225,-222 1231,-216 1237,-216 1237,-216 1299,-216 1299,-216 1305,-216 1311,-222 1311,-228 1311,-228 1311,-240 1311,-240 1311,-246 1305,-252 1299,-252"/>
<text text-anchor="middle" x="1268" y="-231.5" font-family="sans" font-size="10.00">portcullis_filter</text>
</g>
<!-- 33 -->
<g id="node34" class="node"><title>33</title>
<path fill="none" stroke="#56d8a2" stroke-width="2" d="M982,-180C982,-180 910,-180 910,-180 904,-180 898,-174 898,-168 898,-168 898,-156 898,-156 898,-150 904,-144 910,-144 910,-144 982,-144 982,-144 988,-144 994,-150 994,-156 994,-156 994,-168 994,-168 994,-174 988,-180 982,-180"/>
<text text-anchor="middle" x="946" y="-159.5" font-family="sans" font-size="10.00">portcullis_merge</text>
</g>
<!-- 0&#45;&gt;33 -->
<g id="edge47" class="edge"><title>0&#45;&gt;33</title>
<path fill="none" stroke="grey" stroke-width="2" d="M1224.91,-223.632C1167.97,-211.255 1067.49,-189.412 1003.95,-175.598"/>
<polygon fill="grey" stroke="grey" stroke-width="2" points="1004.6,-172.157 994.083,-173.453 1003.11,-178.997 1004.6,-172.157"/>
</g>
<!-- 1 -->
<g id="node2" class="node"><title>1</title>
<path fill="none" stroke="#5682d8" stroke-width="2" d="M611.5,-401C611.5,-401 540.5,-401 540.5,-401 534.5,-401 528.5,-395 528.5,-389 528.5,-389 528.5,-372 528.5,-372 528.5,-366 534.5,-360 540.5,-360 540.5,-360 611.5,-360 611.5,-360 617.5,-360 623.5,-366 623.5,-372 623.5,-372 623.5,-389 623.5,-389 623.5,-395 617.5,-401 611.5,-401"/>
<text text-anchor="middle" x="576" y="-389" font-family="sans" font-size="10.00">asm_stringtie</text>
<text text-anchor="middle" x="576" y="-378" font-family="sans" font-size="10.00">alrun: star&#45;Ath&#45;0</text>
<text text-anchor="middle" x="576" y="-367" font-family="sans" font-size="10.00">run2: 0</text>
</g>
<!-- 37 -->
<g id="node38" class="node"><title>37</title>
<path fill="none" stroke="#56d892" stroke-width="2" d="M562.5,-324C562.5,-324 405.5,-324 405.5,-324 399.5,-324 393.5,-318 393.5,-312 393.5,-312 393.5,-300 393.5,-300 393.5,-294 399.5,-288 405.5,-288 405.5,-288 562.5,-288 562.5,-288 568.5,-288 574.5,-294 574.5,-300 574.5,-300 574.5,-312 574.5,-312 574.5,-318 568.5,-324 562.5,-324"/>
<text text-anchor="middle" x="484" y="-309" font-family="sans" font-size="10.00">asm_gff_stats</text>
<text text-anchor="middle" x="484" y="-298" font-family="sans" font-size="10.00">asm_run: stringtie&#45;0&#45;star&#45;Ath&#45;0.gtf</text>
</g>
<!-- 1&#45;&gt;37 -->
<g id="edge55" class="edge"><title>1&#45;&gt;37</title>
<path fill="none" stroke="grey" stroke-width="2" d="M550.861,-359.689C539.362,-350.628 525.658,-339.828 513.658,-330.372"/>
<polygon fill="grey" stroke="grey" stroke-width="2" points="515.692,-327.519 505.672,-324.078 511.36,-333.017 515.692,-327.519"/>
</g>
<!-- 2 -->
<g id="node3" class="node"><title>2</title>
<path fill="none" stroke="#569ad8" stroke-width="2" d="M1154.5,-838C1154.5,-838 1071.5,-838 1071.5,-838 1065.5,-838 1059.5,-832 1059.5,-826 1059.5,-826 1059.5,-814 1059.5,-814 1059.5,-808 1065.5,-802 1071.5,-802 1071.5,-802 1154.5,-802 1154.5,-802 1160.5,-802 1166.5,-808 1166.5,-814 1166.5,-814 1166.5,-826 1166.5,-826 1166.5,-832 1160.5,-838 1154.5,-838"/>
<text text-anchor="middle" x="1113" y="-817.5" font-family="sans" font-size="10.00">align_tophat_index</text>
</g>
<!-- 6 -->
<g id="node7" class="node"><title>6</title>
<path fill="none" stroke="#56d87b" stroke-width="2" d="M1139,-766C1139,-766 1087,-766 1087,-766 1081,-766 1075,-760 1075,-754 1075,-754 1075,-737 1075,-737 1075,-731 1081,-725 1087,-725 1087,-725 1139,-725 1139,-725 1145,-725 1151,-731 1151,-737 1151,-737 1151,-754 1151,-754 1151,-760 1145,-766 1139,-766"/>
<text text-anchor="middle" x="1113" y="-754" font-family="sans" font-size="10.00">align_tophat</text>
<text text-anchor="middle" x="1113" y="-743" font-family="sans" font-size="10.00">run: 0</text>
<text text-anchor="middle" x="1113" y="-732" font-family="sans" font-size="10.00">sample: Ath</text>
</g>
<!-- 2&#45;&gt;6 -->
<g id="edge7" class="edge"><title>2&#45;&gt;6</title>
<path fill="none" stroke="grey" stroke-width="2" d="M1113,-801.819C1113,-794.198 1113,-785.005 1113,-776.32"/>
<polygon fill="grey" stroke="grey" stroke-width="2" points="1116.5,-776.12 1113,-766.12 1109.5,-776.12 1116.5,-776.12"/>
</g>
<!-- 3 -->
<g id="node4" class="node"><title>3</title>
<path fill="none" stroke="#d87556" stroke-width="2" d="M1500.5,-398.5C1500.5,-398.5 1383.5,-398.5 1383.5,-398.5 1377.5,-398.5 1371.5,-392.5 1371.5,-386.5 1371.5,-386.5 1371.5,-374.5 1371.5,-374.5 1371.5,-368.5 1377.5,-362.5 1383.5,-362.5 1383.5,-362.5 1500.5,-362.5 1500.5,-362.5 1506.5,-362.5 1512.5,-368.5 1512.5,-374.5 1512.5,-374.5 1512.5,-386.5 1512.5,-386.5 1512.5,-392.5 1506.5,-398.5 1500.5,-398.5"/>
<text text-anchor="middle" x="1442" y="-383.5" font-family="sans" font-size="10.00">portcullis_prep</text>
<text text-anchor="middle" x="1442" y="-372.5" font-family="sans" font-size="10.00">aln_method: tophat&#45;Ath&#45;0</text>
</g>
<!-- 39 -->
<g id="node40" class="node"><title>39</title>
<path fill="none" stroke="#56d8d0" stroke-width="2" d="M1501,-324C1501,-324 1441,-324 1441,-324 1435,-324 1429,-318 1429,-312 1429,-312 1429,-300 1429,-300 1429,-294 1435,-288 1441,-288 1441,-288 1501,-288 1501,-288 1507,-288 1513,-294 1513,-300 1513,-300 1513,-312 1513,-312 1513,-318 1507,-324 1501,-324"/>
<text text-anchor="middle" x="1471" y="-303.5" font-family="sans" font-size="10.00">portcullis_junc</text>
</g>
<!-- 3&#45;&gt;39 -->
<g id="edge57" class="edge"><title>3&#45;&gt;39</title>
<path fill="none" stroke="grey" stroke-width="2" d="M1448.87,-362.319C1452.3,-353.741 1456.53,-343.172 1460.37,-333.579"/>
<polygon fill="grey" stroke="grey" stroke-width="2" points="1463.71,-334.643 1464.18,-324.058 1457.21,-332.043 1463.71,-334.643"/>
</g>
<!-- 4 -->
<g id="node5" class="node"><title>4</title>
<path fill="none" stroke="#56d8d0" stroke-width="2" d="M887,-324C887,-324 827,-324 827,-324 821,-324 815,-318 815,-312 815,-312 815,-300 815,-300 815,-294 821,-288 827,-288 827,-288 887,-288 887,-288 893,-288 899,-294 899,-300 899,-300 899,-312 899,-312 899,-318 893,-324 887,-324"/>
<text text-anchor="middle" x="857" y="-303.5" font-family="sans" font-size="10.00">portcullis_junc</text>
</g>
<!-- 27 -->
<g id="node28" class="node"><title>27</title>
<path fill="none" stroke="#5673d8" stroke-width="2" d="M889,-252C889,-252 827,-252 827,-252 821,-252 815,-246 815,-240 815,-240 815,-228 815,-228 815,-222 821,-216 827,-216 827,-216 889,-216 889,-216 895,-216 901,-222 901,-228 901,-228 901,-240 901,-240 901,-246 895,-252 889,-252"/>
<text text-anchor="middle" x="858" y="-231.5" font-family="sans" font-size="10.00">portcullis_filter</text>
</g>
<!-- 4&#45;&gt;27 -->
<g id="edge39" class="edge"><title>4&#45;&gt;27</title>
<path fill="none" stroke="grey" stroke-width="2" d="M857.247,-287.697C857.357,-279.983 857.49,-270.712 857.613,-262.112"/>
<polygon fill="grey" stroke="grey" stroke-width="2" points="861.112,-262.153 857.756,-252.104 854.113,-262.053 861.112,-262.153"/>
</g>
<!-- 5 -->
<g id="node6" class="node"><title>5</title>
<path fill="none" stroke="#56d892" stroke-width="2" d="M174,-324C174,-324 12,-324 12,-324 6,-324 1.42109e-14,-318 1.42109e-14,-312 1.42109e-14,-312 1.42109e-14,-300 1.42109e-14,-300 1.42109e-14,-294 6,-288 12,-288 12,-288 174,-288 174,-288 180,-288 186,-294 186,-300 186,-300 186,-312 186,-312 186,-318 180,-324 174,-324"/>
<text text-anchor="middle" x="93" y="-309" font-family="sans" font-size="10.00">asm_gff_stats</text>
<text text-anchor="middle" x="93" y="-298" font-family="sans" font-size="10.00">asm_run: stringtie&#45;0&#45;hisat&#45;Ath&#45;0.gtf</text>
</g>
<!-- 8 -->
<g id="node9" class="node"><title>8</title>
<path fill="none" stroke="#d8bc56" stroke-width="2" d="M693,-252C693,-252 663,-252 663,-252 657,-252 651,-246 651,-240 651,-240 651,-228 651,-228 651,-222 657,-216 663,-216 663,-216 693,-216 693,-216 699,-216 705,-222 705,-228 705,-228 705,-240 705,-240 705,-246 699,-252 693,-252"/>
<text text-anchor="middle" x="678" y="-231.5" font-family="sans" font-size="10.00">asm_all</text>
</g>
<!-- 5&#45;&gt;8 -->
<g id="edge11" class="edge"><title>5&#45;&gt;8</title>
<path fill="none" stroke="grey" stroke-width="2" d="M186.079,-289.267C189.086,-288.829 192.066,-288.405 195,-288 360.746,-265.112 559.597,-245.875 640.76,-238.371"/>
<polygon fill="grey" stroke="grey" stroke-width="2" points="641.329,-241.834 650.966,-237.432 640.688,-234.863 641.329,-241.834"/>
</g>
<!-- 30 -->
<g id="node31" class="node"><title>30</title>
<path fill="none" stroke="#61d856" stroke-width="2" d="M1165,-689C1165,-689 1061,-689 1061,-689 1055,-689 1049,-683 1049,-677 1049,-677 1049,-665 1049,-665 1049,-659 1055,-653 1061,-653 1061,-653 1165,-653 1165,-653 1171,-653 1177,-659 1177,-665 1177,-665 1177,-677 1177,-677 1177,-683 1171,-689 1165,-689"/>
<text text-anchor="middle" x="1113" y="-674" font-family="sans" font-size="10.00">bam_sort</text>
<text text-anchor="middle" x="1113" y="-663" font-family="sans" font-size="10.00">align_run: tophat&#45;Ath&#45;0</text>
</g>
<!-- 6&#45;&gt;30 -->
<g id="edge43" class="edge"><title>6&#45;&gt;30</title>
<path fill="none" stroke="grey" stroke-width="2" d="M1113,-724.689C1113,-716.907 1113,-707.842 1113,-699.447"/>
<polygon fill="grey" stroke="grey" stroke-width="2" points="1116.5,-699.319 1113,-689.319 1109.5,-699.32 1116.5,-699.319"/>
</g>
<!-- 7 -->
<g id="node8" class="node"><title>7</title>
<path fill="none" stroke="#61d856" stroke-width="2" d="M526.5,-689C526.5,-689 431.5,-689 431.5,-689 425.5,-689 419.5,-683 419.5,-677 419.5,-677 419.5,-665 419.5,-665 419.5,-659 425.5,-653 431.5,-653 431.5,-653 526.5,-653 526.5,-653 532.5,-653 538.5,-659 538.5,-665 538.5,-665 538.5,-677 538.5,-677 538.5,-683 532.5,-689 526.5,-689"/>
<text text-anchor="middle" x="479" y="-674" font-family="sans" font-size="10.00">bam_sort</text>
<text text-anchor="middle" x="479" y="-663" font-family="sans" font-size="10.00">align_run: hisat&#45;Ath&#45;0</text>
</g>
<!-- 10 -->
<g id="node11" class="node"><title>10</title>
<path fill="none" stroke="#5682d8" stroke-width="2" d="M380,-401C380,-401 304,-401 304,-401 298,-401 292,-395 292,-389 292,-389 292,-372 292,-372 292,-366 298,-360 304,-360 304,-360 380,-360 380,-360 386,-360 392,-366 392,-372 392,-372 392,-389 392,-389 392,-395 386,-401 380,-401"/>
<text text-anchor="middle" x="342" y="-389" font-family="sans" font-size="10.00">asm_stringtie</text>
<text text-anchor="middle" x="342" y="-378" font-family="sans" font-size="10.00">alrun: hisat&#45;Ath&#45;0</text>
<text text-anchor="middle" x="342" y="-367" font-family="sans" font-size="10.00">run2: 0</text>
</g>
<!-- 7&#45;&gt;10 -->
<g id="edge17" class="edge"><title>7&#45;&gt;10</title>
<path fill="none" stroke="grey" stroke-width="2" d="M470.84,-652.817C448.14,-605.015 384.062,-470.076 355.746,-410.447"/>
<polygon fill="grey" stroke="grey" stroke-width="2" points="358.814,-408.748 351.363,-401.216 352.491,-411.751 358.814,-408.748"/>
</g>
<!-- 20 -->
<g id="node21" class="node"><title>20</title>
<path fill="none" stroke="#56d8c1" stroke-width="2" d="M583,-545C583,-545 539,-545 539,-545 533,-545 527,-539 527,-533 527,-533 527,-521 527,-521 527,-515 533,-509 539,-509 539,-509 583,-509 583,-509 589,-509 595,-515 595,-521 595,-521 595,-533 595,-533 595,-539 589,-545 583,-545"/>
<text text-anchor="middle" x="561" y="-524.5" font-family="sans" font-size="10.00">bam_stats</text>
</g>
<!-- 7&#45;&gt;20 -->
<g id="edge27" class="edge"><title>7&#45;&gt;20</title>
<path fill="none" stroke="grey" stroke-width="2" d="M484.632,-652.89C491.084,-634.428 502.64,-604.516 517,-581 522.951,-571.254 530.584,-561.405 537.816,-552.886"/>
<polygon fill="grey" stroke="grey" stroke-width="2" points="540.613,-555.005 544.56,-545.172 535.343,-550.397 540.613,-555.005"/>
</g>
<!-- 26 -->
<g id="node27" class="node"><title>26</title>
<path fill="none" stroke="#56c9d8" stroke-width="2" d="M498,-401C498,-401 422,-401 422,-401 416,-401 410,-395 410,-389 410,-389 410,-372 410,-372 410,-366 416,-360 422,-360 422,-360 498,-360 498,-360 504,-360 510,-366 510,-372 510,-372 510,-389 510,-389 510,-395 504,-401 498,-401"/>
<text text-anchor="middle" x="460" y="-389" font-family="sans" font-size="10.00">asm_class</text>
<text text-anchor="middle" x="460" y="-378" font-family="sans" font-size="10.00">alrun: hisat&#45;Ath&#45;0</text>
<text text-anchor="middle" x="460" y="-367" font-family="sans" font-size="10.00">run2: 0</text>
</g>
<!-- 7&#45;&gt;26 -->
<g id="edge37" class="edge"><title>7&#45;&gt;26</title>
<path fill="none" stroke="grey" stroke-width="2" d="M477.868,-652.817C474.74,-605.311 465.943,-471.742 461.98,-411.562"/>
<polygon fill="grey" stroke="grey" stroke-width="2" points="465.448,-410.965 461.298,-401.216 458.463,-411.425 465.448,-410.965"/>
</g>
<!-- 36 -->
<g id="node37" class="node"><title>36</title>
<path fill="none" stroke="#d89c56" stroke-width="2" d="M583.5,-617C583.5,-617 538.5,-617 538.5,-617 532.5,-617 526.5,-611 526.5,-605 526.5,-605 526.5,-593 526.5,-593 526.5,-587 532.5,-581 538.5,-581 538.5,-581 583.5,-581 583.5,-581 589.5,-581 595.5,-587 595.5,-593 595.5,-593 595.5,-605 595.5,-605 595.5,-611 589.5,-617 583.5,-617"/>
<text text-anchor="middle" x="561" y="-596.5" font-family="sans" font-size="10.00">bam_index</text>
</g>
<!-- 7&#45;&gt;36 -->
<g id="edge54" class="edge"><title>7&#45;&gt;36</title>
<path fill="none" stroke="grey" stroke-width="2" d="M499.27,-652.697C509.498,-643.965 522.061,-633.24 533.178,-623.75"/>
<polygon fill="grey" stroke="grey" stroke-width="2" points="535.63,-626.259 540.963,-617.104 531.085,-620.935 535.63,-626.259"/>
</g>
<!-- 16 -->
<g id="node17" class="node"><title>16</title>
<path fill="none" stroke="#d85656" stroke-width="2" d="M719.5,-180C719.5,-180 640.5,-180 640.5,-180 634.5,-180 628.5,-174 628.5,-168 628.5,-168 628.5,-156 628.5,-156 628.5,-150 634.5,-144 640.5,-144 640.5,-144 719.5,-144 719.5,-144 725.5,-144 731.5,-150 731.5,-156 731.5,-156 731.5,-168 731.5,-168 731.5,-174 725.5,-180 719.5,-180"/>
<text text-anchor="middle" x="680" y="-159.5" font-family="sans" font-size="10.00">asm_collect_stats</text>
</g>
<!-- 8&#45;&gt;16 -->
<g id="edge22" class="edge"><title>8&#45;&gt;16</title>
<path fill="none" stroke="grey" stroke-width="2" d="M678.494,-215.697C678.715,-207.983 678.98,-198.712 679.225,-190.112"/>
<polygon fill="grey" stroke="grey" stroke-width="2" points="682.724,-190.2 679.511,-180.104 675.727,-190 682.724,-190.2"/>
</g>
<!-- 22 -->
<g id="node23" class="node"><title>22</title>
<path fill="none" stroke="#5663d8" stroke-width="2" d="M901.5,-108C901.5,-108 854.5,-108 854.5,-108 848.5,-108 842.5,-102 842.5,-96 842.5,-96 842.5,-84 842.5,-84 842.5,-78 848.5,-72 854.5,-72 854.5,-72 901.5,-72 901.5,-72 907.5,-72 913.5,-78 913.5,-84 913.5,-84 913.5,-96 913.5,-96 913.5,-102 907.5,-108 901.5,-108"/>
<text text-anchor="middle" x="878" y="-87.5" font-family="sans" font-size="10.00">mikado_cfg</text>
</g>
<!-- 8&#45;&gt;22 -->
<g id="edge31" class="edge"><title>8&#45;&gt;22</title>
<path fill="none" stroke="grey" stroke-width="2" d="M702.125,-215.871C737.938,-190.444 805.248,-142.654 845.411,-114.139"/>
<polygon fill="grey" stroke="grey" stroke-width="2" points="847.662,-116.832 853.79,-108.189 843.61,-111.125 847.662,-116.832"/>
</g>
<!-- 9 -->
<g id="node10" class="node"><title>9</title>
<path fill="none" stroke="#56c9d8" stroke-width="2" d="M1187,-401C1187,-401 1103,-401 1103,-401 1097,-401 1091,-395 1091,-389 1091,-389 1091,-372 1091,-372 1091,-366 1097,-360 1103,-360 1103,-360 1187,-360 1187,-360 1193,-360 1199,-366 1199,-372 1199,-372 1199,-389 1199,-389 1199,-395 1193,-401 1187,-401"/>
<text text-anchor="middle" x="1145" y="-389" font-family="sans" font-size="10.00">asm_class</text>
<text text-anchor="middle" x="1145" y="-378" font-family="sans" font-size="10.00">alrun: tophat&#45;Ath&#45;0</text>
<text text-anchor="middle" x="1145" y="-367" font-family="sans" font-size="10.00">run2: 0</text>
</g>
<!-- 19 -->
<g id="node20" class="node"><title>19</title>
<path fill="none" stroke="#56d892" stroke-width="2" d="M1186.5,-324C1186.5,-324 1031.5,-324 1031.5,-324 1025.5,-324 1019.5,-318 1019.5,-312 1019.5,-312 1019.5,-300 1019.5,-300 1019.5,-294 1025.5,-288 1031.5,-288 1031.5,-288 1186.5,-288 1186.5,-288 1192.5,-288 1198.5,-294 1198.5,-300 1198.5,-300 1198.5,-312 1198.5,-312 1198.5,-318 1192.5,-324 1186.5,-324"/>
<text text-anchor="middle" x="1109" y="-309" font-family="sans" font-size="10.00">asm_gff_stats</text>
<text text-anchor="middle" x="1109" y="-298" font-family="sans" font-size="10.00">asm_run: class&#45;0&#45;tophat&#45;Ath&#45;0.gtf</text>
</g>
<!-- 9&#45;&gt;19 -->
<g id="edge25" class="edge"><title>9&#45;&gt;19</title>
<path fill="none" stroke="grey" stroke-width="2" d="M1135.16,-359.689C1131.13,-351.561 1126.4,-342.033 1122.08,-333.332"/>
<polygon fill="grey" stroke="grey" stroke-width="2" points="1125.18,-331.719 1117.6,-324.319 1118.91,-334.833 1125.18,-331.719"/>
</g>
<!-- 10&#45;&gt;5 -->
<g id="edge6" class="edge"><title>10&#45;&gt;5</title>
<path fill="none" stroke="grey" stroke-width="2" d="M291.911,-364.916C254.44,-354.006 202.766,-338.96 161.477,-326.938"/>
<polygon fill="grey" stroke="grey" stroke-width="2" points="162.34,-323.544 151.76,-324.109 160.383,-330.265 162.34,-323.544"/>
</g>
<!-- 11 -->
<g id="node12" class="node"><title>11</title>
<path fill="none" stroke="#97d856" stroke-width="2" d="M516,-838C516,-838 442,-838 442,-838 436,-838 430,-832 430,-826 430,-826 430,-814 430,-814 430,-808 436,-802 442,-802 442,-802 516,-802 516,-802 522,-802 528,-808 528,-814 528,-814 528,-826 528,-826 528,-832 522,-838 516,-838"/>
<text text-anchor="middle" x="479" y="-817.5" font-family="sans" font-size="10.00">align_hisat_index</text>
</g>
<!-- 41 -->
<g id="node42" class="node"><title>41</title>
<path fill="none" stroke="#68d856" stroke-width="2" d="M504,-766C504,-766 454,-766 454,-766 448,-766 442,-760 442,-754 442,-754 442,-737 442,-737 442,-731 448,-725 454,-725 454,-725 504,-725 504,-725 510,-725 516,-731 516,-737 516,-737 516,-754 516,-754 516,-760 510,-766 504,-766"/>
<text text-anchor="middle" x="479" y="-754" font-family="sans" font-size="10.00">align_hisat</text>
<text text-anchor="middle" x="479" y="-743" font-family="sans" font-size="10.00">run: 0</text>
<text text-anchor="middle" x="479" y="-732" font-family="sans" font-size="10.00">sample: Ath</text>
</g>
<!-- 11&#45;&gt;41 -->
<g id="edge60" class="edge"><title>11&#45;&gt;41</title>
<path fill="none" stroke="grey" stroke-width="2" d="M479,-801.819C479,-794.198 479,-785.005 479,-776.32"/>
<polygon fill="grey" stroke="grey" stroke-width="2" points="482.5,-776.12 479,-766.12 475.5,-776.12 482.5,-776.12"/>
</g>
<!-- 12 -->
<g id="node13" class="node"><title>12</title>
<path fill="none" stroke="#d89c56" stroke-width="2" d="M800.5,-617C800.5,-617 755.5,-617 755.5,-617 749.5,-617 743.5,-611 743.5,-605 743.5,-605 743.5,-593 743.5,-593 743.5,-587 749.5,-581 755.5,-581 755.5,-581 800.5,-581 800.5,-581 806.5,-581 812.5,-587 812.5,-593 812.5,-593 812.5,-605 812.5,-605 812.5,-611 806.5,-617 800.5,-617"/>
<text text-anchor="middle" x="778" y="-596.5" font-family="sans" font-size="10.00">bam_index</text>
</g>
<!-- 28 -->
<g id="node29" class="node"><title>28</title>
<path fill="none" stroke="#56d8c1" stroke-width="2" d="M793,-545C793,-545 749,-545 749,-545 743,-545 737,-539 737,-533 737,-533 737,-521 737,-521 737,-515 743,-509 749,-509 749,-509 793,-509 793,-509 799,-509 805,-515 805,-521 805,-521 805,-533 805,-533 805,-539 799,-545 793,-545"/>
<text text-anchor="middle" x="771" y="-524.5" font-family="sans" font-size="10.00">bam_stats</text>
</g>
<!-- 12&#45;&gt;28 -->
<g id="edge40" class="edge"><title>12&#45;&gt;28</title>
<path fill="none" stroke="grey" stroke-width="2" d="M776.27,-580.697C775.498,-572.983 774.571,-563.712 773.711,-555.112"/>
<polygon fill="grey" stroke="grey" stroke-width="2" points="777.188,-554.706 772.71,-545.104 770.223,-555.403 777.188,-554.706"/>
</g>
<!-- 13 -->
<g id="node14" class="node"><title>13</title>
<path fill="none" stroke="#56d8d0" stroke-width="2" d="M989,-324C989,-324 929,-324 929,-324 923,-324 917,-318 917,-312 917,-312 917,-300 917,-300 917,-294 923,-288 929,-288 929,-288 989,-288 989,-288 995,-288 1001,-294 1001,-300 1001,-300 1001,-312 1001,-312 1001,-318 995,-324 989,-324"/>
<text text-anchor="middle" x="959" y="-303.5" font-family="sans" font-size="10.00">portcullis_junc</text>
</g>
<!-- 31 -->
<g id="node32" class="node"><title>31</title>
<path fill="none" stroke="#5673d8" stroke-width="2" d="M993,-252C993,-252 931,-252 931,-252 925,-252 919,-246 919,-240 919,-240 919,-228 919,-228 919,-222 925,-216 931,-216 931,-216 993,-216 993,-216 999,-216 1005,-222 1005,-228 1005,-228 1005,-240 1005,-240 1005,-246 999,-252 993,-252"/>
<text text-anchor="middle" x="962" y="-231.5" font-family="sans" font-size="10.00">portcullis_filter</text>
</g>
<!-- 13&#45;&gt;31 -->
<g id="edge44" class="edge"><title>13&#45;&gt;31</title>
<path fill="none" stroke="grey" stroke-width="2" d="M959.742,-287.697C960.072,-279.983 960.469,-270.712 960.838,-262.112"/>
<polygon fill="grey" stroke="grey" stroke-width="2" points="964.335,-262.245 961.267,-252.104 957.342,-261.945 964.335,-262.245"/>
</g>
<!-- 14 -->
<g id="node15" class="node"><title>14</title>
<path fill="none" stroke="#56d85b" stroke-width="2" d="M812,-108C812,-108 732,-108 732,-108 726,-108 720,-102 720,-96 720,-96 720,-84 720,-84 720,-78 726,-72 732,-72 732,-72 812,-72 812,-72 818,-72 824,-78 824,-84 824,-84 824,-96 824,-96 824,-102 818,-108 812,-108"/>
<text text-anchor="middle" x="772" y="-87.5" font-family="sans" font-size="10.00">align_collect_stats</text>
</g>
<!-- 24 -->
<g id="node25" class="node"><title>24</title>
<path fill="none" stroke="#a7d856" stroke-width="2" d="M787,-36C787,-36 757,-36 757,-36 751,-36 745,-30 745,-24 745,-24 745,-12 745,-12 745,-6 751,-0 757,-0 757,-0 787,-0 787,-0 793,-0 799,-6 799,-12 799,-12 799,-24 799,-24 799,-30 793,-36 787,-36"/>
<text text-anchor="middle" x="772" y="-15.5" font-family="sans" font-size="10.00">all</text>
</g>
<!-- 14&#45;&gt;24 -->
<g id="edge35" class="edge"><title>14&#45;&gt;24</title>
<path fill="none" stroke="grey" stroke-width="2" d="M772,-71.6966C772,-63.9827 772,-54.7125 772,-46.1124"/>
<polygon fill="grey" stroke="grey" stroke-width="2" points="775.5,-46.1043 772,-36.1043 768.5,-46.1044 775.5,-46.1043"/>
</g>
<!-- 15 -->
<g id="node16" class="node"><title>15</title>
<path fill="none" stroke="#56d88a" stroke-width="2" d="M731,-838C731,-838 661,-838 661,-838 655,-838 649,-832 649,-826 649,-826 649,-814 649,-814 649,-808 655,-802 661,-802 661,-802 731,-802 731,-802 737,-802 743,-808 743,-814 743,-814 743,-826 743,-826 743,-832 737,-838 731,-838"/>
<text text-anchor="middle" x="696" y="-817.5" font-family="sans" font-size="10.00">align_star_index</text>
</g>
<!-- 34 -->
<g id="node35" class="node"><title>34</title>
<path fill="none" stroke="#56d8b1" stroke-width="2" d="M721,-766C721,-766 671,-766 671,-766 665,-766 659,-760 659,-754 659,-754 659,-737 659,-737 659,-731 665,-725 671,-725 671,-725 721,-725 721,-725 727,-725 733,-731 733,-737 733,-737 733,-754 733,-754 733,-760 727,-766 721,-766"/>
<text text-anchor="middle" x="696" y="-754" font-family="sans" font-size="10.00">align_star</text>
<text text-anchor="middle" x="696" y="-743" font-family="sans" font-size="10.00">run: 0</text>
<text text-anchor="middle" x="696" y="-732" font-family="sans" font-size="10.00">sample: Ath</text>
</g>
<!-- 15&#45;&gt;34 -->
<g id="edge50" class="edge"><title>15&#45;&gt;34</title>
<path fill="none" stroke="grey" stroke-width="2" d="M696,-801.819C696,-794.198 696,-785.005 696,-776.32"/>
<polygon fill="grey" stroke="grey" stroke-width="2" points="699.5,-776.12 696,-766.12 692.5,-776.12 699.5,-776.12"/>
</g>
<!-- 16&#45;&gt;24 -->
<g id="edge34" class="edge"><title>16&#45;&gt;24</title>
<path fill="none" stroke="grey" stroke-width="2" d="M683.228,-143.731C687.359,-124.864 695.861,-94.3528 711,-72 718.449,-61.0013 728.733,-50.8881 738.736,-42.5101"/>
<polygon fill="grey" stroke="grey" stroke-width="2" points="741.022,-45.1633 746.638,-36.1793 736.645,-39.7003 741.022,-45.1633"/>
</g>
<!-- 17 -->
<g id="node18" class="node"><title>17</title>
<path fill="none" stroke="#61d856" stroke-width="2" d="M741,-689C741,-689 651,-689 651,-689 645,-689 639,-683 639,-677 639,-677 639,-665 639,-665 639,-659 645,-653 651,-653 651,-653 741,-653 741,-653 747,-653 753,-659 753,-665 753,-665 753,-677 753,-677 753,-683 747,-689 741,-689"/>
<text text-anchor="middle" x="696" y="-674" font-family="sans" font-size="10.00">bam_sort</text>
<text text-anchor="middle" x="696" y="-663" font-family="sans" font-size="10.00">align_run: star&#45;Ath&#45;0</text>
</g>
<!-- 17&#45;&gt;1 -->
<g id="edge2" class="edge"><title>17&#45;&gt;1</title>
<path fill="none" stroke="grey" stroke-width="2" d="M688.853,-652.817C669.011,-605.113 613.074,-470.632 588.194,-410.816"/>
<polygon fill="grey" stroke="grey" stroke-width="2" points="591.273,-409.105 584.201,-401.216 584.81,-411.794 591.273,-409.105"/>
</g>
<!-- 17&#45;&gt;12 -->
<g id="edge19" class="edge"><title>17&#45;&gt;12</title>
<path fill="none" stroke="grey" stroke-width="2" d="M716.27,-652.697C726.498,-643.965 739.061,-633.24 750.178,-623.75"/>
<polygon fill="grey" stroke="grey" stroke-width="2" points="752.63,-626.259 757.963,-617.104 748.085,-620.935 752.63,-626.259"/>
</g>
<!-- 17&#45;&gt;28 -->
<g id="edge41" class="edge"><title>17&#45;&gt;28</title>
<path fill="none" stroke="grey" stroke-width="2" d="M702.141,-652.778C708.942,-634.481 720.715,-604.947 734,-581 739.226,-571.58 745.736,-561.771 751.831,-553.191"/>
<polygon fill="grey" stroke="grey" stroke-width="2" points="754.679,-555.227 757.726,-545.08 749.016,-551.112 754.679,-555.227"/>
</g>
<!-- 40 -->
<g id="node41" class="node"><title>40</title>
<path fill="none" stroke="#56c9d8" stroke-width="2" d="M724.5,-401C724.5,-401 653.5,-401 653.5,-401 647.5,-401 641.5,-395 641.5,-389 641.5,-389 641.5,-372 641.5,-372 641.5,-366 647.5,-360 653.5,-360 653.5,-360 724.5,-360 724.5,-360 730.5,-360 736.5,-366 736.5,-372 736.5,-372 736.5,-389 736.5,-389 736.5,-395 730.5,-401 724.5,-401"/>
<text text-anchor="middle" x="689" y="-389" font-family="sans" font-size="10.00">asm_class</text>
<text text-anchor="middle" x="689" y="-378" font-family="sans" font-size="10.00">alrun: star&#45;Ath&#45;0</text>
<text text-anchor="middle" x="689" y="-367" font-family="sans" font-size="10.00">run2: 0</text>
</g>
<!-- 17&#45;&gt;40 -->
<g id="edge58" class="edge"><title>17&#45;&gt;40</title>
<path fill="none" stroke="grey" stroke-width="2" d="M695.583,-652.817C694.43,-605.311 691.19,-471.742 689.729,-411.562"/>
<polygon fill="grey" stroke="grey" stroke-width="2" points="693.22,-411.128 689.478,-401.216 686.222,-411.298 693.22,-411.128"/>
</g>
<!-- 18 -->
<g id="node19" class="node"><title>18</title>
<path fill="none" stroke="#d87556" stroke-width="2" d="M1060.5,-398.5C1060.5,-398.5 951.5,-398.5 951.5,-398.5 945.5,-398.5 939.5,-392.5 939.5,-386.5 939.5,-386.5 939.5,-374.5 939.5,-374.5 939.5,-368.5 945.5,-362.5 951.5,-362.5 951.5,-362.5 1060.5,-362.5 1060.5,-362.5 1066.5,-362.5 1072.5,-368.5 1072.5,-374.5 1072.5,-374.5 1072.5,-386.5 1072.5,-386.5 1072.5,-392.5 1066.5,-398.5 1060.5,-398.5"/>
<text text-anchor="middle" x="1006" y="-383.5" font-family="sans" font-size="10.00">portcullis_prep</text>
<text text-anchor="middle" x="1006" y="-372.5" font-family="sans" font-size="10.00">aln_method: hisat&#45;Ath&#45;0</text>
</g>
<!-- 18&#45;&gt;13 -->
<g id="edge20" class="edge"><title>18&#45;&gt;13</title>
<path fill="none" stroke="grey" stroke-width="2" d="M994.862,-362.319C989.125,-353.47 982.016,-342.503 975.643,-332.673"/>
<polygon fill="grey" stroke="grey" stroke-width="2" points="978.435,-330.545 970.058,-324.058 972.561,-334.353 978.435,-330.545"/>
</g>
<!-- 19&#45;&gt;8 -->
<g id="edge14" class="edge"><title>19&#45;&gt;8</title>
<path fill="none" stroke="grey" stroke-width="2" d="M1019.43,-289.571C1016.25,-289.038 1013.1,-288.513 1010,-288 903.036,-270.279 776.501,-250.37 715.113,-240.779"/>
<polygon fill="grey" stroke="grey" stroke-width="2" points="715.55,-237.305 705.13,-239.22 714.47,-244.221 715.55,-237.305"/>
</g>
<!-- 35 -->
<g id="node36" class="node"><title>35</title>
<path fill="none" stroke="#d8c356" stroke-width="2" d="M786.5,-473C786.5,-473 755.5,-473 755.5,-473 749.5,-473 743.5,-467 743.5,-461 743.5,-461 743.5,-449 743.5,-449 743.5,-443 749.5,-437 755.5,-437 755.5,-437 786.5,-437 786.5,-437 792.5,-437 798.5,-443 798.5,-449 798.5,-449 798.5,-461 798.5,-461 798.5,-467 792.5,-473 786.5,-473"/>
<text text-anchor="middle" x="771" y="-452.5" font-family="sans" font-size="10.00">align_all</text>
</g>
<!-- 20&#45;&gt;35 -->
<g id="edge53" class="edge"><title>20&#45;&gt;35</title>
<path fill="none" stroke="grey" stroke-width="2" d="M595.208,-514.597C633.163,-501.946 694.218,-481.594 733.464,-468.512"/>
<polygon fill="grey" stroke="grey" stroke-width="2" points="734.807,-471.754 743.187,-465.271 732.594,-465.113 734.807,-471.754"/>
</g>
<!-- 21 -->
<g id="node22" class="node"><title>21</title>
<path fill="none" stroke="#5682d8" stroke-width="2" d="M1313,-401C1313,-401 1229,-401 1229,-401 1223,-401 1217,-395 1217,-389 1217,-389 1217,-372 1217,-372 1217,-366 1223,-360 1229,-360 1229,-360 1313,-360 1313,-360 1319,-360 1325,-366 1325,-372 1325,-372 1325,-389 1325,-389 1325,-395 1319,-401 1313,-401"/>
<text text-anchor="middle" x="1271" y="-389" font-family="sans" font-size="10.00">asm_stringtie</text>
<text text-anchor="middle" x="1271" y="-378" font-family="sans" font-size="10.00">alrun: tophat&#45;Ath&#45;0</text>
<text text-anchor="middle" x="1271" y="-367" font-family="sans" font-size="10.00">run2: 0</text>
</g>
<!-- 38 -->
<g id="node39" class="node"><title>38</title>
<path fill="none" stroke="#56d892" stroke-width="2" d="M1399,-324C1399,-324 1229,-324 1229,-324 1223,-324 1217,-318 1217,-312 1217,-312 1217,-300 1217,-300 1217,-294 1223,-288 1229,-288 1229,-288 1399,-288 1399,-288 1405,-288 1411,-294 1411,-300 1411,-300 1411,-312 1411,-312 1411,-318 1405,-324 1399,-324"/>
<text text-anchor="middle" x="1314" y="-309" font-family="sans" font-size="10.00">asm_gff_stats</text>
<text text-anchor="middle" x="1314" y="-298" font-family="sans" font-size="10.00">asm_run: stringtie&#45;0&#45;tophat&#45;Ath&#45;0.gtf</text>
</g>
<!-- 21&#45;&gt;38 -->
<g id="edge56" class="edge"><title>21&#45;&gt;38</title>
<path fill="none" stroke="grey" stroke-width="2" d="M1282.75,-359.689C1287.62,-351.474 1293.34,-341.83 1298.55,-333.055"/>
<polygon fill="grey" stroke="grey" stroke-width="2" points="1301.64,-334.706 1303.73,-324.319 1295.62,-331.135 1301.64,-334.706"/>
</g>
<!-- 22&#45;&gt;24 -->
<g id="edge33" class="edge"><title>22&#45;&gt;24</title>
<path fill="none" stroke="grey" stroke-width="2" d="M852.069,-71.8761C838.338,-62.8083 821.294,-51.5523 806.464,-41.7592"/>
<polygon fill="grey" stroke="grey" stroke-width="2" points="808.304,-38.7798 798.03,-36.1898 804.446,-44.621 808.304,-38.7798"/>
</g>
<!-- 23 -->
<g id="node24" class="node"><title>23</title>
<path fill="none" stroke="#56d892" stroke-width="2" d="M363.5,-324C363.5,-324 216.5,-324 216.5,-324 210.5,-324 204.5,-318 204.5,-312 204.5,-312 204.5,-300 204.5,-300 204.5,-294 210.5,-288 216.5,-288 216.5,-288 363.5,-288 363.5,-288 369.5,-288 375.5,-294 375.5,-300 375.5,-300 375.5,-312 375.5,-312 375.5,-318 369.5,-324 363.5,-324"/>
<text text-anchor="middle" x="290" y="-309" font-family="sans" font-size="10.00">asm_gff_stats</text>
<text text-anchor="middle" x="290" y="-298" font-family="sans" font-size="10.00">asm_run: class&#45;0&#45;hisat&#45;Ath&#45;0.gtf</text>
</g>
<!-- 23&#45;&gt;8 -->
<g id="edge9" class="edge"><title>23&#45;&gt;8</title>
<path fill="none" stroke="grey" stroke-width="2" d="M375.557,-289.525C378.405,-289.01 381.226,-288.501 384,-288 476.301,-271.334 584.911,-251.766 640.727,-241.712"/>
<polygon fill="grey" stroke="grey" stroke-width="2" points="641.621,-245.108 650.842,-239.891 640.38,-238.219 641.621,-245.108"/>
</g>
<!-- 25 -->
<g id="node26" class="node"><title>25</title>
<path fill="none" stroke="#56d892" stroke-width="2" d="M747,-324C747,-324 605,-324 605,-324 599,-324 593,-318 593,-312 593,-312 593,-300 593,-300 593,-294 599,-288 605,-288 605,-288 747,-288 747,-288 753,-288 759,-294 759,-300 759,-300 759,-312 759,-312 759,-318 753,-324 747,-324"/>
<text text-anchor="middle" x="676" y="-309" font-family="sans" font-size="10.00">asm_gff_stats</text>
<text text-anchor="middle" x="676" y="-298" font-family="sans" font-size="10.00">asm_run: class&#45;0&#45;star&#45;Ath&#45;0.gtf</text>
</g>
<!-- 25&#45;&gt;8 -->
<g id="edge10" class="edge"><title>25&#45;&gt;8</title>
<path fill="none" stroke="grey" stroke-width="2" d="M676.494,-287.697C676.715,-279.983 676.98,-270.712 677.225,-262.112"/>
<polygon fill="grey" stroke="grey" stroke-width="2" points="680.724,-262.2 677.511,-252.104 673.727,-262 680.724,-262.2"/>
</g>
<!-- 26&#45;&gt;23 -->
<g id="edge32" class="edge"><title>26&#45;&gt;23</title>
<path fill="none" stroke="grey" stroke-width="2" d="M413.996,-359.88C390.92,-350.039 362.949,-338.111 339.418,-328.075"/>
<polygon fill="grey" stroke="grey" stroke-width="2" points="340.541,-324.749 329.969,-324.046 337.794,-331.188 340.541,-324.749"/>
</g>
<!-- 27&#45;&gt;33 -->
<g id="edge48" class="edge"><title>27&#45;&gt;33</title>
<path fill="none" stroke="grey" stroke-width="2" d="M879.753,-215.697C890.836,-206.881 904.474,-196.032 916.49,-186.474"/>
<polygon fill="grey" stroke="grey" stroke-width="2" points="918.85,-189.069 924.497,-180.104 914.493,-183.59 918.85,-189.069"/>
</g>
<!-- 28&#45;&gt;35 -->
<g id="edge52" class="edge"><title>28&#45;&gt;35</title>
<path fill="none" stroke="grey" stroke-width="2" d="M771,-508.697C771,-500.983 771,-491.712 771,-483.112"/>
<polygon fill="grey" stroke="grey" stroke-width="2" points="774.5,-483.104 771,-473.104 767.5,-483.104 774.5,-483.104"/>
</g>
<!-- 29 -->
<g id="node30" class="node"><title>29</title>
<path fill="none" stroke="#d89c56" stroke-width="2" d="M1104.5,-617C1104.5,-617 1059.5,-617 1059.5,-617 1053.5,-617 1047.5,-611 1047.5,-605 1047.5,-605 1047.5,-593 1047.5,-593 1047.5,-587 1053.5,-581 1059.5,-581 1059.5,-581 1104.5,-581 1104.5,-581 1110.5,-581 1116.5,-587 1116.5,-593 1116.5,-593 1116.5,-605 1116.5,-605 1116.5,-611 1110.5,-617 1104.5,-617"/>
<text text-anchor="middle" x="1082" y="-596.5" font-family="sans" font-size="10.00">bam_index</text>
</g>
<!-- 32 -->
<g id="node33" class="node"><title>32</title>
<path fill="none" stroke="#56d8c1" stroke-width="2" d="M1041,-545C1041,-545 997,-545 997,-545 991,-545 985,-539 985,-533 985,-533 985,-521 985,-521 985,-515 991,-509 997,-509 997,-509 1041,-509 1041,-509 1047,-509 1053,-515 1053,-521 1053,-521 1053,-533 1053,-533 1053,-539 1047,-545 1041,-545"/>
<text text-anchor="middle" x="1019" y="-524.5" font-family="sans" font-size="10.00">bam_stats</text>
</g>
<!-- 29&#45;&gt;32 -->
<g id="edge46" class="edge"><title>29&#45;&gt;32</title>
<path fill="none" stroke="grey" stroke-width="2" d="M1066.43,-580.697C1058.8,-572.22 1049.48,-561.864 1041.12,-552.583"/>
<polygon fill="grey" stroke="grey" stroke-width="2" points="1043.69,-550.196 1034.39,-545.104 1038.48,-554.879 1043.69,-550.196"/>
</g>
<!-- 30&#45;&gt;9 -->
<g id="edge15" class="edge"><title>30&#45;&gt;9</title>
<path fill="none" stroke="grey" stroke-width="2" d="M1117.49,-652.929C1120.06,-642.598 1123.12,-629.12 1125,-617 1136.37,-543.578 1141.66,-456.203 1143.79,-411.345"/>
<polygon fill="grey" stroke="grey" stroke-width="2" points="1147.29,-411.296 1144.25,-401.148 1140.3,-410.979 1147.29,-411.296"/>
</g>
<!-- 30&#45;&gt;21 -->
<g id="edge28" class="edge"><title>30&#45;&gt;21</title>
<path fill="none" stroke="grey" stroke-width="2" d="M1122.41,-652.817C1148.64,-604.916 1222.8,-469.519 1255.35,-410.079"/>
<polygon fill="grey" stroke="grey" stroke-width="2" points="1258.47,-411.668 1260.2,-401.216 1252.33,-408.306 1258.47,-411.668"/>
</g>
<!-- 30&#45;&gt;29 -->
<g id="edge42" class="edge"><title>30&#45;&gt;29</title>
<path fill="none" stroke="grey" stroke-width="2" d="M1105.34,-652.697C1101.81,-644.728 1097.54,-635.1 1093.63,-626.264"/>
<polygon fill="grey" stroke="grey" stroke-width="2" points="1096.82,-624.831 1089.57,-617.104 1090.42,-627.665 1096.82,-624.831"/>
</g>
<!-- 30&#45;&gt;32 -->
<g id="edge45" class="edge"><title>30&#45;&gt;32</title>
<path fill="none" stroke="grey" stroke-width="2" d="M1078.22,-652.943C1063.69,-644.13 1047.92,-632.041 1038,-617 1025.93,-598.697 1021.36,-574.086 1019.71,-555.384"/>
<polygon fill="grey" stroke="grey" stroke-width="2" points="1023.19,-554.897 1019.04,-545.147 1016.2,-555.355 1023.19,-554.897"/>
</g>
<!-- 31&#45;&gt;33 -->
<g id="edge49" class="edge"><title>31&#45;&gt;33</title>
<path fill="none" stroke="grey" stroke-width="2" d="M958.045,-215.697C956.282,-207.983 954.163,-198.712 952.197,-190.112"/>
<polygon fill="grey" stroke="grey" stroke-width="2" points="955.55,-189.073 949.91,-180.104 948.726,-190.633 955.55,-189.073"/>
</g>
<!-- 32&#45;&gt;35 -->
<g id="edge51" class="edge"><title>32&#45;&gt;35</title>
<path fill="none" stroke="grey" stroke-width="2" d="M984.777,-516.34C938.505,-503.28 856.285,-480.072 808.421,-466.562"/>
<polygon fill="grey" stroke="grey" stroke-width="2" points="809.329,-463.182 798.754,-463.834 807.428,-469.919 809.329,-463.182"/>
</g>
<!-- 33&#45;&gt;22 -->
<g id="edge30" class="edge"><title>33&#45;&gt;22</title>
<path fill="none" stroke="grey" stroke-width="2" d="M929.191,-143.697C920.874,-135.135 910.695,-124.656 901.61,-115.304"/>
<polygon fill="grey" stroke="grey" stroke-width="2" points="904.094,-112.838 894.616,-108.104 899.073,-117.716 904.094,-112.838"/>
</g>
<!-- 34&#45;&gt;17 -->
<g id="edge23" class="edge"><title>34&#45;&gt;17</title>
<path fill="none" stroke="grey" stroke-width="2" d="M696,-724.689C696,-716.907 696,-707.842 696,-699.447"/>
<polygon fill="grey" stroke="grey" stroke-width="2" points="699.5,-699.319 696,-689.319 692.5,-699.32 699.5,-699.319"/>
</g>
<!-- 35&#45;&gt;1 -->
<g id="edge3" class="edge"><title>35&#45;&gt;1</title>
<path fill="none" stroke="grey" stroke-width="2" d="M743.475,-443.766C714.949,-433.16 669.532,-416.275 633.187,-402.762"/>
<polygon fill="grey" stroke="grey" stroke-width="2" points="634.272,-399.431 623.679,-399.227 631.832,-405.992 634.272,-399.431"/>
</g>
<!-- 35&#45;&gt;3 -->
<g id="edge4" class="edge"><title>35&#45;&gt;3</title>
<path fill="none" stroke="grey" stroke-width="2" d="M798.629,-452.233C880.564,-446.812 1129.26,-429.07 1334,-401 1342.87,-399.784 1352.13,-398.357 1361.32,-396.837"/>
<polygon fill="grey" stroke="grey" stroke-width="2" points="1361.98,-400.276 1371.26,-395.158 1360.82,-393.373 1361.98,-400.276"/>
</g>
<!-- 35&#45;&gt;9 -->
<g id="edge16" class="edge"><title>35&#45;&gt;9</title>
<path fill="none" stroke="grey" stroke-width="2" d="M798.604,-450.475C851.452,-443.472 970.67,-426.447 1080.72,-400.904"/>
<polygon fill="grey" stroke="grey" stroke-width="2" points="1081.73,-404.263 1090.66,-398.568 1080.12,-397.449 1081.73,-404.263"/>
</g>
<!-- 35&#45;&gt;10 -->
<g id="edge18" class="edge"><title>35&#45;&gt;10</title>
<path fill="none" stroke="grey" stroke-width="2" d="M743.304,-451.721C682.845,-446.389 534.507,-431.365 401.959,-401.015"/>
<polygon fill="grey" stroke="grey" stroke-width="2" points="402.572,-397.564 392.039,-398.707 400.986,-404.382 402.572,-397.564"/>
</g>
<!-- 35&#45;&gt;14 -->
<g id="edge21" class="edge"><title>35&#45;&gt;14</title>
<path fill="none" stroke="grey" stroke-width="2" d="M771.047,-436.979C771.206,-379.116 771.728,-189.65 771.924,-118.41"/>
<polygon fill="grey" stroke="grey" stroke-width="2" points="775.424,-118.417 771.952,-108.407 768.424,-118.397 775.424,-118.417"/>
</g>
<!-- 35&#45;&gt;18 -->
<g id="edge24" class="edge"><title>35&#45;&gt;18</title>
<path fill="none" stroke="grey" stroke-width="2" d="M798.88,-445.399C833.613,-434.683 894.069,-416.032 940.729,-401.637"/>
<polygon fill="grey" stroke="grey" stroke-width="2" points="941.938,-404.927 950.462,-398.634 939.874,-398.238 941.938,-404.927"/>
</g>
<!-- 35&#45;&gt;21 -->
<g id="edge29" class="edge"><title>35&#45;&gt;21</title>
<path fill="none" stroke="grey" stroke-width="2" d="M798.639,-452.375C866.679,-448.012 1047.72,-434.189 1206.9,-401.039"/>
<polygon fill="grey" stroke="grey" stroke-width="2" points="1207.81,-404.425 1216.87,-398.932 1206.36,-397.576 1207.81,-404.425"/>
</g>
<!-- 35&#45;&gt;26 -->
<g id="edge38" class="edge"><title>35&#45;&gt;26</title>
<path fill="none" stroke="grey" stroke-width="2" d="M743.166,-449.2C698.145,-441.209 606.447,-424 519.815,-401.082"/>
<polygon fill="grey" stroke="grey" stroke-width="2" points="520.661,-397.685 510.097,-398.481 518.852,-404.447 520.661,-397.685"/>
</g>
<!-- 35&#45;&gt;40 -->
<g id="edge59" class="edge"><title>35&#45;&gt;40</title>
<path fill="none" stroke="grey" stroke-width="2" d="M751.567,-436.819C741.811,-428.193 729.777,-417.553 718.878,-407.916"/>
<polygon fill="grey" stroke="grey" stroke-width="2" points="721,-405.121 711.19,-401.12 716.364,-410.365 721,-405.121"/>
</g>
<!-- 42 -->
<g id="node43" class="node"><title>42</title>
<path fill="none" stroke="#d87556" stroke-width="2" d="M909,-398.5C909,-398.5 805,-398.5 805,-398.5 799,-398.5 793,-392.5 793,-386.5 793,-386.5 793,-374.5 793,-374.5 793,-368.5 799,-362.5 805,-362.5 805,-362.5 909,-362.5 909,-362.5 915,-362.5 921,-368.5 921,-374.5 921,-374.5 921,-386.5 921,-386.5 921,-392.5 915,-398.5 909,-398.5"/>
<text text-anchor="middle" x="857" y="-383.5" font-family="sans" font-size="10.00">portcullis_prep</text>
<text text-anchor="middle" x="857" y="-372.5" font-family="sans" font-size="10.00">aln_method: star&#45;Ath&#45;0</text>
</g>
<!-- 35&#45;&gt;42 -->
<g id="edge61" class="edge"><title>35&#45;&gt;42</title>
<path fill="none" stroke="grey" stroke-width="2" d="M791.381,-436.819C802.627,-427.338 816.758,-415.425 829.024,-405.085"/>
<polygon fill="grey" stroke="grey" stroke-width="2" points="831.376,-407.68 836.765,-398.558 826.864,-402.328 831.376,-407.68"/>
</g>
<!-- 36&#45;&gt;20 -->
<g id="edge26" class="edge"><title>36&#45;&gt;20</title>
<path fill="none" stroke="grey" stroke-width="2" d="M561,-580.697C561,-572.983 561,-563.712 561,-555.112"/>
<polygon fill="grey" stroke="grey" stroke-width="2" points="564.5,-555.104 561,-545.104 557.5,-555.104 564.5,-555.104"/>
</g>
<!-- 37&#45;&gt;8 -->
<g id="edge12" class="edge"><title>37&#45;&gt;8</title>
<path fill="none" stroke="grey" stroke-width="2" d="M531.458,-287.876C565.265,-275.677 610.048,-259.519 641.171,-248.289"/>
<polygon fill="grey" stroke="grey" stroke-width="2" points="642.546,-251.513 650.765,-244.827 640.171,-244.929 642.546,-251.513"/>
</g>
<!-- 38&#45;&gt;8 -->
<g id="edge13" class="edge"><title>38&#45;&gt;8</title>
<path fill="none" stroke="grey" stroke-width="2" d="M1216.94,-289.284C1213.59,-288.835 1210.27,-288.406 1207,-288 1029.42,-265.949 983.842,-271.784 806,-252 775.452,-248.602 740.909,-243.967 715.414,-240.395"/>
<polygon fill="grey" stroke="grey" stroke-width="2" points="715.816,-236.917 705.425,-238.986 714.837,-243.849 715.816,-236.917"/>
</g>
<!-- 39&#45;&gt;0 -->
<g id="edge1" class="edge"><title>39&#45;&gt;0</title>
<path fill="none" stroke="grey" stroke-width="2" d="M1428.94,-290.496C1397.55,-279.671 1354.44,-264.807 1320.74,-253.187"/>
<polygon fill="grey" stroke="grey" stroke-width="2" points="1321.65,-249.798 1311.06,-249.847 1319.37,-256.416 1321.65,-249.798"/>
</g>
<!-- 40&#45;&gt;25 -->
<g id="edge36" class="edge"><title>40&#45;&gt;25</title>
<path fill="none" stroke="grey" stroke-width="2" d="M685.448,-359.689C684.037,-351.82 682.391,-342.64 680.871,-334.168"/>
<polygon fill="grey" stroke="grey" stroke-width="2" points="684.316,-333.545 679.106,-324.319 677.426,-334.78 684.316,-333.545"/>
</g>
<!-- 41&#45;&gt;7 -->
<g id="edge8" class="edge"><title>41&#45;&gt;7</title>
<path fill="none" stroke="grey" stroke-width="2" d="M479,-724.689C479,-716.907 479,-707.842 479,-699.447"/>
<polygon fill="grey" stroke="grey" stroke-width="2" points="482.5,-699.319 479,-689.319 475.5,-699.32 482.5,-699.319"/>
</g>
<!-- 42&#45;&gt;4 -->
<g id="edge5" class="edge"><title>42&#45;&gt;4</title>
<path fill="none" stroke="grey" stroke-width="2" d="M857,-362.319C857,-353.922 857,-343.616 857,-334.186"/>
<polygon fill="grey" stroke="grey" stroke-width="2" points="860.5,-334.058 857,-324.058 853.5,-334.058 860.5,-334.058"/>
</g>
</g>
</svg>
