<?xml version="1.0" encoding="UTF-8" standalone="no"?>
<!DOCTYPE svg PUBLIC "-//W3C//DTD SVG 1.1//EN"
 "http://www.w3.org/Graphics/SVG/1.1/DTD/svg11.dtd">
<!-- Generated by graphviz version 2.38.0 (20140413.2041)
 -->
<!-- Title: snakemake_dag Pages: 1 -->
<svg width="1336pt" height="620pt"
 viewBox="0.00 0.00 1335.52 620.00" xmlns="http://www.w3.org/2000/svg" xmlns:xlink="http://www.w3.org/1999/xlink">
<g id="graph0" class="graph" transform="scale(1 1) rotate(0) translate(4 616)">
<title>snakemake_dag</title>
<polygon fill="white" stroke="none" points="-4,4 -4,-616 1331.52,-616 1331.52,4 -4,4"/>
<!-- 0 -->
<g id="node1" class="node"><title>0</title>
<path fill="none" stroke="#d8bc56" stroke-width="2" d="M512.02,-180C512.02,-180 455.02,-180 455.02,-180 449.02,-180 443.02,-174 443.02,-168 443.02,-168 443.02,-156 443.02,-156 443.02,-150 449.02,-144 455.02,-144 455.02,-144 512.02,-144 512.02,-144 518.02,-144 524.02,-150 524.02,-156 524.02,-156 524.02,-168 524.02,-168 524.02,-174 518.02,-180 512.02,-180"/>
<text text-anchor="middle" x="483.52" y="-159.5" font-family="sans" font-size="10.00">mikado_stats</text>
</g>
<!-- 21 -->
<g id="node22" class="node"><title>21</title>
<path fill="none" stroke="#d85656" stroke-width="2" d="M530.02,-108C530.02,-108 437.02,-108 437.02,-108 431.02,-108 425.02,-102 425.02,-96 425.02,-96 425.02,-84 425.02,-84 425.02,-78 431.02,-72 437.02,-72 437.02,-72 530.02,-72 530.02,-72 536.02,-72 542.02,-78 542.02,-84 542.02,-84 542.02,-96 542.02,-96 542.02,-102 536.02,-108 530.02,-108"/>
<text text-anchor="middle" x="483.52" y="-87.5" font-family="sans" font-size="10.00">mikado_collect_stats</text>
</g>
<!-- 0&#45;&gt;21 -->
<g id="edge30" class="edge"><title>0&#45;&gt;21</title>
<path fill="none" stroke="grey" stroke-width="2" d="M483.52,-143.697C483.52,-135.983 483.52,-126.712 483.52,-118.112"/>
<polygon fill="grey" stroke="grey" stroke-width="2" points="487.02,-118.104 483.52,-108.104 480.02,-118.104 487.02,-118.104"/>
</g>
<!-- 1 -->
<g id="node2" class="node"><title>1</title>
<path fill="none" stroke="#56c1d8" stroke-width="2" d="M791.52,-540C791.52,-540 743.52,-540 743.52,-540 737.52,-540 731.52,-534 731.52,-528 731.52,-528 731.52,-516 731.52,-516 731.52,-510 737.52,-504 743.52,-504 743.52,-504 791.52,-504 791.52,-504 797.52,-504 803.52,-510 803.52,-516 803.52,-516 803.52,-528 803.52,-528 803.52,-534 797.52,-540 791.52,-540"/>
<text text-anchor="middle" x="767.52" y="-519.5" font-family="sans" font-size="10.00">make_blast</text>
</g>
<!-- 5 -->
<g id="node6" class="node"><title>5</title>
<path fill="none" stroke="#d87556" stroke-width="2" d="M1009.02,-468C1009.02,-468 950.02,-468 950.02,-468 944.02,-468 938.02,-462 938.02,-456 938.02,-456 938.02,-444 938.02,-444 938.02,-438 944.02,-432 950.02,-432 950.02,-432 1009.02,-432 1009.02,-432 1015.02,-432 1021.02,-438 1021.02,-444 1021.02,-444 1021.02,-456 1021.02,-456 1021.02,-462 1015.02,-468 1009.02,-468"/>
<text text-anchor="middle" x="979.52" y="-453" font-family="sans" font-size="10.00">blastx</text>
<text text-anchor="middle" x="979.52" y="-442" font-family="sans" font-size="10.00">chunk_id: 002</text>
</g>
<!-- 1&#45;&gt;5 -->
<g id="edge7" class="edge"><title>1&#45;&gt;5</title>
<path fill="none" stroke="grey" stroke-width="2" d="M803.591,-509.331C834.393,-499.337 880.126,-484.43 928.157,-468.44"/>
<polygon fill="grey" stroke="grey" stroke-width="2" points="929.41,-471.711 937.79,-465.228 927.196,-465.071 929.41,-471.711"/>
</g>
<!-- 9 -->
<g id="node10" class="node"><title>9</title>
<path fill="none" stroke="#d87556" stroke-width="2" d="M1110.02,-468C1110.02,-468 1051.02,-468 1051.02,-468 1045.02,-468 1039.02,-462 1039.02,-456 1039.02,-456 1039.02,-444 1039.02,-444 1039.02,-438 1045.02,-432 1051.02,-432 1051.02,-432 1110.02,-432 1110.02,-432 1116.02,-432 1122.02,-438 1122.02,-444 1122.02,-444 1122.02,-456 1122.02,-456 1122.02,-462 1116.02,-468 1110.02,-468"/>
<text text-anchor="middle" x="1080.52" y="-453" font-family="sans" font-size="10.00">blastx</text>
<text text-anchor="middle" x="1080.52" y="-442" font-family="sans" font-size="10.00">chunk_id: 006</text>
</g>
<!-- 1&#45;&gt;9 -->
<g id="edge10" class="edge"><title>1&#45;&gt;9</title>
<path fill="none" stroke="grey" stroke-width="2" d="M803.593,-515.247C852.696,-507.087 943.414,-490.842 1029.03,-468.24"/>
<polygon fill="grey" stroke="grey" stroke-width="2" points="1030.15,-471.564 1038.9,-465.598 1028.34,-464.802 1030.15,-471.564"/>
</g>
<!-- 10 -->
<g id="node11" class="node"><title>10</title>
<path fill="none" stroke="#d87556" stroke-width="2" d="M1211.02,-468C1211.02,-468 1152.02,-468 1152.02,-468 1146.02,-468 1140.02,-462 1140.02,-456 1140.02,-456 1140.02,-444 1140.02,-444 1140.02,-438 1146.02,-432 1152.02,-432 1152.02,-432 1211.02,-432 1211.02,-432 1217.02,-432 1223.02,-438 1223.02,-444 1223.02,-444 1223.02,-456 1223.02,-456 1223.02,-462 1217.02,-468 1211.02,-468"/>
<text text-anchor="middle" x="1181.52" y="-453" font-family="sans" font-size="10.00">blastx</text>
<text text-anchor="middle" x="1181.52" y="-442" font-family="sans" font-size="10.00">chunk_id: 001</text>
</g>
<!-- 1&#45;&gt;10 -->
<g id="edge12" class="edge"><title>1&#45;&gt;10</title>
<path fill="none" stroke="grey" stroke-width="2" d="M803.584,-517.957C867.695,-512.073 1005.71,-497.272 1129.89,-468.168"/>
<polygon fill="grey" stroke="grey" stroke-width="2" points="1131.03,-471.494 1139.95,-465.771 1129.41,-464.685 1131.03,-471.494"/>
</g>
<!-- 15 -->
<g id="node16" class="node"><title>15</title>
<path fill="none" stroke="#d87556" stroke-width="2" d="M302.02,-468C302.02,-468 243.02,-468 243.02,-468 237.02,-468 231.02,-462 231.02,-456 231.02,-456 231.02,-444 231.02,-444 231.02,-438 237.02,-432 243.02,-432 243.02,-432 302.02,-432 302.02,-432 308.02,-432 314.02,-438 314.02,-444 314.02,-444 314.02,-456 314.02,-456 314.02,-462 308.02,-468 302.02,-468"/>
<text text-anchor="middle" x="272.52" y="-453" font-family="sans" font-size="10.00">blastx</text>
<text text-anchor="middle" x="272.52" y="-442" font-family="sans" font-size="10.00">chunk_id: 004</text>
</g>
<!-- 1&#45;&gt;15 -->
<g id="edge18" class="edge"><title>1&#45;&gt;15</title>
<path fill="none" stroke="grey" stroke-width="2" d="M731.404,-508.672C725.163,-506.878 718.696,-505.226 712.52,-504 544.947,-470.744 494.63,-503.024 323.871,-468"/>
<polygon fill="grey" stroke="grey" stroke-width="2" points="324.561,-464.568 314.055,-465.94 323.123,-471.419 324.561,-464.568"/>
</g>
<!-- 16 -->
<g id="node17" class="node"><title>16</title>
<path fill="none" stroke="#d87556" stroke-width="2" d="M403.02,-468C403.02,-468 344.02,-468 344.02,-468 338.02,-468 332.02,-462 332.02,-456 332.02,-456 332.02,-444 332.02,-444 332.02,-438 338.02,-432 344.02,-432 344.02,-432 403.02,-432 403.02,-432 409.02,-432 415.02,-438 415.02,-444 415.02,-444 415.02,-456 415.02,-456 415.02,-462 409.02,-468 403.02,-468"/>
<text text-anchor="middle" x="373.52" y="-453" font-family="sans" font-size="10.00">blastx</text>
<text text-anchor="middle" x="373.52" y="-442" font-family="sans" font-size="10.00">chunk_id: 003</text>
</g>
<!-- 1&#45;&gt;16 -->
<g id="edge20" class="edge"><title>1&#45;&gt;16</title>
<path fill="none" stroke="grey" stroke-width="2" d="M731.369,-508.839C725.132,-507.026 718.675,-505.324 712.52,-504 589.189,-477.474 551.572,-495.988 425.143,-468.112"/>
<polygon fill="grey" stroke="grey" stroke-width="2" points="425.604,-464.628 415.078,-465.838 424.06,-471.456 425.604,-464.628"/>
</g>
<!-- 19 -->
<g id="node20" class="node"><title>19</title>
<path fill="none" stroke="#d87556" stroke-width="2" d="M504.02,-468C504.02,-468 445.02,-468 445.02,-468 439.02,-468 433.02,-462 433.02,-456 433.02,-456 433.02,-444 433.02,-444 433.02,-438 439.02,-432 445.02,-432 445.02,-432 504.02,-432 504.02,-432 510.02,-432 516.02,-438 516.02,-444 516.02,-444 516.02,-456 516.02,-456 516.02,-462 510.02,-468 504.02,-468"/>
<text text-anchor="middle" x="474.52" y="-453" font-family="sans" font-size="10.00">blastx</text>
<text text-anchor="middle" x="474.52" y="-442" font-family="sans" font-size="10.00">chunk_id: 005</text>
</g>
<!-- 1&#45;&gt;19 -->
<g id="edge26" class="edge"><title>1&#45;&gt;19</title>
<path fill="none" stroke="grey" stroke-width="2" d="M731.288,-509.186C725.061,-507.332 718.628,-505.527 712.52,-504 633.456,-484.234 609.188,-489.023 526.019,-467.925"/>
<polygon fill="grey" stroke="grey" stroke-width="2" points="526.692,-464.484 516.134,-465.368 524.938,-471.261 526.692,-464.484"/>
</g>
<!-- 20 -->
<g id="node21" class="node"><title>20</title>
<path fill="none" stroke="#d87556" stroke-width="2" d="M605.02,-468C605.02,-468 546.02,-468 546.02,-468 540.02,-468 534.02,-462 534.02,-456 534.02,-456 534.02,-444 534.02,-444 534.02,-438 540.02,-432 546.02,-432 546.02,-432 605.02,-432 605.02,-432 611.02,-432 617.02,-438 617.02,-444 617.02,-444 617.02,-456 617.02,-456 617.02,-462 611.02,-468 605.02,-468"/>
<text text-anchor="middle" x="575.52" y="-453" font-family="sans" font-size="10.00">blastx</text>
<text text-anchor="middle" x="575.52" y="-442" font-family="sans" font-size="10.00">chunk_id: 007</text>
</g>
<!-- 1&#45;&gt;20 -->
<g id="edge28" class="edge"><title>1&#45;&gt;20</title>
<path fill="none" stroke="grey" stroke-width="2" d="M731.406,-507.834C701.844,-497.056 659.668,-481.679 626.638,-469.637"/>
<polygon fill="grey" stroke="grey" stroke-width="2" points="627.74,-466.313 617.146,-466.176 625.342,-472.89 627.74,-466.313"/>
</g>
<!-- 22 -->
<g id="node23" class="node"><title>22</title>
<path fill="none" stroke="#d87556" stroke-width="2" d="M706.02,-468C706.02,-468 647.02,-468 647.02,-468 641.02,-468 635.02,-462 635.02,-456 635.02,-456 635.02,-444 635.02,-444 635.02,-438 641.02,-432 647.02,-432 647.02,-432 706.02,-432 706.02,-432 712.02,-432 718.02,-438 718.02,-444 718.02,-444 718.02,-456 718.02,-456 718.02,-462 712.02,-468 706.02,-468"/>
<text text-anchor="middle" x="676.52" y="-453" font-family="sans" font-size="10.00">blastx</text>
<text text-anchor="middle" x="676.52" y="-442" font-family="sans" font-size="10.00">chunk_id: 010</text>
</g>
<!-- 1&#45;&gt;22 -->
<g id="edge35" class="edge"><title>1&#45;&gt;22</title>
<path fill="none" stroke="grey" stroke-width="2" d="M745.025,-503.697C733.564,-494.881 719.461,-484.032 707.036,-474.474"/>
<polygon fill="grey" stroke="grey" stroke-width="2" points="708.815,-471.427 698.755,-468.104 704.547,-476.976 708.815,-471.427"/>
</g>
<!-- 24 -->
<g id="node25" class="node"><title>24</title>
<path fill="none" stroke="#d87556" stroke-width="2" d="M807.02,-468C807.02,-468 748.02,-468 748.02,-468 742.02,-468 736.02,-462 736.02,-456 736.02,-456 736.02,-444 736.02,-444 736.02,-438 742.02,-432 748.02,-432 748.02,-432 807.02,-432 807.02,-432 813.02,-432 819.02,-438 819.02,-444 819.02,-444 819.02,-456 819.02,-456 819.02,-462 813.02,-468 807.02,-468"/>
<text text-anchor="middle" x="777.52" y="-453" font-family="sans" font-size="10.00">blastx</text>
<text text-anchor="middle" x="777.52" y="-442" font-family="sans" font-size="10.00">chunk_id: 009</text>
</g>
<!-- 1&#45;&gt;24 -->
<g id="edge38" class="edge"><title>1&#45;&gt;24</title>
<path fill="none" stroke="grey" stroke-width="2" d="M769.991,-503.697C771.093,-495.983 772.418,-486.712 773.646,-478.112"/>
<polygon fill="grey" stroke="grey" stroke-width="2" points="777.127,-478.499 775.076,-468.104 770.197,-477.509 777.127,-478.499"/>
</g>
<!-- 28 -->
<g id="node29" class="node"><title>28</title>
<path fill="none" stroke="#d87556" stroke-width="2" d="M908.02,-468C908.02,-468 849.02,-468 849.02,-468 843.02,-468 837.02,-462 837.02,-456 837.02,-456 837.02,-444 837.02,-444 837.02,-438 843.02,-432 849.02,-432 849.02,-432 908.02,-432 908.02,-432 914.02,-432 920.02,-438 920.02,-444 920.02,-444 920.02,-456 920.02,-456 920.02,-462 914.02,-468 908.02,-468"/>
<text text-anchor="middle" x="878.52" y="-453" font-family="sans" font-size="10.00">blastx</text>
<text text-anchor="middle" x="878.52" y="-442" font-family="sans" font-size="10.00">chunk_id: 008</text>
</g>
<!-- 1&#45;&gt;28 -->
<g id="edge48" class="edge"><title>1&#45;&gt;28</title>
<path fill="none" stroke="grey" stroke-width="2" d="M794.673,-503.876C809.052,-494.808 826.901,-483.552 842.43,-473.759"/>
<polygon fill="grey" stroke="grey" stroke-width="2" points="844.67,-476.484 851.261,-468.19 840.936,-470.564 844.67,-476.484"/>
</g>
<!-- 2 -->
<g id="node3" class="node"><title>2</title>
<path fill="none" stroke="#569ad8" stroke-width="2" d="M162.02,-468C162.02,-468 79.0195,-468 79.0195,-468 73.0195,-468 67.0195,-462 67.0195,-456 67.0195,-456 67.0195,-444 67.0195,-444 67.0195,-438 73.0195,-432 79.0195,-432 79.0195,-432 162.02,-432 162.02,-432 168.02,-432 174.02,-438 174.02,-444 174.02,-444 174.02,-456 174.02,-456 174.02,-462 168.02,-468 162.02,-468"/>
<text text-anchor="middle" x="120.52" y="-447.5" font-family="sans" font-size="10.00">transdecoder_pred</text>
</g>
<!-- 25 -->
<g id="node26" class="node"><title>25</title>
<path fill="none" stroke="#56d88a" stroke-width="2" d="M466.52,-324C466.52,-324 394.52,-324 394.52,-324 388.52,-324 382.52,-318 382.52,-312 382.52,-312 382.52,-300 382.52,-300 382.52,-294 388.52,-288 394.52,-288 394.52,-288 466.52,-288 466.52,-288 472.52,-288 478.52,-294 478.52,-300 478.52,-300 478.52,-312 478.52,-312 478.52,-318 472.52,-324 466.52,-324"/>
<text text-anchor="middle" x="430.52" y="-303.5" font-family="sans" font-size="10.00">mikado_serialise</text>
</g>
<!-- 2&#45;&gt;25 -->
<g id="edge40" class="edge"><title>2&#45;&gt;25</title>
<path fill="none" stroke="grey" stroke-width="2" d="M128.755,-431.987C139.553,-411.57 160.471,-377.859 188.52,-360 244.3,-324.484 320.368,-312.511 372.236,-308.613"/>
<polygon fill="grey" stroke="grey" stroke-width="2" points="372.531,-312.101 382.273,-307.937 372.061,-305.117 372.531,-312.101"/>
</g>
<!-- 3 -->
<g id="node4" class="node"><title>3</title>
<path fill="none" stroke="#d8bc56" stroke-width="2" d="M619.02,-180C619.02,-180 562.02,-180 562.02,-180 556.02,-180 550.02,-174 550.02,-168 550.02,-168 550.02,-156 550.02,-156 550.02,-150 556.02,-144 562.02,-144 562.02,-144 619.02,-144 619.02,-144 625.02,-144 631.02,-150 631.02,-156 631.02,-156 631.02,-168 631.02,-168 631.02,-174 625.02,-180 619.02,-180"/>
<text text-anchor="middle" x="590.52" y="-159.5" font-family="sans" font-size="10.00">mikado_stats</text>
</g>
<!-- 3&#45;&gt;21 -->
<g id="edge32" class="edge"><title>3&#45;&gt;21</title>
<path fill="none" stroke="grey" stroke-width="2" d="M564.344,-143.876C550.484,-134.808 533.278,-123.552 518.309,-113.759"/>
<polygon fill="grey" stroke="grey" stroke-width="2" points="520.08,-110.735 509.795,-108.19 516.248,-116.593 520.08,-110.735"/>
</g>
<!-- 4 -->
<g id="node5" class="node"><title>4</title>
<path fill="none" stroke="#ced856" stroke-width="2" d="M737.52,-252C737.52,-252 679.52,-252 679.52,-252 673.52,-252 667.52,-246 667.52,-240 667.52,-240 667.52,-228 667.52,-228 667.52,-222 673.52,-216 679.52,-216 679.52,-216 737.52,-216 737.52,-216 743.52,-216 749.52,-222 749.52,-228 749.52,-228 749.52,-240 749.52,-240 749.52,-246 743.52,-252 737.52,-252"/>
<text text-anchor="middle" x="708.52" y="-237" font-family="sans" font-size="10.00">mikado_pick</text>
<text text-anchor="middle" x="708.52" y="-226" font-family="sans" font-size="10.00">mode: nosplit</text>
</g>
<!-- 8 -->
<g id="node9" class="node"><title>8</title>
<path fill="none" stroke="#d8bc56" stroke-width="2" d="M727.02,-180C727.02,-180 670.02,-180 670.02,-180 664.02,-180 658.02,-174 658.02,-168 658.02,-168 658.02,-156 658.02,-156 658.02,-150 664.02,-144 670.02,-144 670.02,-144 727.02,-144 727.02,-144 733.02,-144 739.02,-150 739.02,-156 739.02,-156 739.02,-168 739.02,-168 739.02,-174 733.02,-180 727.02,-180"/>
<text text-anchor="middle" x="698.52" y="-159.5" font-family="sans" font-size="10.00">mikado_stats</text>
</g>
<!-- 4&#45;&gt;8 -->
<g id="edge9" class="edge"><title>4&#45;&gt;8</title>
<path fill="none" stroke="grey" stroke-width="2" d="M706.048,-215.697C704.946,-207.983 703.621,-198.712 702.393,-190.112"/>
<polygon fill="grey" stroke="grey" stroke-width="2" points="705.842,-189.509 700.963,-180.104 698.912,-190.499 705.842,-189.509"/>
</g>
<!-- 29 -->
<g id="node30" class="node"><title>29</title>
<path fill="none" stroke="#88d856" stroke-width="2" d="M692.52,-396C692.52,-396 660.52,-396 660.52,-396 654.52,-396 648.52,-390 648.52,-384 648.52,-384 648.52,-372 648.52,-372 648.52,-366 654.52,-360 660.52,-360 660.52,-360 692.52,-360 692.52,-360 698.52,-360 704.52,-366 704.52,-372 704.52,-372 704.52,-384 704.52,-384 704.52,-390 698.52,-396 692.52,-396"/>
<text text-anchor="middle" x="676.52" y="-375.5" font-family="sans" font-size="10.00">blast_all</text>
</g>
<!-- 5&#45;&gt;29 -->
<g id="edge52" class="edge"><title>5&#45;&gt;29</title>
<path fill="none" stroke="grey" stroke-width="2" d="M937.895,-434.426C935.072,-433.568 932.261,-432.75 929.52,-432 854.355,-411.431 764.753,-394.38 714.884,-385.539"/>
<polygon fill="grey" stroke="grey" stroke-width="2" points="715.319,-382.062 704.865,-383.779 714.108,-388.957 715.319,-382.062"/>
</g>
<!-- 6 -->
<g id="node7" class="node"><title>6</title>
<path fill="none" stroke="#d89c56" stroke-width="2" d="M262.02,-612C262.02,-612 191.02,-612 191.02,-612 185.02,-612 179.02,-606 179.02,-600 179.02,-600 179.02,-588 179.02,-588 179.02,-582 185.02,-576 191.02,-576 191.02,-576 262.02,-576 262.02,-576 268.02,-576 274.02,-582 274.02,-588 274.02,-588 274.02,-600 274.02,-600 274.02,-606 268.02,-612 262.02,-612"/>
<text text-anchor="middle" x="226.52" y="-591.5" font-family="sans" font-size="10.00">mikado_prepare</text>
</g>
<!-- 6&#45;&gt;2 -->
<g id="edge3" class="edge"><title>6&#45;&gt;2</title>
<path fill="none" stroke="grey" stroke-width="2" d="M216.658,-575.667C205.915,-557.276 187.808,-527.665 169.52,-504 162.128,-494.435 153.349,-484.552 145.278,-475.95"/>
<polygon fill="grey" stroke="grey" stroke-width="2" points="147.561,-473.273 138.125,-468.456 142.497,-478.106 147.561,-473.273"/>
</g>
<!-- 6&#45;&gt;4 -->
<g id="edge6" class="edge"><title>6&#45;&gt;4</title>
<path fill="none" stroke="grey" stroke-width="2" d="M274.079,-591.896C456.916,-587.447 1108.73,-569.64 1196.52,-540 1263.21,-517.483 1327.52,-521.388 1327.52,-451 1327.52,-451 1327.52,-451 1327.52,-377 1327.52,-322.609 1292.34,-311.977 1243.52,-288 1159.25,-246.613 877.03,-237.543 760.022,-235.557"/>
<polygon fill="grey" stroke="grey" stroke-width="2" points="759.943,-232.055 749.889,-235.395 759.832,-239.054 759.943,-232.055"/>
</g>
<!-- 11 -->
<g id="node12" class="node"><title>11</title>
<path fill="none" stroke="#567bd8" stroke-width="2" d="M691.52,-540C691.52,-540 661.52,-540 661.52,-540 655.52,-540 649.52,-534 649.52,-528 649.52,-528 649.52,-516 649.52,-516 649.52,-510 655.52,-504 661.52,-504 661.52,-504 691.52,-504 691.52,-504 697.52,-504 703.52,-510 703.52,-516 703.52,-516 703.52,-528 703.52,-528 703.52,-534 697.52,-540 691.52,-540"/>
<text text-anchor="middle" x="676.52" y="-519.5" font-family="sans" font-size="10.00">split_fa</text>
</g>
<!-- 6&#45;&gt;11 -->
<g id="edge14" class="edge"><title>6&#45;&gt;11</title>
<path fill="none" stroke="grey" stroke-width="2" d="M274.251,-585.575C364.306,-571.567 557.539,-541.508 639.038,-528.83"/>
<polygon fill="grey" stroke="grey" stroke-width="2" points="639.977,-532.227 649.321,-527.231 638.901,-525.31 639.977,-532.227"/>
</g>
<!-- 13 -->
<g id="node14" class="node"><title>13</title>
<path fill="none" stroke="#56d8d0" stroke-width="2" d="M148.52,-540C148.52,-540 78.5195,-540 78.5195,-540 72.5195,-540 66.5195,-534 66.5195,-528 66.5195,-528 66.5195,-516 66.5195,-516 66.5195,-510 72.5195,-504 78.5195,-504 78.5195,-504 148.52,-504 148.52,-504 154.52,-504 160.52,-510 160.52,-516 160.52,-516 160.52,-528 160.52,-528 160.52,-534 154.52,-540 148.52,-540"/>
<text text-anchor="middle" x="113.52" y="-519.5" font-family="sans" font-size="10.00">transdecoder_lo</text>
</g>
<!-- 6&#45;&gt;13 -->
<g id="edge16" class="edge"><title>6&#45;&gt;13</title>
<path fill="none" stroke="grey" stroke-width="2" d="M198.877,-575.876C184.102,-566.724 165.728,-555.342 149.817,-545.485"/>
<polygon fill="grey" stroke="grey" stroke-width="2" points="151.613,-542.481 141.269,-540.19 147.927,-548.431 151.613,-542.481"/>
</g>
<!-- 17 -->
<g id="node18" class="node"><title>17</title>
<path fill="none" stroke="#ced856" stroke-width="2" d="M637.52,-252C637.52,-252 559.52,-252 559.52,-252 553.52,-252 547.52,-246 547.52,-240 547.52,-240 547.52,-228 547.52,-228 547.52,-222 553.52,-216 559.52,-216 559.52,-216 637.52,-216 637.52,-216 643.52,-216 649.52,-222 649.52,-228 649.52,-228 649.52,-240 649.52,-240 649.52,-246 643.52,-252 637.52,-252"/>
<text text-anchor="middle" x="598.52" y="-237" font-family="sans" font-size="10.00">mikado_pick</text>
<text text-anchor="middle" x="598.52" y="-226" font-family="sans" font-size="10.00">mode: permissive</text>
</g>
<!-- 6&#45;&gt;17 -->
<g id="edge23" class="edge"><title>6&#45;&gt;17</title>
<path fill="none" stroke="grey" stroke-width="2" d="M274.203,-592.289C432.453,-589.586 939.181,-578.097 1097.52,-540 1188.97,-517.998 1289.52,-545.055 1289.52,-451 1289.52,-451 1289.52,-451 1289.52,-377 1289.52,-319.144 1247.58,-311.058 1194.52,-288 1087.81,-241.63 791.703,-270.811 659.719,-251.856"/>
<polygon fill="grey" stroke="grey" stroke-width="2" points="660.169,-248.384 649.744,-250.274 659.072,-255.297 660.169,-248.384"/>
</g>
<!-- 18 -->
<g id="node19" class="node"><title>18</title>
<path fill="none" stroke="#ced856" stroke-width="2" d="M305.52,-252C305.52,-252 253.52,-252 253.52,-252 247.52,-252 241.52,-246 241.52,-240 241.52,-240 241.52,-228 241.52,-228 241.52,-222 247.52,-216 253.52,-216 253.52,-216 305.52,-216 305.52,-216 311.52,-216 317.52,-222 317.52,-228 317.52,-228 317.52,-240 317.52,-240 317.52,-246 311.52,-252 305.52,-252"/>
<text text-anchor="middle" x="279.52" y="-237" font-family="sans" font-size="10.00">mikado_pick</text>
<text text-anchor="middle" x="279.52" y="-226" font-family="sans" font-size="10.00">mode: split</text>
</g>
<!-- 6&#45;&gt;18 -->
<g id="edge25" class="edge"><title>6&#45;&gt;18</title>
<path fill="none" stroke="grey" stroke-width="2" d="M178.679,-593.415C133.011,-591.164 65.2925,-580.496 24.5195,-540 -4.54799,-511.13 0.519529,-491.969 0.519529,-451 0.519529,-451 0.519529,-451 0.519529,-377 0.519529,-336.031 -5.28403,-316.11 24.5195,-288 53.8308,-260.354 165.913,-245.515 231.318,-239.049"/>
<polygon fill="grey" stroke="grey" stroke-width="2" points="231.774,-242.521 241.395,-238.082 231.106,-235.553 231.774,-242.521"/>
</g>
<!-- 6&#45;&gt;25 -->
<g id="edge41" class="edge"><title>6&#45;&gt;25</title>
<path fill="none" stroke="grey" stroke-width="2" d="M220.467,-575.63C210.759,-544.517 195.308,-478.218 221.52,-432 253.587,-375.456 322.523,-341.743 372.475,-323.833"/>
<polygon fill="grey" stroke="grey" stroke-width="2" points="373.896,-327.045 382.196,-320.459 371.601,-320.431 373.896,-327.045"/>
</g>
<!-- 26 -->
<g id="node27" class="node"><title>26</title>
<path fill="none" stroke="#ced856" stroke-width="2" d="M407.02,-252C407.02,-252 348.02,-252 348.02,-252 342.02,-252 336.02,-246 336.02,-240 336.02,-240 336.02,-228 336.02,-228 336.02,-222 342.02,-216 348.02,-216 348.02,-216 407.02,-216 407.02,-216 413.02,-216 419.02,-222 419.02,-228 419.02,-228 419.02,-240 419.02,-240 419.02,-246 413.02,-252 407.02,-252"/>
<text text-anchor="middle" x="377.52" y="-237" font-family="sans" font-size="10.00">mikado_pick</text>
<text text-anchor="middle" x="377.52" y="-226" font-family="sans" font-size="10.00">mode: lenient</text>
</g>
<!-- 6&#45;&gt;26 -->
<g id="edge45" class="edge"><title>6&#45;&gt;26</title>
<path fill="none" stroke="grey" stroke-width="2" d="M178.794,-590.718C140.556,-586.273 88.366,-573.877 57.5195,-540 30.2881,-510.093 38.5195,-491.447 38.5195,-451 38.5195,-451 38.5195,-451 38.5195,-377 38.5195,-361.577 231.917,-288.442 326.561,-253.575"/>
<polygon fill="grey" stroke="grey" stroke-width="2" points="327.774,-256.858 335.951,-250.122 325.358,-250.289 327.774,-256.858"/>
</g>
<!-- 27 -->
<g id="node28" class="node"><title>27</title>
<path fill="none" stroke="#ced856" stroke-width="2" d="M518.02,-252C518.02,-252 449.02,-252 449.02,-252 443.02,-252 437.02,-246 437.02,-240 437.02,-240 437.02,-228 437.02,-228 437.02,-222 443.02,-216 449.02,-216 449.02,-216 518.02,-216 518.02,-216 524.02,-216 530.02,-222 530.02,-228 530.02,-228 530.02,-240 530.02,-240 530.02,-246 524.02,-252 518.02,-252"/>
<text text-anchor="middle" x="483.52" y="-237" font-family="sans" font-size="10.00">mikado_pick</text>
<text text-anchor="middle" x="483.52" y="-226" font-family="sans" font-size="10.00">mode: stringent</text>
</g>
<!-- 6&#45;&gt;27 -->
<g id="edge47" class="edge"><title>6&#45;&gt;27</title>
<path fill="none" stroke="grey" stroke-width="2" d="M274.242,-591.487C476.359,-584.459 1251.52,-550.987 1251.52,-451 1251.52,-451 1251.52,-451 1251.52,-377 1251.52,-219.202 715.894,-286.998 540.044,-252.028"/>
<polygon fill="grey" stroke="grey" stroke-width="2" points="540.734,-248.596 530.216,-249.873 539.234,-255.434 540.734,-248.596"/>
</g>
<!-- 7 -->
<g id="node8" class="node"><title>7</title>
<path fill="none" stroke="#68d856" stroke-width="2" d="M462.02,-396C462.02,-396 399.02,-396 399.02,-396 393.02,-396 387.02,-390 387.02,-384 387.02,-384 387.02,-372 387.02,-372 387.02,-366 393.02,-360 399.02,-360 399.02,-360 462.02,-360 462.02,-360 468.02,-360 474.02,-366 474.02,-372 474.02,-372 474.02,-384 474.02,-384 474.02,-390 468.02,-396 462.02,-396"/>
<text text-anchor="middle" x="430.52" y="-375.5" font-family="sans" font-size="10.00">genome_index</text>
</g>
<!-- 7&#45;&gt;25 -->
<g id="edge42" class="edge"><title>7&#45;&gt;25</title>
<path fill="none" stroke="grey" stroke-width="2" d="M430.52,-359.697C430.52,-351.983 430.52,-342.712 430.52,-334.112"/>
<polygon fill="grey" stroke="grey" stroke-width="2" points="434.02,-334.104 430.52,-324.104 427.02,-334.104 434.02,-334.104"/>
</g>
<!-- 8&#45;&gt;21 -->
<g id="edge31" class="edge"><title>8&#45;&gt;21</title>
<path fill="none" stroke="grey" stroke-width="2" d="M657.827,-147.751C626.224,-137.462 581.859,-123.017 545.797,-111.276"/>
<polygon fill="grey" stroke="grey" stroke-width="2" points="546.455,-107.81 535.863,-108.042 544.288,-114.466 546.455,-107.81"/>
</g>
<!-- 9&#45;&gt;29 -->
<g id="edge55" class="edge"><title>9&#45;&gt;29</title>
<path fill="none" stroke="grey" stroke-width="2" d="M1038.94,-434.241C1036.11,-433.428 1033.28,-432.671 1030.52,-432 917.541,-404.571 780.631,-388.926 715.107,-382.491"/>
<polygon fill="grey" stroke="grey" stroke-width="2" points="715.133,-378.978 704.844,-381.502 714.462,-385.945 715.133,-378.978"/>
</g>
<!-- 10&#45;&gt;29 -->
<g id="edge50" class="edge"><title>10&#45;&gt;29</title>
<path fill="none" stroke="grey" stroke-width="2" d="M1139.97,-434.137C1137.13,-433.349 1134.29,-432.625 1131.52,-432 979.629,-397.739 793.928,-384.883 714.98,-380.731"/>
<polygon fill="grey" stroke="grey" stroke-width="2" points="714.728,-377.213 704.563,-380.201 714.373,-384.204 714.728,-377.213"/>
</g>
<!-- 11&#45;&gt;5 -->
<g id="edge8" class="edge"><title>11&#45;&gt;5</title>
<path fill="none" stroke="grey" stroke-width="2" d="M703.986,-509.925C710.026,-507.75 716.436,-505.639 722.52,-504 809.605,-480.545 837.165,-490.363 928.033,-468.163"/>
<polygon fill="grey" stroke="grey" stroke-width="2" points="929.075,-471.51 937.924,-465.683 927.373,-464.721 929.075,-471.51"/>
</g>
<!-- 11&#45;&gt;9 -->
<g id="edge11" class="edge"><title>11&#45;&gt;9</title>
<path fill="none" stroke="grey" stroke-width="2" d="M703.92,-509.666C709.964,-507.508 716.393,-505.468 722.52,-504 853.405,-472.638 894.177,-497.143 1029.09,-468.051"/>
<polygon fill="grey" stroke="grey" stroke-width="2" points="1029.96,-471.442 1038.97,-465.862 1028.45,-464.608 1029.96,-471.442"/>
</g>
<!-- 11&#45;&gt;10 -->
<g id="edge13" class="edge"><title>11&#45;&gt;10</title>
<path fill="none" stroke="grey" stroke-width="2" d="M703.89,-509.533C709.935,-507.383 716.372,-505.38 722.52,-504 897.349,-464.74 951.029,-504.164 1129.98,-468.026"/>
<polygon fill="grey" stroke="grey" stroke-width="2" points="1130.9,-471.409 1139.99,-465.954 1129.48,-464.555 1130.9,-471.409"/>
</g>
<!-- 11&#45;&gt;15 -->
<g id="edge19" class="edge"><title>11&#45;&gt;15</title>
<path fill="none" stroke="grey" stroke-width="2" d="M649.107,-518.584C590.725,-513.082 449.791,-497.901 323.903,-468.116"/>
<polygon fill="grey" stroke="grey" stroke-width="2" points="324.638,-464.693 314.097,-465.759 323.002,-471.499 324.638,-464.693"/>
</g>
<!-- 11&#45;&gt;16 -->
<g id="edge21" class="edge"><title>11&#45;&gt;16</title>
<path fill="none" stroke="grey" stroke-width="2" d="M649.303,-516.417C604.358,-508.61 511.694,-491.506 424.88,-468.219"/>
<polygon fill="grey" stroke="grey" stroke-width="2" points="425.712,-464.818 415.144,-465.574 423.877,-471.573 425.712,-464.818"/>
</g>
<!-- 11&#45;&gt;19 -->
<g id="edge27" class="edge"><title>11&#45;&gt;19</title>
<path fill="none" stroke="grey" stroke-width="2" d="M649.277,-511.559C617.707,-500.619 564.997,-482.354 525.705,-468.738"/>
<polygon fill="grey" stroke="grey" stroke-width="2" points="526.621,-465.351 516.026,-465.383 524.329,-471.965 526.621,-465.351"/>
</g>
<!-- 11&#45;&gt;20 -->
<g id="edge29" class="edge"><title>11&#45;&gt;20</title>
<path fill="none" stroke="grey" stroke-width="2" d="M651.812,-503.876C638.851,-494.893 622.791,-483.763 608.754,-474.034"/>
<polygon fill="grey" stroke="grey" stroke-width="2" points="610.535,-471.009 600.322,-468.19 606.547,-476.763 610.535,-471.009"/>
</g>
<!-- 11&#45;&gt;22 -->
<g id="edge36" class="edge"><title>11&#45;&gt;22</title>
<path fill="none" stroke="grey" stroke-width="2" d="M676.52,-503.697C676.52,-495.983 676.52,-486.712 676.52,-478.112"/>
<polygon fill="grey" stroke="grey" stroke-width="2" points="680.02,-478.104 676.52,-468.104 673.02,-478.104 680.02,-478.104"/>
</g>
<!-- 11&#45;&gt;24 -->
<g id="edge39" class="edge"><title>11&#45;&gt;24</title>
<path fill="none" stroke="grey" stroke-width="2" d="M701.227,-503.876C714.188,-494.893 730.248,-483.763 744.285,-474.034"/>
<polygon fill="grey" stroke="grey" stroke-width="2" points="746.492,-476.763 752.717,-468.19 742.504,-471.009 746.492,-476.763"/>
</g>
<!-- 11&#45;&gt;28 -->
<g id="edge49" class="edge"><title>11&#45;&gt;28</title>
<path fill="none" stroke="grey" stroke-width="2" d="M703.719,-510.812C709.889,-508.539 716.421,-506.162 722.52,-504 766.574,-488.382 779.83,-484.464 827.181,-468.447"/>
<polygon fill="grey" stroke="grey" stroke-width="2" points="828.431,-471.719 836.778,-465.193 826.184,-465.09 828.431,-471.719"/>
</g>
<!-- 12 -->
<g id="node13" class="node"><title>12</title>
<path fill="none" stroke="#d8bc56" stroke-width="2" d="M310.02,-180C310.02,-180 253.02,-180 253.02,-180 247.02,-180 241.02,-174 241.02,-168 241.02,-168 241.02,-156 241.02,-156 241.02,-150 247.02,-144 253.02,-144 253.02,-144 310.02,-144 310.02,-144 316.02,-144 322.02,-150 322.02,-156 322.02,-156 322.02,-168 322.02,-168 322.02,-174 316.02,-180 310.02,-180"/>
<text text-anchor="middle" x="281.52" y="-159.5" font-family="sans" font-size="10.00">mikado_stats</text>
</g>
<!-- 12&#45;&gt;21 -->
<g id="edge33" class="edge"><title>12&#45;&gt;21</title>
<path fill="none" stroke="grey" stroke-width="2" d="M322.397,-146.834C351.776,-136.654 391.827,-122.775 424.646,-111.402"/>
<polygon fill="grey" stroke="grey" stroke-width="2" points="425.834,-114.694 434.137,-108.113 423.542,-108.08 425.834,-114.694"/>
</g>
<!-- 13&#45;&gt;2 -->
<g id="edge2" class="edge"><title>13&#45;&gt;2</title>
<path fill="none" stroke="grey" stroke-width="2" d="M115.25,-503.697C116.021,-495.983 116.948,-486.712 117.808,-478.112"/>
<polygon fill="grey" stroke="grey" stroke-width="2" points="121.297,-478.403 118.809,-468.104 114.331,-477.706 121.297,-478.403"/>
</g>
<!-- 14 -->
<g id="node15" class="node"><title>14</title>
<path fill="none" stroke="#afd856" stroke-width="2" d="M498.52,-36C498.52,-36 468.52,-36 468.52,-36 462.52,-36 456.52,-30 456.52,-24 456.52,-24 456.52,-12 456.52,-12 456.52,-6 462.52,-0 468.52,-0 468.52,-0 498.52,-0 498.52,-0 504.52,-0 510.52,-6 510.52,-12 510.52,-12 510.52,-24 510.52,-24 510.52,-30 504.52,-36 498.52,-36"/>
<text text-anchor="middle" x="483.52" y="-15.5" font-family="sans" font-size="10.00">all</text>
</g>
<!-- 15&#45;&gt;29 -->
<g id="edge57" class="edge"><title>15&#45;&gt;29</title>
<path fill="none" stroke="grey" stroke-width="2" d="M314.097,-434.241C316.931,-433.428 319.758,-432.671 322.52,-432 435.498,-404.571 572.408,-388.926 637.932,-382.491"/>
<polygon fill="grey" stroke="grey" stroke-width="2" points="638.578,-385.945 648.195,-381.502 637.906,-378.978 638.578,-385.945"/>
</g>
<!-- 16&#45;&gt;29 -->
<g id="edge59" class="edge"><title>16&#45;&gt;29</title>
<path fill="none" stroke="grey" stroke-width="2" d="M415.144,-434.426C417.967,-433.568 420.778,-432.75 423.52,-432 498.684,-411.431 588.286,-394.38 638.155,-385.539"/>
<polygon fill="grey" stroke="grey" stroke-width="2" points="638.931,-388.957 648.174,-383.779 637.72,-382.062 638.931,-388.957"/>
</g>
<!-- 17&#45;&gt;3 -->
<g id="edge4" class="edge"><title>17&#45;&gt;3</title>
<path fill="none" stroke="grey" stroke-width="2" d="M596.542,-215.697C595.66,-207.983 594.601,-198.712 593.618,-190.112"/>
<polygon fill="grey" stroke="grey" stroke-width="2" points="597.087,-189.642 592.474,-180.104 590.132,-190.437 597.087,-189.642"/>
</g>
<!-- 18&#45;&gt;12 -->
<g id="edge15" class="edge"><title>18&#45;&gt;12</title>
<path fill="none" stroke="grey" stroke-width="2" d="M280.014,-215.697C280.234,-207.983 280.499,-198.712 280.745,-190.112"/>
<polygon fill="grey" stroke="grey" stroke-width="2" points="284.244,-190.2 281.031,-180.104 277.247,-190 284.244,-190.2"/>
</g>
<!-- 19&#45;&gt;29 -->
<g id="edge54" class="edge"><title>19&#45;&gt;29</title>
<path fill="none" stroke="grey" stroke-width="2" d="M516.374,-434.496C552.345,-422.031 603.77,-404.21 638.563,-392.153"/>
<polygon fill="grey" stroke="grey" stroke-width="2" points="640.047,-395.343 648.349,-388.762 637.754,-388.729 640.047,-395.343"/>
</g>
<!-- 20&#45;&gt;29 -->
<g id="edge58" class="edge"><title>20&#45;&gt;29</title>
<path fill="none" stroke="grey" stroke-width="2" d="M600.227,-431.876C613.188,-422.893 629.248,-411.763 643.285,-402.034"/>
<polygon fill="grey" stroke="grey" stroke-width="2" points="645.492,-404.763 651.717,-396.19 641.504,-399.009 645.492,-404.763"/>
</g>
<!-- 21&#45;&gt;14 -->
<g id="edge17" class="edge"><title>21&#45;&gt;14</title>
<path fill="none" stroke="grey" stroke-width="2" d="M483.52,-71.6966C483.52,-63.9827 483.52,-54.7125 483.52,-46.1124"/>
<polygon fill="grey" stroke="grey" stroke-width="2" points="487.02,-46.1043 483.52,-36.1043 480.02,-46.1044 487.02,-46.1043"/>
</g>
<!-- 22&#45;&gt;29 -->
<g id="edge51" class="edge"><title>22&#45;&gt;29</title>
<path fill="none" stroke="grey" stroke-width="2" d="M676.52,-431.697C676.52,-423.983 676.52,-414.712 676.52,-406.112"/>
<polygon fill="grey" stroke="grey" stroke-width="2" points="680.02,-406.104 676.52,-396.104 673.02,-406.104 680.02,-406.104"/>
</g>
<!-- 23 -->
<g id="node24" class="node"><title>23</title>
<path fill="none" stroke="#d8bc56" stroke-width="2" d="M412.02,-180C412.02,-180 355.02,-180 355.02,-180 349.02,-180 343.02,-174 343.02,-168 343.02,-168 343.02,-156 343.02,-156 343.02,-150 349.02,-144 355.02,-144 355.02,-144 412.02,-144 412.02,-144 418.02,-144 424.02,-150 424.02,-156 424.02,-156 424.02,-168 424.02,-168 424.02,-174 418.02,-180 412.02,-180"/>
<text text-anchor="middle" x="383.52" y="-159.5" font-family="sans" font-size="10.00">mikado_stats</text>
</g>
<!-- 23&#45;&gt;21 -->
<g id="edge34" class="edge"><title>23&#45;&gt;21</title>
<path fill="none" stroke="grey" stroke-width="2" d="M407.982,-143.876C420.815,-134.893 436.716,-123.763 450.614,-114.034"/>
<polygon fill="grey" stroke="grey" stroke-width="2" points="452.778,-116.792 458.963,-108.19 448.763,-111.057 452.778,-116.792"/>
</g>
<!-- 24&#45;&gt;29 -->
<g id="edge56" class="edge"><title>24&#45;&gt;29</title>
<path fill="none" stroke="grey" stroke-width="2" d="M752.812,-431.876C739.851,-422.893 723.791,-411.763 709.754,-402.034"/>
<polygon fill="grey" stroke="grey" stroke-width="2" points="711.535,-399.009 701.322,-396.19 707.547,-404.763 711.535,-399.009"/>
</g>
<!-- 25&#45;&gt;4 -->
<g id="edge5" class="edge"><title>25&#45;&gt;4</title>
<path fill="none" stroke="grey" stroke-width="2" d="M478.914,-295.209C523.139,-285.936 590.487,-270.997 657.534,-252.144"/>
<polygon fill="grey" stroke="grey" stroke-width="2" points="658.758,-255.435 667.421,-249.335 656.845,-248.702 658.758,-255.435"/>
</g>
<!-- 25&#45;&gt;17 -->
<g id="edge22" class="edge"><title>25&#45;&gt;17</title>
<path fill="none" stroke="grey" stroke-width="2" d="M471.617,-287.876C494.686,-278.264 523.655,-266.193 548.089,-256.013"/>
<polygon fill="grey" stroke="grey" stroke-width="2" points="549.671,-259.145 557.556,-252.068 546.979,-252.684 549.671,-259.145"/>
</g>
<!-- 25&#45;&gt;18 -->
<g id="edge24" class="edge"><title>25&#45;&gt;18</title>
<path fill="none" stroke="grey" stroke-width="2" d="M393.581,-287.876C373.03,-278.349 347.269,-266.407 325.431,-256.283"/>
<polygon fill="grey" stroke="grey" stroke-width="2" points="326.883,-253.099 316.338,-252.068 323.939,-259.45 326.883,-253.099"/>
</g>
<!-- 25&#45;&gt;26 -->
<g id="edge44" class="edge"><title>25&#45;&gt;26</title>
<path fill="none" stroke="grey" stroke-width="2" d="M417.418,-287.697C411.129,-279.389 403.472,-269.277 396.555,-260.141"/>
<polygon fill="grey" stroke="grey" stroke-width="2" points="399.297,-257.964 390.47,-252.104 393.716,-262.19 399.297,-257.964"/>
</g>
<!-- 25&#45;&gt;27 -->
<g id="edge46" class="edge"><title>25&#45;&gt;27</title>
<path fill="none" stroke="grey" stroke-width="2" d="M443.621,-287.697C449.91,-279.389 457.567,-269.277 464.484,-260.141"/>
<polygon fill="grey" stroke="grey" stroke-width="2" points="467.323,-262.19 470.569,-252.104 461.742,-257.964 467.323,-262.19"/>
</g>
<!-- 26&#45;&gt;23 -->
<g id="edge37" class="edge"><title>26&#45;&gt;23</title>
<path fill="none" stroke="grey" stroke-width="2" d="M379.003,-215.697C379.664,-207.983 380.458,-198.712 381.196,-190.112"/>
<polygon fill="grey" stroke="grey" stroke-width="2" points="384.687,-190.367 382.053,-180.104 377.712,-189.769 384.687,-190.367"/>
</g>
<!-- 27&#45;&gt;0 -->
<g id="edge1" class="edge"><title>27&#45;&gt;0</title>
<path fill="none" stroke="grey" stroke-width="2" d="M483.52,-215.697C483.52,-207.983 483.52,-198.712 483.52,-190.112"/>
<polygon fill="grey" stroke="grey" stroke-width="2" points="487.02,-190.104 483.52,-180.104 480.02,-190.104 487.02,-190.104"/>
</g>
<!-- 28&#45;&gt;29 -->
<g id="edge53" class="edge"><title>28&#45;&gt;29</title>
<path fill="none" stroke="grey" stroke-width="2" d="M836.665,-434.496C800.694,-422.031 749.269,-404.21 714.476,-392.153"/>
<polygon fill="grey" stroke="grey" stroke-width="2" points="715.285,-388.729 704.69,-388.762 712.992,-395.343 715.285,-388.729"/>
</g>
<!-- 29&#45;&gt;25 -->
<g id="edge43" class="edge"><title>29&#45;&gt;25</title>
<path fill="none" stroke="grey" stroke-width="2" d="M648.3,-368.97C609.493,-357.927 538.745,-337.796 488.421,-323.476"/>
<polygon fill="grey" stroke="grey" stroke-width="2" points="489.221,-320.065 478.645,-320.694 487.305,-326.797 489.221,-320.065"/>
</g>
</g>
</svg>
