<?xml version="1.0" encoding="UTF-8" standalone="no"?>
<!DOCTYPE svg PUBLIC "-//W3C//DTD SVG 1.1//EN"
 "http://www.w3.org/Graphics/SVG/1.1/DTD/svg11.dtd">
<!-- Generated by graphviz version 2.38.0 (20140413.2041)
 -->
<!-- Title: snakemake_dag Pages: 1 -->
<svg width="2519pt" height="846pt"
 viewBox="0.00 0.00 2518.50 846.00" xmlns="http://www.w3.org/2000/svg" xmlns:xlink="http://www.w3.org/1999/xlink">
<g id="graph0" class="graph" transform="scale(1 1) rotate(0) translate(4 842)">
<title>snakemake_dag</title>
<polygon fill="white" stroke="none" points="-4,4 -4,-842 2514.5,-842 2514.5,4 -4,4"/>
<!-- 0 -->
<g id="node1" class="node"><title>0</title>
<path fill="none" stroke="#56b9d8" stroke-width="2" d="M1464.5,-689C1464.5,-689 1374.5,-689 1374.5,-689 1368.5,-689 1362.5,-683 1362.5,-677 1362.5,-677 1362.5,-665 1362.5,-665 1362.5,-659 1368.5,-653 1374.5,-653 1374.5,-653 1464.5,-653 1464.5,-653 1470.5,-653 1476.5,-659 1476.5,-665 1476.5,-665 1476.5,-677 1476.5,-677 1476.5,-683 1470.5,-689 1464.5,-689"/>
<text text-anchor="middle" x="1419.5" y="-674" font-family="sans" font-size="10.00">bam_sort</text>
<text text-anchor="middle" x="1419.5" y="-663" font-family="sans" font-size="10.00">align_run: star&#45;Ath&#45;0</text>
</g>
<!-- 21 -->
<g id="node22" class="node"><title>21</title>
<path fill="none" stroke="#56d85b" stroke-width="2" d="M1313,-401C1313,-401 1242,-401 1242,-401 1236,-401 1230,-395 1230,-389 1230,-389 1230,-372 1230,-372 1230,-366 1236,-360 1242,-360 1242,-360 1313,-360 1313,-360 1319,-360 1325,-366 1325,-372 1325,-372 1325,-389 1325,-389 1325,-395 1319,-401 1313,-401"/>
<text text-anchor="middle" x="1277.5" y="-389" font-family="sans" font-size="10.00">asm_stringtie</text>
<text text-anchor="middle" x="1277.5" y="-378" font-family="sans" font-size="10.00">alrun: star&#45;Ath&#45;0</text>
<text text-anchor="middle" x="1277.5" y="-367" font-family="sans" font-size="10.00">run2: 0</text>
</g>
<!-- 0&#45;&gt;21 -->
<g id="edge31" class="edge"><title>0&#45;&gt;21</title>
<path fill="none" stroke="grey" stroke-width="2" d="M1362.32,-653.615C1343.7,-645.514 1324.7,-633.76 1312.5,-617 1267.38,-555.018 1269.27,-459.233 1273.73,-411.161"/>
<polygon fill="grey" stroke="grey" stroke-width="2" points="1277.22,-411.414 1274.77,-401.108 1270.26,-410.695 1277.22,-411.414"/>
</g>
<!-- 26 -->
<g id="node27" class="node"><title>26</title>
<path fill="none" stroke="#d8c356" stroke-width="2" d="M1379,-617C1379,-617 1334,-617 1334,-617 1328,-617 1322,-611 1322,-605 1322,-605 1322,-593 1322,-593 1322,-587 1328,-581 1334,-581 1334,-581 1379,-581 1379,-581 1385,-581 1391,-587 1391,-593 1391,-593 1391,-605 1391,-605 1391,-611 1385,-617 1379,-617"/>
<text text-anchor="middle" x="1356.5" y="-596.5" font-family="sans" font-size="10.00">bam_index</text>
</g>
<!-- 0&#45;&gt;26 -->
<g id="edge38" class="edge"><title>0&#45;&gt;26</title>
<path fill="none" stroke="grey" stroke-width="2" d="M1403.93,-652.697C1396.3,-644.22 1386.98,-633.864 1378.62,-624.583"/>
<polygon fill="grey" stroke="grey" stroke-width="2" points="1381.19,-622.196 1371.89,-617.104 1375.98,-626.879 1381.19,-622.196"/>
</g>
<!-- 53 -->
<g id="node54" class="node"><title>53</title>
<path fill="none" stroke="#56d8d0" stroke-width="2" d="M1921,-401C1921,-401 1850,-401 1850,-401 1844,-401 1838,-395 1838,-389 1838,-389 1838,-372 1838,-372 1838,-366 1844,-360 1850,-360 1850,-360 1921,-360 1921,-360 1927,-360 1933,-366 1933,-372 1933,-372 1933,-389 1933,-389 1933,-395 1927,-401 1921,-401"/>
<text text-anchor="middle" x="1885.5" y="-389" font-family="sans" font-size="10.00">asm_class</text>
<text text-anchor="middle" x="1885.5" y="-378" font-family="sans" font-size="10.00">alrun: star&#45;Ath&#45;0</text>
<text text-anchor="middle" x="1885.5" y="-367" font-family="sans" font-size="10.00">run2: 0</text>
</g>
<!-- 0&#45;&gt;53 -->
<g id="edge82" class="edge"><title>0&#45;&gt;53</title>
<path fill="none" stroke="grey" stroke-width="2" d="M1447.25,-652.817C1526.31,-603.872 1752.93,-463.573 1845.44,-406.301"/>
<polygon fill="grey" stroke="grey" stroke-width="2" points="1847.3,-409.263 1853.96,-401.023 1843.62,-403.312 1847.3,-409.263"/>
</g>
<!-- 63 -->
<g id="node64" class="node"><title>63</title>
<path fill="none" stroke="#5692d8" stroke-width="2" d="M1378.5,-545C1378.5,-545 1334.5,-545 1334.5,-545 1328.5,-545 1322.5,-539 1322.5,-533 1322.5,-533 1322.5,-521 1322.5,-521 1322.5,-515 1328.5,-509 1334.5,-509 1334.5,-509 1378.5,-509 1378.5,-509 1384.5,-509 1390.5,-515 1390.5,-521 1390.5,-521 1390.5,-533 1390.5,-533 1390.5,-539 1384.5,-545 1378.5,-545"/>
<text text-anchor="middle" x="1356.5" y="-524.5" font-family="sans" font-size="10.00">bam_stats</text>
</g>
<!-- 0&#45;&gt;63 -->
<g id="edge95" class="edge"><title>0&#45;&gt;63</title>
<path fill="none" stroke="grey" stroke-width="2" d="M1418,-652.834C1415.85,-634.324 1410.83,-604.372 1399.5,-581 1394.64,-570.981 1387.56,-561.176 1380.54,-552.778"/>
<polygon fill="grey" stroke="grey" stroke-width="2" points="1383.12,-550.413 1373.9,-545.196 1377.85,-555.025 1383.12,-550.413"/>
</g>
<!-- 1 -->
<g id="node2" class="node"><title>1</title>
<path fill="none" stroke="#56d85b" stroke-width="2" d="M1073.5,-401C1073.5,-401 989.5,-401 989.5,-401 983.5,-401 977.5,-395 977.5,-389 977.5,-389 977.5,-372 977.5,-372 977.5,-366 983.5,-360 989.5,-360 989.5,-360 1073.5,-360 1073.5,-360 1079.5,-360 1085.5,-366 1085.5,-372 1085.5,-372 1085.5,-389 1085.5,-389 1085.5,-395 1079.5,-401 1073.5,-401"/>
<text text-anchor="middle" x="1031.5" y="-389" font-family="sans" font-size="10.00">asm_stringtie</text>
<text text-anchor="middle" x="1031.5" y="-378" font-family="sans" font-size="10.00">alrun: tophat&#45;Ath&#45;0</text>
<text text-anchor="middle" x="1031.5" y="-367" font-family="sans" font-size="10.00">run2: 0</text>
</g>
<!-- 8 -->
<g id="node9" class="node"><title>8</title>
<path fill="none" stroke="#88d856" stroke-width="2" d="M985.5,-324C985.5,-324 815.5,-324 815.5,-324 809.5,-324 803.5,-318 803.5,-312 803.5,-312 803.5,-300 803.5,-300 803.5,-294 809.5,-288 815.5,-288 815.5,-288 985.5,-288 985.5,-288 991.5,-288 997.5,-294 997.5,-300 997.5,-300 997.5,-312 997.5,-312 997.5,-318 991.5,-324 985.5,-324"/>
<text text-anchor="middle" x="900.5" y="-309" font-family="sans" font-size="10.00">asm_gff_stats</text>
<text text-anchor="middle" x="900.5" y="-298" font-family="sans" font-size="10.00">asm_run: stringtie&#45;0&#45;tophat&#45;Ath&#45;0.gtf</text>
</g>
<!-- 1&#45;&gt;8 -->
<g id="edge9" class="edge"><title>1&#45;&gt;8</title>
<path fill="none" stroke="grey" stroke-width="2" d="M996.05,-359.88C978.886,-350.381 958.207,-338.937 940.483,-329.128"/>
<polygon fill="grey" stroke="grey" stroke-width="2" points="941.962,-325.946 931.518,-324.166 938.573,-332.071 941.962,-325.946"/>
</g>
<!-- 2 -->
<g id="node3" class="node"><title>2</title>
<path fill="none" stroke="#56c9d8" stroke-width="2" d="M2274.5,-252C2274.5,-252 2212.5,-252 2212.5,-252 2206.5,-252 2200.5,-246 2200.5,-240 2200.5,-240 2200.5,-228 2200.5,-228 2200.5,-222 2206.5,-216 2212.5,-216 2212.5,-216 2274.5,-216 2274.5,-216 2280.5,-216 2286.5,-222 2286.5,-228 2286.5,-228 2286.5,-240 2286.5,-240 2286.5,-246 2280.5,-252 2274.5,-252"/>
<text text-anchor="middle" x="2243.5" y="-231.5" font-family="sans" font-size="10.00">portcullis_filter</text>
</g>
<!-- 45 -->
<g id="node46" class="node"><title>45</title>
<path fill="none" stroke="#a7d856" stroke-width="2" d="M1957.5,-180C1957.5,-180 1885.5,-180 1885.5,-180 1879.5,-180 1873.5,-174 1873.5,-168 1873.5,-168 1873.5,-156 1873.5,-156 1873.5,-150 1879.5,-144 1885.5,-144 1885.5,-144 1957.5,-144 1957.5,-144 1963.5,-144 1969.5,-150 1969.5,-156 1969.5,-156 1969.5,-168 1969.5,-168 1969.5,-174 1963.5,-180 1957.5,-180"/>
<text text-anchor="middle" x="1921.5" y="-159.5" font-family="sans" font-size="10.00">portcullis_merge</text>
</g>
<!-- 2&#45;&gt;45 -->
<g id="edge61" class="edge"><title>2&#45;&gt;45</title>
<path fill="none" stroke="grey" stroke-width="2" d="M2200.41,-223.632C2143.47,-211.255 2042.99,-189.412 1979.45,-175.598"/>
<polygon fill="grey" stroke="grey" stroke-width="2" points="1980.1,-172.157 1969.58,-173.453 1978.61,-178.997 1980.1,-172.157"/>
</g>
<!-- 3 -->
<g id="node4" class="node"><title>3</title>
<path fill="none" stroke="#56c9d8" stroke-width="2" d="M2438.5,-252C2438.5,-252 2376.5,-252 2376.5,-252 2370.5,-252 2364.5,-246 2364.5,-240 2364.5,-240 2364.5,-228 2364.5,-228 2364.5,-222 2370.5,-216 2376.5,-216 2376.5,-216 2438.5,-216 2438.5,-216 2444.5,-216 2450.5,-222 2450.5,-228 2450.5,-228 2450.5,-240 2450.5,-240 2450.5,-246 2444.5,-252 2438.5,-252"/>
<text text-anchor="middle" x="2407.5" y="-231.5" font-family="sans" font-size="10.00">portcullis_filter</text>
</g>
<!-- 3&#45;&gt;45 -->
<g id="edge60" class="edge"><title>3&#45;&gt;45</title>
<path fill="none" stroke="grey" stroke-width="2" d="M2364.43,-226.362C2343.62,-223.179 2318.27,-219.341 2295.5,-216 2183.8,-199.609 2053.2,-181.295 1979.63,-171.057"/>
<polygon fill="grey" stroke="grey" stroke-width="2" points="1980.03,-167.578 1969.64,-169.667 1979.06,-174.511 1980.03,-167.578"/>
</g>
<!-- 4 -->
<g id="node5" class="node"><title>4</title>
<path fill="none" stroke="#569ad8" stroke-width="2" d="M1234,-108C1234,-108 1155,-108 1155,-108 1149,-108 1143,-102 1143,-96 1143,-96 1143,-84 1143,-84 1143,-78 1149,-72 1155,-72 1155,-72 1234,-72 1234,-72 1240,-72 1246,-78 1246,-84 1246,-84 1246,-96 1246,-96 1246,-102 1240,-108 1234,-108"/>
<text text-anchor="middle" x="1194.5" y="-87.5" font-family="sans" font-size="10.00">asm_collect_stats</text>
</g>
<!-- 10 -->
<g id="node11" class="node"><title>10</title>
<path fill="none" stroke="#d88d56" stroke-width="2" d="M1407.5,-36C1407.5,-36 1377.5,-36 1377.5,-36 1371.5,-36 1365.5,-30 1365.5,-24 1365.5,-24 1365.5,-12 1365.5,-12 1365.5,-6 1371.5,-0 1377.5,-0 1377.5,-0 1407.5,-0 1407.5,-0 1413.5,-0 1419.5,-6 1419.5,-12 1419.5,-12 1419.5,-24 1419.5,-24 1419.5,-30 1413.5,-36 1407.5,-36"/>
<text text-anchor="middle" x="1392.5" y="-15.5" font-family="sans" font-size="10.00">all</text>
</g>
<!-- 4&#45;&gt;10 -->
<g id="edge13" class="edge"><title>4&#45;&gt;10</title>
<path fill="none" stroke="grey" stroke-width="2" d="M1242.68,-71.9656C1277.49,-59.6593 1323.8,-43.2876 1355.67,-32.0206"/>
<polygon fill="grey" stroke="grey" stroke-width="2" points="1357.22,-35.1865 1365.48,-28.5534 1354.88,-28.5868 1357.22,-35.1865"/>
</g>
<!-- 5 -->
<g id="node6" class="node"><title>5</title>
<path fill="none" stroke="#56d8b1" stroke-width="2" d="M713.5,-838C713.5,-838 639.5,-838 639.5,-838 633.5,-838 627.5,-832 627.5,-826 627.5,-826 627.5,-814 627.5,-814 627.5,-808 633.5,-802 639.5,-802 639.5,-802 713.5,-802 713.5,-802 719.5,-802 725.5,-808 725.5,-814 725.5,-814 725.5,-826 725.5,-826 725.5,-832 719.5,-838 713.5,-838"/>
<text text-anchor="middle" x="676.5" y="-817.5" font-family="sans" font-size="10.00">align_hisat_index</text>
</g>
<!-- 48 -->
<g id="node49" class="node"><title>48</title>
<path fill="none" stroke="#bed856" stroke-width="2" d="M701.5,-766C701.5,-766 651.5,-766 651.5,-766 645.5,-766 639.5,-760 639.5,-754 639.5,-754 639.5,-737 639.5,-737 639.5,-731 645.5,-725 651.5,-725 651.5,-725 701.5,-725 701.5,-725 707.5,-725 713.5,-731 713.5,-737 713.5,-737 713.5,-754 713.5,-754 713.5,-760 707.5,-766 701.5,-766"/>
<text text-anchor="middle" x="676.5" y="-754" font-family="sans" font-size="10.00">align_hisat</text>
<text text-anchor="middle" x="676.5" y="-743" font-family="sans" font-size="10.00">run: 0</text>
<text text-anchor="middle" x="676.5" y="-732" font-family="sans" font-size="10.00">sample: Ath</text>
</g>
<!-- 5&#45;&gt;48 -->
<g id="edge68" class="edge"><title>5&#45;&gt;48</title>
<path fill="none" stroke="grey" stroke-width="2" d="M676.5,-801.819C676.5,-794.198 676.5,-785.005 676.5,-776.32"/>
<polygon fill="grey" stroke="grey" stroke-width="2" points="680,-776.12 676.5,-766.12 673,-776.12 680,-776.12"/>
</g>
<!-- 6 -->
<g id="node7" class="node"><title>6</title>
<path fill="none" stroke="#5692d8" stroke-width="2" d="M1249.5,-545C1249.5,-545 1205.5,-545 1205.5,-545 1199.5,-545 1193.5,-539 1193.5,-533 1193.5,-533 1193.5,-521 1193.5,-521 1193.5,-515 1199.5,-509 1205.5,-509 1205.5,-509 1249.5,-509 1249.5,-509 1255.5,-509 1261.5,-515 1261.5,-521 1261.5,-521 1261.5,-533 1261.5,-533 1261.5,-539 1255.5,-545 1249.5,-545"/>
<text text-anchor="middle" x="1227.5" y="-524.5" font-family="sans" font-size="10.00">bam_stats</text>
</g>
<!-- 13 -->
<g id="node14" class="node"><title>13</title>
<path fill="none" stroke="#78d856" stroke-width="2" d="M1369,-473C1369,-473 1338,-473 1338,-473 1332,-473 1326,-467 1326,-461 1326,-461 1326,-449 1326,-449 1326,-443 1332,-437 1338,-437 1338,-437 1369,-437 1369,-437 1375,-437 1381,-443 1381,-449 1381,-449 1381,-461 1381,-461 1381,-467 1375,-473 1369,-473"/>
<text text-anchor="middle" x="1353.5" y="-452.5" font-family="sans" font-size="10.00">align_all</text>
</g>
<!-- 6&#45;&gt;13 -->
<g id="edge18" class="edge"><title>6&#45;&gt;13</title>
<path fill="none" stroke="grey" stroke-width="2" d="M1258.32,-508.876C1276.1,-498.998 1298.56,-486.522 1317.19,-476.17"/>
<polygon fill="grey" stroke="grey" stroke-width="2" points="1318.96,-479.195 1326,-471.279 1315.56,-473.076 1318.96,-479.195"/>
</g>
<!-- 7 -->
<g id="node8" class="node"><title>7</title>
<path fill="none" stroke="#5673d8" stroke-width="2" d="M1066,-838C1066,-838 983,-838 983,-838 977,-838 971,-832 971,-826 971,-826 971,-814 971,-814 971,-808 977,-802 983,-802 983,-802 1066,-802 1066,-802 1072,-802 1078,-808 1078,-814 1078,-814 1078,-826 1078,-826 1078,-832 1072,-838 1066,-838"/>
<text text-anchor="middle" x="1024.5" y="-817.5" font-family="sans" font-size="10.00">align_tophat_index</text>
</g>
<!-- 38 -->
<g id="node39" class="node"><title>38</title>
<path fill="none" stroke="#56d8c1" stroke-width="2" d="M1115.5,-766C1115.5,-766 1063.5,-766 1063.5,-766 1057.5,-766 1051.5,-760 1051.5,-754 1051.5,-754 1051.5,-737 1051.5,-737 1051.5,-731 1057.5,-725 1063.5,-725 1063.5,-725 1115.5,-725 1115.5,-725 1121.5,-725 1127.5,-731 1127.5,-737 1127.5,-737 1127.5,-754 1127.5,-754 1127.5,-760 1121.5,-766 1115.5,-766"/>
<text text-anchor="middle" x="1089.5" y="-754" font-family="sans" font-size="10.00">align_tophat</text>
<text text-anchor="middle" x="1089.5" y="-743" font-family="sans" font-size="10.00">run: 0</text>
<text text-anchor="middle" x="1089.5" y="-732" font-family="sans" font-size="10.00">sample: Ath</text>
</g>
<!-- 7&#45;&gt;38 -->
<g id="edge52" class="edge"><title>7&#45;&gt;38</title>
<path fill="none" stroke="grey" stroke-width="2" d="M1039.9,-801.819C1047.41,-793.444 1056.62,-783.171 1065.06,-773.761"/>
<polygon fill="grey" stroke="grey" stroke-width="2" points="1067.84,-775.902 1071.91,-766.12 1062.63,-771.229 1067.84,-775.902"/>
</g>
<!-- 52 -->
<g id="node53" class="node"><title>52</title>
<path fill="none" stroke="#56d8c1" stroke-width="2" d="M1002.5,-766C1002.5,-766 950.5,-766 950.5,-766 944.5,-766 938.5,-760 938.5,-754 938.5,-754 938.5,-737 938.5,-737 938.5,-731 944.5,-725 950.5,-725 950.5,-725 1002.5,-725 1002.5,-725 1008.5,-725 1014.5,-731 1014.5,-737 1014.5,-737 1014.5,-754 1014.5,-754 1014.5,-760 1008.5,-766 1002.5,-766"/>
<text text-anchor="middle" x="976.5" y="-754" font-family="sans" font-size="10.00">align_tophat</text>
<text text-anchor="middle" x="976.5" y="-743" font-family="sans" font-size="10.00">run: 1</text>
<text text-anchor="middle" x="976.5" y="-732" font-family="sans" font-size="10.00">sample: Ath</text>
</g>
<!-- 7&#45;&gt;52 -->
<g id="edge81" class="edge"><title>7&#45;&gt;52</title>
<path fill="none" stroke="grey" stroke-width="2" d="M1013.12,-801.819C1007.75,-793.695 1001.19,-783.786 995.111,-774.61"/>
<polygon fill="grey" stroke="grey" stroke-width="2" points="997.928,-772.526 989.489,-766.12 992.092,-776.39 997.928,-772.526"/>
</g>
<!-- 49 -->
<g id="node50" class="node"><title>49</title>
<path fill="none" stroke="#d87556" stroke-width="2" d="M1135.5,-252C1135.5,-252 1105.5,-252 1105.5,-252 1099.5,-252 1093.5,-246 1093.5,-240 1093.5,-240 1093.5,-228 1093.5,-228 1093.5,-222 1099.5,-216 1105.5,-216 1105.5,-216 1135.5,-216 1135.5,-216 1141.5,-216 1147.5,-222 1147.5,-228 1147.5,-228 1147.5,-240 1147.5,-240 1147.5,-246 1141.5,-252 1135.5,-252"/>
<text text-anchor="middle" x="1120.5" y="-231.5" font-family="sans" font-size="10.00">asm_all</text>
</g>
<!-- 8&#45;&gt;49 -->
<g id="edge71" class="edge"><title>8&#45;&gt;49</title>
<path fill="none" stroke="grey" stroke-width="2" d="M954.037,-287.966C994.09,-275.221 1047.85,-258.117 1083.3,-246.837"/>
<polygon fill="grey" stroke="grey" stroke-width="2" points="1084.76,-250.044 1093.23,-243.677 1082.64,-243.374 1084.76,-250.044"/>
</g>
<!-- 9 -->
<g id="node10" class="node"><title>9</title>
<path fill="none" stroke="#56d85b" stroke-width="2" d="M2294,-401C2294,-401 2223,-401 2223,-401 2217,-401 2211,-395 2211,-389 2211,-389 2211,-372 2211,-372 2211,-366 2217,-360 2223,-360 2223,-360 2294,-360 2294,-360 2300,-360 2306,-366 2306,-372 2306,-372 2306,-389 2306,-389 2306,-395 2300,-401 2294,-401"/>
<text text-anchor="middle" x="2258.5" y="-389" font-family="sans" font-size="10.00">asm_stringtie</text>
<text text-anchor="middle" x="2258.5" y="-378" font-family="sans" font-size="10.00">alrun: star&#45;Ath&#45;1</text>
<text text-anchor="middle" x="2258.5" y="-367" font-family="sans" font-size="10.00">run2: 0</text>
</g>
<!-- 25 -->
<g id="node26" class="node"><title>25</title>
<path fill="none" stroke="#88d856" stroke-width="2" d="M2294,-324C2294,-324 2137,-324 2137,-324 2131,-324 2125,-318 2125,-312 2125,-312 2125,-300 2125,-300 2125,-294 2131,-288 2137,-288 2137,-288 2294,-288 2294,-288 2300,-288 2306,-294 2306,-300 2306,-300 2306,-312 2306,-312 2306,-318 2300,-324 2294,-324"/>
<text text-anchor="middle" x="2215.5" y="-309" font-family="sans" font-size="10.00">asm_gff_stats</text>
<text text-anchor="middle" x="2215.5" y="-298" font-family="sans" font-size="10.00">asm_run: stringtie&#45;0&#45;star&#45;Ath&#45;1.gtf</text>
</g>
<!-- 9&#45;&gt;25 -->
<g id="edge37" class="edge"><title>9&#45;&gt;25</title>
<path fill="none" stroke="grey" stroke-width="2" d="M2246.75,-359.689C2241.88,-351.474 2236.16,-341.83 2230.95,-333.055"/>
<polygon fill="grey" stroke="grey" stroke-width="2" points="2233.88,-331.135 2225.77,-324.319 2227.86,-334.706 2233.88,-331.135"/>
</g>
<!-- 11 -->
<g id="node12" class="node"><title>11</title>
<path fill="none" stroke="#56b9d8" stroke-width="2" d="M1853.5,-689C1853.5,-689 1763.5,-689 1763.5,-689 1757.5,-689 1751.5,-683 1751.5,-677 1751.5,-677 1751.5,-665 1751.5,-665 1751.5,-659 1757.5,-653 1763.5,-653 1763.5,-653 1853.5,-653 1853.5,-653 1859.5,-653 1865.5,-659 1865.5,-665 1865.5,-665 1865.5,-677 1865.5,-677 1865.5,-683 1859.5,-689 1853.5,-689"/>
<text text-anchor="middle" x="1808.5" y="-674" font-family="sans" font-size="10.00">bam_sort</text>
<text text-anchor="middle" x="1808.5" y="-663" font-family="sans" font-size="10.00">align_run: star&#45;Ath&#45;1</text>
</g>
<!-- 11&#45;&gt;9 -->
<g id="edge10" class="edge"><title>11&#45;&gt;9</title>
<path fill="none" stroke="grey" stroke-width="2" d="M1842.05,-652.854C1861.18,-642.83 1885.46,-629.687 1906.5,-617 2025.26,-545.372 2160.12,-451.443 2222.87,-406.964"/>
<polygon fill="grey" stroke="grey" stroke-width="2" points="2225.11,-409.667 2231.24,-401.024 2221.06,-403.959 2225.11,-409.667"/>
</g>
<!-- 41 -->
<g id="node42" class="node"><title>41</title>
<path fill="none" stroke="#5692d8" stroke-width="2" d="M1767.5,-545C1767.5,-545 1723.5,-545 1723.5,-545 1717.5,-545 1711.5,-539 1711.5,-533 1711.5,-533 1711.5,-521 1711.5,-521 1711.5,-515 1717.5,-509 1723.5,-509 1723.5,-509 1767.5,-509 1767.5,-509 1773.5,-509 1779.5,-515 1779.5,-521 1779.5,-521 1779.5,-533 1779.5,-533 1779.5,-539 1773.5,-545 1767.5,-545"/>
<text text-anchor="middle" x="1745.5" y="-524.5" font-family="sans" font-size="10.00">bam_stats</text>
</g>
<!-- 11&#45;&gt;41 -->
<g id="edge55" class="edge"><title>11&#45;&gt;41</title>
<path fill="none" stroke="grey" stroke-width="2" d="M1807,-652.834C1804.85,-634.324 1799.83,-604.372 1788.5,-581 1783.64,-570.981 1776.56,-561.176 1769.54,-552.778"/>
<polygon fill="grey" stroke="grey" stroke-width="2" points="1772.12,-550.413 1762.9,-545.196 1766.85,-555.025 1772.12,-550.413"/>
</g>
<!-- 61 -->
<g id="node62" class="node"><title>61</title>
<path fill="none" stroke="#d8c356" stroke-width="2" d="M1768,-617C1768,-617 1723,-617 1723,-617 1717,-617 1711,-611 1711,-605 1711,-605 1711,-593 1711,-593 1711,-587 1717,-581 1723,-581 1723,-581 1768,-581 1768,-581 1774,-581 1780,-587 1780,-593 1780,-593 1780,-605 1780,-605 1780,-611 1774,-617 1768,-617"/>
<text text-anchor="middle" x="1745.5" y="-596.5" font-family="sans" font-size="10.00">bam_index</text>
</g>
<!-- 11&#45;&gt;61 -->
<g id="edge92" class="edge"><title>11&#45;&gt;61</title>
<path fill="none" stroke="grey" stroke-width="2" d="M1792.93,-652.697C1785.3,-644.22 1775.98,-633.864 1767.62,-624.583"/>
<polygon fill="grey" stroke="grey" stroke-width="2" points="1770.19,-622.196 1760.89,-617.104 1764.98,-626.879 1770.19,-622.196"/>
</g>
<!-- 62 -->
<g id="node63" class="node"><title>62</title>
<path fill="none" stroke="#56d8d0" stroke-width="2" d="M2181,-401C2181,-401 2110,-401 2110,-401 2104,-401 2098,-395 2098,-389 2098,-389 2098,-372 2098,-372 2098,-366 2104,-360 2110,-360 2110,-360 2181,-360 2181,-360 2187,-360 2193,-366 2193,-372 2193,-372 2193,-389 2193,-389 2193,-395 2187,-401 2181,-401"/>
<text text-anchor="middle" x="2145.5" y="-389" font-family="sans" font-size="10.00">asm_class</text>
<text text-anchor="middle" x="2145.5" y="-378" font-family="sans" font-size="10.00">alrun: star&#45;Ath&#45;1</text>
<text text-anchor="middle" x="2145.5" y="-367" font-family="sans" font-size="10.00">run2: 0</text>
</g>
<!-- 11&#45;&gt;62 -->
<g id="edge93" class="edge"><title>11&#45;&gt;62</title>
<path fill="none" stroke="grey" stroke-width="2" d="M1828.57,-652.817C1885.22,-604.325 2046.6,-466.163 2114.65,-407.912"/>
<polygon fill="grey" stroke="grey" stroke-width="2" points="2117.15,-410.378 2122.47,-401.216 2112.6,-405.061 2117.15,-410.378"/>
</g>
<!-- 12 -->
<g id="node13" class="node"><title>12</title>
<path fill="none" stroke="#88d856" stroke-width="2" d="M363.5,-324C363.5,-324 201.5,-324 201.5,-324 195.5,-324 189.5,-318 189.5,-312 189.5,-312 189.5,-300 189.5,-300 189.5,-294 195.5,-288 201.5,-288 201.5,-288 363.5,-288 363.5,-288 369.5,-288 375.5,-294 375.5,-300 375.5,-300 375.5,-312 375.5,-312 375.5,-318 369.5,-324 363.5,-324"/>
<text text-anchor="middle" x="282.5" y="-309" font-family="sans" font-size="10.00">asm_gff_stats</text>
<text text-anchor="middle" x="282.5" y="-298" font-family="sans" font-size="10.00">asm_run: stringtie&#45;0&#45;hisat&#45;Ath&#45;0.gtf</text>
</g>
<!-- 12&#45;&gt;49 -->
<g id="edge70" class="edge"><title>12&#45;&gt;49</title>
<path fill="none" stroke="grey" stroke-width="2" d="M375.56,-289.122C378.573,-288.726 381.559,-288.35 384.5,-288 651.342,-256.226 975.042,-240.938 1083.26,-236.453"/>
<polygon fill="grey" stroke="grey" stroke-width="2" points="1083.5,-239.946 1093.35,-236.04 1083.21,-232.952 1083.5,-239.946"/>
</g>
<!-- 13&#45;&gt;1 -->
<g id="edge3" class="edge"><title>13&#45;&gt;1</title>
<path fill="none" stroke="grey" stroke-width="2" d="M1325.7,-449.238C1279.72,-441.165 1184.84,-423.663 1095.45,-401.13"/>
<polygon fill="grey" stroke="grey" stroke-width="2" points="1096.25,-397.724 1085.7,-398.647 1094.53,-404.507 1096.25,-397.724"/>
</g>
<!-- 13&#45;&gt;9 -->
<g id="edge11" class="edge"><title>13&#45;&gt;9</title>
<path fill="none" stroke="grey" stroke-width="2" d="M1381.06,-453.267C1505.84,-449.798 2019.36,-433.891 2200.92,-400.73"/>
<polygon fill="grey" stroke="grey" stroke-width="2" points="2201.7,-404.146 2210.86,-398.831 2200.38,-397.27 2201.7,-404.146"/>
</g>
<!-- 15 -->
<g id="node16" class="node"><title>15</title>
<path fill="none" stroke="#56d8d0" stroke-width="2" d="M577.5,-401C577.5,-401 501.5,-401 501.5,-401 495.5,-401 489.5,-395 489.5,-389 489.5,-389 489.5,-372 489.5,-372 489.5,-366 495.5,-360 501.5,-360 501.5,-360 577.5,-360 577.5,-360 583.5,-360 589.5,-366 589.5,-372 589.5,-372 589.5,-389 589.5,-389 589.5,-395 583.5,-401 577.5,-401"/>
<text text-anchor="middle" x="539.5" y="-389" font-family="sans" font-size="10.00">asm_class</text>
<text text-anchor="middle" x="539.5" y="-378" font-family="sans" font-size="10.00">alrun: hisat&#45;Ath&#45;0</text>
<text text-anchor="middle" x="539.5" y="-367" font-family="sans" font-size="10.00">run2: 0</text>
</g>
<!-- 13&#45;&gt;15 -->
<g id="edge23" class="edge"><title>13&#45;&gt;15</title>
<path fill="none" stroke="grey" stroke-width="2" d="M1325.75,-454.525C1227.39,-455.869 886.373,-456.144 599.974,-401.027"/>
<polygon fill="grey" stroke="grey" stroke-width="2" points="600.295,-397.523 589.809,-399.043 598.954,-404.394 600.295,-397.523"/>
</g>
<!-- 16 -->
<g id="node17" class="node"><title>16</title>
<path fill="none" stroke="#d8ac56" stroke-width="2" d="M1649,-398.5C1649,-398.5 1540,-398.5 1540,-398.5 1534,-398.5 1528,-392.5 1528,-386.5 1528,-386.5 1528,-374.5 1528,-374.5 1528,-368.5 1534,-362.5 1540,-362.5 1540,-362.5 1649,-362.5 1649,-362.5 1655,-362.5 1661,-368.5 1661,-374.5 1661,-374.5 1661,-386.5 1661,-386.5 1661,-392.5 1655,-398.5 1649,-398.5"/>
<text text-anchor="middle" x="1594.5" y="-383.5" font-family="sans" font-size="10.00">portcullis_prep</text>
<text text-anchor="middle" x="1594.5" y="-372.5" font-family="sans" font-size="10.00">aln_method: hisat&#45;Ath&#45;0</text>
</g>
<!-- 13&#45;&gt;16 -->
<g id="edge25" class="edge"><title>13&#45;&gt;16</title>
<path fill="none" stroke="grey" stroke-width="2" d="M1381.15,-445.683C1416.66,-435.001 1479.46,-416.106 1527.77,-401.574"/>
<polygon fill="grey" stroke="grey" stroke-width="2" points="1528.97,-404.869 1537.53,-398.637 1526.95,-398.166 1528.97,-404.869"/>
</g>
<!-- 19 -->
<g id="node20" class="node"><title>19</title>
<path fill="none" stroke="#d8ac56" stroke-width="2" d="M2490,-398.5C2490,-398.5 2373,-398.5 2373,-398.5 2367,-398.5 2361,-392.5 2361,-386.5 2361,-386.5 2361,-374.5 2361,-374.5 2361,-368.5 2367,-362.5 2373,-362.5 2373,-362.5 2490,-362.5 2490,-362.5 2496,-362.5 2502,-368.5 2502,-374.5 2502,-374.5 2502,-386.5 2502,-386.5 2502,-392.5 2496,-398.5 2490,-398.5"/>
<text text-anchor="middle" x="2431.5" y="-383.5" font-family="sans" font-size="10.00">portcullis_prep</text>
<text text-anchor="middle" x="2431.5" y="-372.5" font-family="sans" font-size="10.00">aln_method: tophat&#45;Ath&#45;0</text>
</g>
<!-- 13&#45;&gt;19 -->
<g id="edge29" class="edge"><title>13&#45;&gt;19</title>
<path fill="none" stroke="grey" stroke-width="2" d="M1381.11,-453.588C1495.91,-451.641 1946.63,-441.675 2314.5,-401 2326.25,-399.7 2338.62,-398.003 2350.73,-396.151"/>
<polygon fill="grey" stroke="grey" stroke-width="2" points="2351.5,-399.574 2360.83,-394.565 2350.41,-392.659 2351.5,-399.574"/>
</g>
<!-- 20 -->
<g id="node21" class="node"><title>20</title>
<path fill="none" stroke="#d8ac56" stroke-width="2" d="M1808,-398.5C1808,-398.5 1691,-398.5 1691,-398.5 1685,-398.5 1679,-392.5 1679,-386.5 1679,-386.5 1679,-374.5 1679,-374.5 1679,-368.5 1685,-362.5 1691,-362.5 1691,-362.5 1808,-362.5 1808,-362.5 1814,-362.5 1820,-368.5 1820,-374.5 1820,-374.5 1820,-386.5 1820,-386.5 1820,-392.5 1814,-398.5 1808,-398.5"/>
<text text-anchor="middle" x="1749.5" y="-383.5" font-family="sans" font-size="10.00">portcullis_prep</text>
<text text-anchor="middle" x="1749.5" y="-372.5" font-family="sans" font-size="10.00">aln_method: tophat&#45;Ath&#45;1</text>
</g>
<!-- 13&#45;&gt;20 -->
<g id="edge30" class="edge"><title>13&#45;&gt;20</title>
<path fill="none" stroke="grey" stroke-width="2" d="M1381.1,-450.063C1436.17,-442.056 1563.52,-422.774 1669.5,-401 1670.09,-400.879 1670.68,-400.756 1671.28,-400.632"/>
<polygon fill="grey" stroke="grey" stroke-width="2" points="1672.02,-404.053 1681.06,-398.53 1670.55,-397.21 1672.02,-404.053"/>
</g>
<!-- 13&#45;&gt;21 -->
<g id="edge32" class="edge"><title>13&#45;&gt;21</title>
<path fill="none" stroke="grey" stroke-width="2" d="M1335.49,-436.819C1326.53,-428.276 1315.51,-417.759 1305.49,-408.197"/>
<polygon fill="grey" stroke="grey" stroke-width="2" points="1307.72,-405.49 1298.07,-401.12 1302.89,-410.555 1307.72,-405.49"/>
</g>
<!-- 22 -->
<g id="node23" class="node"><title>22</title>
<path fill="none" stroke="#56d8d0" stroke-width="2" d="M947.5,-401C947.5,-401 863.5,-401 863.5,-401 857.5,-401 851.5,-395 851.5,-389 851.5,-389 851.5,-372 851.5,-372 851.5,-366 857.5,-360 863.5,-360 863.5,-360 947.5,-360 947.5,-360 953.5,-360 959.5,-366 959.5,-372 959.5,-372 959.5,-389 959.5,-389 959.5,-395 953.5,-401 947.5,-401"/>
<text text-anchor="middle" x="905.5" y="-389" font-family="sans" font-size="10.00">asm_class</text>
<text text-anchor="middle" x="905.5" y="-378" font-family="sans" font-size="10.00">alrun: tophat&#45;Ath&#45;1</text>
<text text-anchor="middle" x="905.5" y="-367" font-family="sans" font-size="10.00">run2: 0</text>
</g>
<!-- 13&#45;&gt;22 -->
<g id="edge33" class="edge"><title>13&#45;&gt;22</title>
<path fill="none" stroke="grey" stroke-width="2" d="M1325.68,-451.741C1263.42,-446.354 1108.07,-431.062 969.586,-401.061"/>
<polygon fill="grey" stroke="grey" stroke-width="2" points="970.164,-397.604 959.645,-398.875 968.66,-404.441 970.164,-397.604"/>
</g>
<!-- 27 -->
<g id="node28" class="node"><title>27</title>
<path fill="none" stroke="#56d85b" stroke-width="2" d="M821.5,-401C821.5,-401 737.5,-401 737.5,-401 731.5,-401 725.5,-395 725.5,-389 725.5,-389 725.5,-372 725.5,-372 725.5,-366 731.5,-360 737.5,-360 737.5,-360 821.5,-360 821.5,-360 827.5,-360 833.5,-366 833.5,-372 833.5,-372 833.5,-389 833.5,-389 833.5,-395 827.5,-401 821.5,-401"/>
<text text-anchor="middle" x="779.5" y="-389" font-family="sans" font-size="10.00">asm_stringtie</text>
<text text-anchor="middle" x="779.5" y="-378" font-family="sans" font-size="10.00">alrun: tophat&#45;Ath&#45;1</text>
<text text-anchor="middle" x="779.5" y="-367" font-family="sans" font-size="10.00">run2: 0</text>
</g>
<!-- 13&#45;&gt;27 -->
<g id="edge39" class="edge"><title>13&#45;&gt;27</title>
<path fill="none" stroke="grey" stroke-width="2" d="M1325.79,-453.041C1249.86,-450.01 1032.09,-438.62 843.433,-400.98"/>
<polygon fill="grey" stroke="grey" stroke-width="2" points="844.116,-397.547 833.62,-398.993 842.726,-404.408 844.116,-397.547"/>
</g>
<!-- 46 -->
<g id="node47" class="node"><title>46</title>
<path fill="none" stroke="#56d8d0" stroke-width="2" d="M1199.5,-401C1199.5,-401 1115.5,-401 1115.5,-401 1109.5,-401 1103.5,-395 1103.5,-389 1103.5,-389 1103.5,-372 1103.5,-372 1103.5,-366 1109.5,-360 1115.5,-360 1115.5,-360 1199.5,-360 1199.5,-360 1205.5,-360 1211.5,-366 1211.5,-372 1211.5,-372 1211.5,-389 1211.5,-389 1211.5,-395 1205.5,-401 1199.5,-401"/>
<text text-anchor="middle" x="1157.5" y="-389" font-family="sans" font-size="10.00">asm_class</text>
<text text-anchor="middle" x="1157.5" y="-378" font-family="sans" font-size="10.00">alrun: tophat&#45;Ath&#45;0</text>
<text text-anchor="middle" x="1157.5" y="-367" font-family="sans" font-size="10.00">run2: 0</text>
</g>
<!-- 13&#45;&gt;46 -->
<g id="edge66" class="edge"><title>13&#45;&gt;46</title>
<path fill="none" stroke="grey" stroke-width="2" d="M1325.83,-443.766C1298.54,-433.669 1255.85,-417.881 1220.3,-404.729"/>
<polygon fill="grey" stroke="grey" stroke-width="2" points="1221.07,-401.283 1210.48,-401.097 1218.64,-407.849 1221.07,-401.283"/>
</g>
<!-- 51 -->
<g id="node52" class="node"><title>51</title>
<path fill="none" stroke="#d8ac56" stroke-width="2" d="M1497.5,-398.5C1497.5,-398.5 1393.5,-398.5 1393.5,-398.5 1387.5,-398.5 1381.5,-392.5 1381.5,-386.5 1381.5,-386.5 1381.5,-374.5 1381.5,-374.5 1381.5,-368.5 1387.5,-362.5 1393.5,-362.5 1393.5,-362.5 1497.5,-362.5 1497.5,-362.5 1503.5,-362.5 1509.5,-368.5 1509.5,-374.5 1509.5,-374.5 1509.5,-386.5 1509.5,-386.5 1509.5,-392.5 1503.5,-398.5 1497.5,-398.5"/>
<text text-anchor="middle" x="1445.5" y="-383.5" font-family="sans" font-size="10.00">portcullis_prep</text>
<text text-anchor="middle" x="1445.5" y="-372.5" font-family="sans" font-size="10.00">aln_method: star&#45;Ath&#45;1</text>
</g>
<!-- 13&#45;&gt;51 -->
<g id="edge80" class="edge"><title>13&#45;&gt;51</title>
<path fill="none" stroke="grey" stroke-width="2" d="M1375.3,-436.819C1387.45,-427.248 1402.74,-415.198 1415.95,-404.79"/>
<polygon fill="grey" stroke="grey" stroke-width="2" points="1418.17,-407.497 1423.85,-398.558 1413.83,-401.999 1418.17,-407.497"/>
</g>
<!-- 13&#45;&gt;53 -->
<g id="edge83" class="edge"><title>13&#45;&gt;53</title>
<path fill="none" stroke="grey" stroke-width="2" d="M1381.28,-451.704C1466.58,-444.531 1724.68,-421.888 1828.03,-400.761"/>
<polygon fill="grey" stroke="grey" stroke-width="2" points="1828.78,-404.178 1837.82,-398.656 1827.31,-397.335 1828.78,-404.178"/>
</g>
<!-- 55 -->
<g id="node56" class="node"><title>55</title>
<path fill="none" stroke="#61d856" stroke-width="2" d="M1432.5,-180C1432.5,-180 1352.5,-180 1352.5,-180 1346.5,-180 1340.5,-174 1340.5,-168 1340.5,-168 1340.5,-156 1340.5,-156 1340.5,-150 1346.5,-144 1352.5,-144 1352.5,-144 1432.5,-144 1432.5,-144 1438.5,-144 1444.5,-150 1444.5,-156 1444.5,-156 1444.5,-168 1444.5,-168 1444.5,-174 1438.5,-180 1432.5,-180"/>
<text text-anchor="middle" x="1392.5" y="-159.5" font-family="sans" font-size="10.00">align_collect_stats</text>
</g>
<!-- 13&#45;&gt;55 -->
<g id="edge85" class="edge"><title>13&#45;&gt;55</title>
<path fill="none" stroke="grey" stroke-width="2" d="M1354.43,-436.907C1356.06,-417.435 1360.48,-385.072 1372.5,-360 1381.5,-341.22 1395.41,-343.583 1402.5,-324 1418.76,-279.092 1408.92,-222.566 1400.53,-189.832"/>
<polygon fill="grey" stroke="grey" stroke-width="2" points="1403.89,-188.824 1397.9,-180.085 1397.13,-190.651 1403.89,-188.824"/>
</g>
<!-- 56 -->
<g id="node57" class="node"><title>56</title>
<path fill="none" stroke="#d8ac56" stroke-width="2" d="M2067.5,-398.5C2067.5,-398.5 1963.5,-398.5 1963.5,-398.5 1957.5,-398.5 1951.5,-392.5 1951.5,-386.5 1951.5,-386.5 1951.5,-374.5 1951.5,-374.5 1951.5,-368.5 1957.5,-362.5 1963.5,-362.5 1963.5,-362.5 2067.5,-362.5 2067.5,-362.5 2073.5,-362.5 2079.5,-368.5 2079.5,-374.5 2079.5,-374.5 2079.5,-386.5 2079.5,-386.5 2079.5,-392.5 2073.5,-398.5 2067.5,-398.5"/>
<text text-anchor="middle" x="2015.5" y="-383.5" font-family="sans" font-size="10.00">portcullis_prep</text>
<text text-anchor="middle" x="2015.5" y="-372.5" font-family="sans" font-size="10.00">aln_method: star&#45;Ath&#45;0</text>
</g>
<!-- 13&#45;&gt;56 -->
<g id="edge86" class="edge"><title>13&#45;&gt;56</title>
<path fill="none" stroke="grey" stroke-width="2" d="M1381.27,-453.15C1465.92,-450.206 1727.98,-438.482 1941.5,-401 1942.26,-400.866 1943.02,-400.729 1943.79,-400.588"/>
<polygon fill="grey" stroke="grey" stroke-width="2" points="1944.78,-403.96 1953.89,-398.561 1943.4,-397.097 1944.78,-403.96"/>
</g>
<!-- 59 -->
<g id="node60" class="node"><title>59</title>
<path fill="none" stroke="#56d85b" stroke-width="2" d="M695.5,-401C695.5,-401 619.5,-401 619.5,-401 613.5,-401 607.5,-395 607.5,-389 607.5,-389 607.5,-372 607.5,-372 607.5,-366 613.5,-360 619.5,-360 619.5,-360 695.5,-360 695.5,-360 701.5,-360 707.5,-366 707.5,-372 707.5,-372 707.5,-389 707.5,-389 707.5,-395 701.5,-401 695.5,-401"/>
<text text-anchor="middle" x="657.5" y="-389" font-family="sans" font-size="10.00">asm_stringtie</text>
<text text-anchor="middle" x="657.5" y="-378" font-family="sans" font-size="10.00">alrun: hisat&#45;Ath&#45;0</text>
<text text-anchor="middle" x="657.5" y="-367" font-family="sans" font-size="10.00">run2: 0</text>
</g>
<!-- 13&#45;&gt;59 -->
<g id="edge89" class="edge"><title>13&#45;&gt;59</title>
<path fill="none" stroke="grey" stroke-width="2" d="M1325.85,-454.016C1237.85,-453.583 956.488,-448.47 717.722,-400.997"/>
<polygon fill="grey" stroke="grey" stroke-width="2" points="718.313,-397.546 707.818,-398.998 716.928,-404.407 718.313,-397.546"/>
</g>
<!-- 13&#45;&gt;62 -->
<g id="edge94" class="edge"><title>13&#45;&gt;62</title>
<path fill="none" stroke="grey" stroke-width="2" d="M1381.21,-454.55C1477.91,-455.938 1809.2,-456.239 2087.96,-400.792"/>
<polygon fill="grey" stroke="grey" stroke-width="2" points="2088.74,-404.205 2097.85,-398.796 2087.36,-397.343 2088.74,-404.205"/>
</g>
<!-- 14 -->
<g id="node15" class="node"><title>14</title>
<path fill="none" stroke="#68d856" stroke-width="2" d="M2094.5,-324C2094.5,-324 2034.5,-324 2034.5,-324 2028.5,-324 2022.5,-318 2022.5,-312 2022.5,-312 2022.5,-300 2022.5,-300 2022.5,-294 2028.5,-288 2034.5,-288 2034.5,-288 2094.5,-288 2094.5,-288 2100.5,-288 2106.5,-294 2106.5,-300 2106.5,-300 2106.5,-312 2106.5,-312 2106.5,-318 2100.5,-324 2094.5,-324"/>
<text text-anchor="middle" x="2064.5" y="-303.5" font-family="sans" font-size="10.00">portcullis_junc</text>
</g>
<!-- 54 -->
<g id="node55" class="node"><title>54</title>
<path fill="none" stroke="#56c9d8" stroke-width="2" d="M2049.5,-252C2049.5,-252 1987.5,-252 1987.5,-252 1981.5,-252 1975.5,-246 1975.5,-240 1975.5,-240 1975.5,-228 1975.5,-228 1975.5,-222 1981.5,-216 1987.5,-216 1987.5,-216 2049.5,-216 2049.5,-216 2055.5,-216 2061.5,-222 2061.5,-228 2061.5,-228 2061.5,-240 2061.5,-240 2061.5,-246 2055.5,-252 2049.5,-252"/>
<text text-anchor="middle" x="2018.5" y="-231.5" font-family="sans" font-size="10.00">portcullis_filter</text>
</g>
<!-- 14&#45;&gt;54 -->
<g id="edge84" class="edge"><title>14&#45;&gt;54</title>
<path fill="none" stroke="grey" stroke-width="2" d="M2053.13,-287.697C2047.78,-279.559 2041.3,-269.689 2035.39,-260.701"/>
<polygon fill="grey" stroke="grey" stroke-width="2" points="2038.16,-258.539 2029.74,-252.104 2032.31,-262.384 2038.16,-258.539"/>
</g>
<!-- 28 -->
<g id="node29" class="node"><title>28</title>
<path fill="none" stroke="#88d856" stroke-width="2" d="M159,-324C159,-324 12,-324 12,-324 6,-324 0,-318 0,-312 0,-312 0,-300 0,-300 0,-294 6,-288 12,-288 12,-288 159,-288 159,-288 165,-288 171,-294 171,-300 171,-300 171,-312 171,-312 171,-318 165,-324 159,-324"/>
<text text-anchor="middle" x="85.5" y="-309" font-family="sans" font-size="10.00">asm_gff_stats</text>
<text text-anchor="middle" x="85.5" y="-298" font-family="sans" font-size="10.00">asm_run: class&#45;0&#45;hisat&#45;Ath&#45;0.gtf</text>
</g>
<!-- 15&#45;&gt;28 -->
<g id="edge41" class="edge"><title>15&#45;&gt;28</title>
<path fill="none" stroke="grey" stroke-width="2" d="M489.494,-372.152C422.041,-362.154 297.893,-343.458 181.357,-324.122"/>
<polygon fill="grey" stroke="grey" stroke-width="2" points="181.628,-320.619 171.189,-322.43 180.479,-327.524 181.628,-320.619"/>
</g>
<!-- 34 -->
<g id="node35" class="node"><title>34</title>
<path fill="none" stroke="#68d856" stroke-width="2" d="M1624.5,-324C1624.5,-324 1564.5,-324 1564.5,-324 1558.5,-324 1552.5,-318 1552.5,-312 1552.5,-312 1552.5,-300 1552.5,-300 1552.5,-294 1558.5,-288 1564.5,-288 1564.5,-288 1624.5,-288 1624.5,-288 1630.5,-288 1636.5,-294 1636.5,-300 1636.5,-300 1636.5,-312 1636.5,-312 1636.5,-318 1630.5,-324 1624.5,-324"/>
<text text-anchor="middle" x="1594.5" y="-303.5" font-family="sans" font-size="10.00">portcullis_junc</text>
</g>
<!-- 16&#45;&gt;34 -->
<g id="edge48" class="edge"><title>16&#45;&gt;34</title>
<path fill="none" stroke="grey" stroke-width="2" d="M1594.5,-362.319C1594.5,-353.922 1594.5,-343.616 1594.5,-334.186"/>
<polygon fill="grey" stroke="grey" stroke-width="2" points="1598,-334.058 1594.5,-324.058 1591,-334.058 1598,-334.058"/>
</g>
<!-- 17 -->
<g id="node18" class="node"><title>17</title>
<path fill="none" stroke="#5692d8" stroke-width="2" d="M780.5,-545C780.5,-545 736.5,-545 736.5,-545 730.5,-545 724.5,-539 724.5,-533 724.5,-533 724.5,-521 724.5,-521 724.5,-515 730.5,-509 736.5,-509 736.5,-509 780.5,-509 780.5,-509 786.5,-509 792.5,-515 792.5,-521 792.5,-521 792.5,-533 792.5,-533 792.5,-539 786.5,-545 780.5,-545"/>
<text text-anchor="middle" x="758.5" y="-524.5" font-family="sans" font-size="10.00">bam_stats</text>
</g>
<!-- 17&#45;&gt;13 -->
<g id="edge17" class="edge"><title>17&#45;&gt;13</title>
<path fill="none" stroke="grey" stroke-width="2" d="M792.627,-521.985C896.342,-509.783 1207.34,-473.196 1315.74,-460.443"/>
<polygon fill="grey" stroke="grey" stroke-width="2" points="1316.35,-463.894 1325.88,-459.25 1315.54,-456.942 1316.35,-463.894"/>
</g>
<!-- 18 -->
<g id="node19" class="node"><title>18</title>
<path fill="none" stroke="#afd856" stroke-width="2" d="M1518.5,-766C1518.5,-766 1468.5,-766 1468.5,-766 1462.5,-766 1456.5,-760 1456.5,-754 1456.5,-754 1456.5,-737 1456.5,-737 1456.5,-731 1462.5,-725 1468.5,-725 1468.5,-725 1518.5,-725 1518.5,-725 1524.5,-725 1530.5,-731 1530.5,-737 1530.5,-737 1530.5,-754 1530.5,-754 1530.5,-760 1524.5,-766 1518.5,-766"/>
<text text-anchor="middle" x="1493.5" y="-754" font-family="sans" font-size="10.00">align_star</text>
<text text-anchor="middle" x="1493.5" y="-743" font-family="sans" font-size="10.00">run: 0</text>
<text text-anchor="middle" x="1493.5" y="-732" font-family="sans" font-size="10.00">sample: Ath</text>
</g>
<!-- 18&#45;&gt;0 -->
<g id="edge1" class="edge"><title>18&#45;&gt;0</title>
<path fill="none" stroke="grey" stroke-width="2" d="M1473.28,-724.689C1464.36,-715.955 1453.8,-705.607 1444.41,-696.403"/>
<polygon fill="grey" stroke="grey" stroke-width="2" points="1446.77,-693.818 1437.18,-689.319 1441.87,-698.818 1446.77,-693.818"/>
</g>
<!-- 58 -->
<g id="node59" class="node"><title>58</title>
<path fill="none" stroke="#68d856" stroke-width="2" d="M2498.5,-324C2498.5,-324 2438.5,-324 2438.5,-324 2432.5,-324 2426.5,-318 2426.5,-312 2426.5,-312 2426.5,-300 2426.5,-300 2426.5,-294 2432.5,-288 2438.5,-288 2438.5,-288 2498.5,-288 2498.5,-288 2504.5,-288 2510.5,-294 2510.5,-300 2510.5,-300 2510.5,-312 2510.5,-312 2510.5,-318 2504.5,-324 2498.5,-324"/>
<text text-anchor="middle" x="2468.5" y="-303.5" font-family="sans" font-size="10.00">portcullis_junc</text>
</g>
<!-- 19&#45;&gt;58 -->
<g id="edge88" class="edge"><title>19&#45;&gt;58</title>
<path fill="none" stroke="grey" stroke-width="2" d="M2440.27,-362.319C2444.74,-353.56 2450.27,-342.726 2455.24,-332.974"/>
<polygon fill="grey" stroke="grey" stroke-width="2" points="2458.37,-334.556 2459.79,-324.058 2452.13,-331.374 2458.37,-334.556"/>
</g>
<!-- 20&#45;&gt;14 -->
<g id="edge22" class="edge"><title>20&#45;&gt;14</title>
<path fill="none" stroke="grey" stroke-width="2" d="M1817.54,-362.478C1821.24,-361.623 1824.91,-360.791 1828.5,-360 1907.26,-342.627 1930.76,-345.071 2012.6,-324.062"/>
<polygon fill="grey" stroke="grey" stroke-width="2" points="2013.53,-327.435 2022.33,-321.526 2011.77,-320.662 2013.53,-327.435"/>
</g>
<!-- 29 -->
<g id="node30" class="node"><title>29</title>
<path fill="none" stroke="#88d856" stroke-width="2" d="M1382,-324C1382,-324 1225,-324 1225,-324 1219,-324 1213,-318 1213,-312 1213,-312 1213,-300 1213,-300 1213,-294 1219,-288 1225,-288 1225,-288 1382,-288 1382,-288 1388,-288 1394,-294 1394,-300 1394,-300 1394,-312 1394,-312 1394,-318 1388,-324 1382,-324"/>
<text text-anchor="middle" x="1303.5" y="-309" font-family="sans" font-size="10.00">asm_gff_stats</text>
<text text-anchor="middle" x="1303.5" y="-298" font-family="sans" font-size="10.00">asm_run: stringtie&#45;0&#45;star&#45;Ath&#45;0.gtf</text>
</g>
<!-- 21&#45;&gt;29 -->
<g id="edge42" class="edge"><title>21&#45;&gt;29</title>
<path fill="none" stroke="grey" stroke-width="2" d="M1284.6,-359.689C1287.46,-351.734 1290.79,-342.438 1293.86,-333.888"/>
<polygon fill="grey" stroke="grey" stroke-width="2" points="1297.21,-334.914 1297.29,-324.319 1290.62,-332.551 1297.21,-334.914"/>
</g>
<!-- 47 -->
<g id="node48" class="node"><title>47</title>
<path fill="none" stroke="#88d856" stroke-width="2" d="M773,-324C773,-324 618,-324 618,-324 612,-324 606,-318 606,-312 606,-312 606,-300 606,-300 606,-294 612,-288 618,-288 618,-288 773,-288 773,-288 779,-288 785,-294 785,-300 785,-300 785,-312 785,-312 785,-318 779,-324 773,-324"/>
<text text-anchor="middle" x="695.5" y="-309" font-family="sans" font-size="10.00">asm_gff_stats</text>
<text text-anchor="middle" x="695.5" y="-298" font-family="sans" font-size="10.00">asm_run: class&#45;0&#45;tophat&#45;Ath&#45;1.gtf</text>
</g>
<!-- 22&#45;&gt;47 -->
<g id="edge67" class="edge"><title>22&#45;&gt;47</title>
<path fill="none" stroke="grey" stroke-width="2" d="M851.42,-360.829C821.812,-350.608 785.077,-337.925 754.702,-327.439"/>
<polygon fill="grey" stroke="grey" stroke-width="2" points="755.675,-324.072 745.08,-324.117 753.39,-330.689 755.675,-324.072"/>
</g>
<!-- 23 -->
<g id="node24" class="node"><title>23</title>
<path fill="none" stroke="#d8c356" stroke-width="2" d="M1044,-617C1044,-617 999,-617 999,-617 993,-617 987,-611 987,-605 987,-605 987,-593 987,-593 987,-587 993,-581 999,-581 999,-581 1044,-581 1044,-581 1050,-581 1056,-587 1056,-593 1056,-593 1056,-605 1056,-605 1056,-611 1050,-617 1044,-617"/>
<text text-anchor="middle" x="1021.5" y="-596.5" font-family="sans" font-size="10.00">bam_index</text>
</g>
<!-- 33 -->
<g id="node34" class="node"><title>33</title>
<path fill="none" stroke="#5692d8" stroke-width="2" d="M1043.5,-545C1043.5,-545 999.5,-545 999.5,-545 993.5,-545 987.5,-539 987.5,-533 987.5,-533 987.5,-521 987.5,-521 987.5,-515 993.5,-509 999.5,-509 999.5,-509 1043.5,-509 1043.5,-509 1049.5,-509 1055.5,-515 1055.5,-521 1055.5,-521 1055.5,-533 1055.5,-533 1055.5,-539 1049.5,-545 1043.5,-545"/>
<text text-anchor="middle" x="1021.5" y="-524.5" font-family="sans" font-size="10.00">bam_stats</text>
</g>
<!-- 23&#45;&gt;33 -->
<g id="edge46" class="edge"><title>23&#45;&gt;33</title>
<path fill="none" stroke="grey" stroke-width="2" d="M1021.5,-580.697C1021.5,-572.983 1021.5,-563.712 1021.5,-555.112"/>
<polygon fill="grey" stroke="grey" stroke-width="2" points="1025,-555.104 1021.5,-545.104 1018,-555.104 1025,-555.104"/>
</g>
<!-- 24 -->
<g id="node25" class="node"><title>24</title>
<path fill="none" stroke="#88d856" stroke-width="2" d="M1992.5,-324C1992.5,-324 1850.5,-324 1850.5,-324 1844.5,-324 1838.5,-318 1838.5,-312 1838.5,-312 1838.5,-300 1838.5,-300 1838.5,-294 1844.5,-288 1850.5,-288 1850.5,-288 1992.5,-288 1992.5,-288 1998.5,-288 2004.5,-294 2004.5,-300 2004.5,-300 2004.5,-312 2004.5,-312 2004.5,-318 1998.5,-324 1992.5,-324"/>
<text text-anchor="middle" x="1921.5" y="-309" font-family="sans" font-size="10.00">asm_gff_stats</text>
<text text-anchor="middle" x="1921.5" y="-298" font-family="sans" font-size="10.00">asm_run: class&#45;0&#45;star&#45;Ath&#45;1.gtf</text>
</g>
<!-- 24&#45;&gt;49 -->
<g id="edge78" class="edge"><title>24&#45;&gt;49</title>
<path fill="none" stroke="grey" stroke-width="2" d="M1838.32,-289.213C1835.35,-288.782 1832.4,-288.375 1829.5,-288 1573.87,-254.925 1263.51,-240.544 1157.81,-236.366"/>
<polygon fill="grey" stroke="grey" stroke-width="2" points="1157.78,-232.863 1147.65,-235.972 1157.51,-239.858 1157.78,-232.863"/>
</g>
<!-- 25&#45;&gt;49 -->
<g id="edge69" class="edge"><title>25&#45;&gt;49</title>
<path fill="none" stroke="grey" stroke-width="2" d="M2124.81,-289.115C2121.67,-288.714 2118.56,-288.341 2115.5,-288 1924.54,-266.754 1315.76,-242.471 1158.08,-236.421"/>
<polygon fill="grey" stroke="grey" stroke-width="2" points="1158.06,-232.918 1147.94,-236.033 1157.8,-239.913 1158.06,-232.918"/>
</g>
<!-- 26&#45;&gt;63 -->
<g id="edge96" class="edge"><title>26&#45;&gt;63</title>
<path fill="none" stroke="grey" stroke-width="2" d="M1356.5,-580.697C1356.5,-572.983 1356.5,-563.712 1356.5,-555.112"/>
<polygon fill="grey" stroke="grey" stroke-width="2" points="1360,-555.104 1356.5,-545.104 1353,-555.104 1360,-555.104"/>
</g>
<!-- 32 -->
<g id="node33" class="node"><title>32</title>
<path fill="none" stroke="#88d856" stroke-width="2" d="M575.5,-324C575.5,-324 405.5,-324 405.5,-324 399.5,-324 393.5,-318 393.5,-312 393.5,-312 393.5,-300 393.5,-300 393.5,-294 399.5,-288 405.5,-288 405.5,-288 575.5,-288 575.5,-288 581.5,-288 587.5,-294 587.5,-300 587.5,-300 587.5,-312 587.5,-312 587.5,-318 581.5,-324 575.5,-324"/>
<text text-anchor="middle" x="490.5" y="-309" font-family="sans" font-size="10.00">asm_gff_stats</text>
<text text-anchor="middle" x="490.5" y="-298" font-family="sans" font-size="10.00">asm_run: stringtie&#45;0&#45;tophat&#45;Ath&#45;1.gtf</text>
</g>
<!-- 27&#45;&gt;32 -->
<g id="edge45" class="edge"><title>27&#45;&gt;32</title>
<path fill="none" stroke="grey" stroke-width="2" d="M725.274,-362.452C722.312,-361.603 719.373,-360.78 716.5,-360 671.494,-347.774 620.996,-335.771 579.168,-326.288"/>
<polygon fill="grey" stroke="grey" stroke-width="2" points="579.808,-322.844 569.282,-324.057 578.267,-329.672 579.808,-322.844"/>
</g>
<!-- 28&#45;&gt;49 -->
<g id="edge75" class="edge"><title>28&#45;&gt;49</title>
<path fill="none" stroke="grey" stroke-width="2" d="M171.134,-289.185C174.292,-288.758 177.421,-288.361 180.5,-288 529.904,-247.039 956.217,-237.49 1083.15,-235.488"/>
<polygon fill="grey" stroke="grey" stroke-width="2" points="1083.53,-238.983 1093.48,-235.331 1083.43,-231.983 1083.53,-238.983"/>
</g>
<!-- 29&#45;&gt;49 -->
<g id="edge72" class="edge"><title>29&#45;&gt;49</title>
<path fill="none" stroke="grey" stroke-width="2" d="M1258.73,-287.876C1227.46,-275.912 1186.22,-260.139 1156.95,-248.942"/>
<polygon fill="grey" stroke="grey" stroke-width="2" points="1158.1,-245.636 1147.51,-245.333 1155.6,-252.174 1158.1,-245.636"/>
</g>
<!-- 30 -->
<g id="node31" class="node"><title>30</title>
<path fill="none" stroke="#d8c356" stroke-width="2" d="M1250,-617C1250,-617 1205,-617 1205,-617 1199,-617 1193,-611 1193,-605 1193,-605 1193,-593 1193,-593 1193,-587 1199,-581 1205,-581 1205,-581 1250,-581 1250,-581 1256,-581 1262,-587 1262,-593 1262,-593 1262,-605 1262,-605 1262,-611 1256,-617 1250,-617"/>
<text text-anchor="middle" x="1227.5" y="-596.5" font-family="sans" font-size="10.00">bam_index</text>
</g>
<!-- 30&#45;&gt;6 -->
<g id="edge8" class="edge"><title>30&#45;&gt;6</title>
<path fill="none" stroke="grey" stroke-width="2" d="M1227.5,-580.697C1227.5,-572.983 1227.5,-563.712 1227.5,-555.112"/>
<polygon fill="grey" stroke="grey" stroke-width="2" points="1231,-555.104 1227.5,-545.104 1224,-555.104 1231,-555.104"/>
</g>
<!-- 31 -->
<g id="node32" class="node"><title>31</title>
<path fill="none" stroke="#88d856" stroke-width="2" d="M1183,-324C1183,-324 1028,-324 1028,-324 1022,-324 1016,-318 1016,-312 1016,-312 1016,-300 1016,-300 1016,-294 1022,-288 1028,-288 1028,-288 1183,-288 1183,-288 1189,-288 1195,-294 1195,-300 1195,-300 1195,-312 1195,-312 1195,-318 1189,-324 1183,-324"/>
<text text-anchor="middle" x="1105.5" y="-309" font-family="sans" font-size="10.00">asm_gff_stats</text>
<text text-anchor="middle" x="1105.5" y="-298" font-family="sans" font-size="10.00">asm_run: class&#45;0&#45;tophat&#45;Ath&#45;0.gtf</text>
</g>
<!-- 31&#45;&gt;49 -->
<g id="edge73" class="edge"><title>31&#45;&gt;49</title>
<path fill="none" stroke="grey" stroke-width="2" d="M1109.21,-287.697C1110.86,-279.983 1112.85,-270.712 1114.69,-262.112"/>
<polygon fill="grey" stroke="grey" stroke-width="2" points="1118.16,-262.616 1116.83,-252.104 1111.32,-261.149 1118.16,-262.616"/>
</g>
<!-- 32&#45;&gt;49 -->
<g id="edge74" class="edge"><title>32&#45;&gt;49</title>
<path fill="none" stroke="grey" stroke-width="2" d="M587.513,-289.21C590.542,-288.791 593.543,-288.386 596.5,-288 778.622,-264.206 997.557,-245.121 1083.4,-238.005"/>
<polygon fill="grey" stroke="grey" stroke-width="2" points="1083.76,-241.487 1093.44,-237.177 1083.18,-234.511 1083.76,-241.487"/>
</g>
<!-- 33&#45;&gt;13 -->
<g id="edge21" class="edge"><title>33&#45;&gt;13</title>
<path fill="none" stroke="grey" stroke-width="2" d="M1055.78,-518.772C1118.37,-505.576 1250.69,-477.677 1315.76,-463.958"/>
<polygon fill="grey" stroke="grey" stroke-width="2" points="1316.54,-467.37 1325.6,-461.882 1315.09,-460.521 1316.54,-467.37"/>
</g>
<!-- 44 -->
<g id="node45" class="node"><title>44</title>
<path fill="none" stroke="#56c9d8" stroke-width="2" d="M1900.5,-252C1900.5,-252 1838.5,-252 1838.5,-252 1832.5,-252 1826.5,-246 1826.5,-240 1826.5,-240 1826.5,-228 1826.5,-228 1826.5,-222 1832.5,-216 1838.5,-216 1838.5,-216 1900.5,-216 1900.5,-216 1906.5,-216 1912.5,-222 1912.5,-228 1912.5,-228 1912.5,-240 1912.5,-240 1912.5,-246 1906.5,-252 1900.5,-252"/>
<text text-anchor="middle" x="1869.5" y="-231.5" font-family="sans" font-size="10.00">portcullis_filter</text>
</g>
<!-- 34&#45;&gt;44 -->
<g id="edge59" class="edge"><title>34&#45;&gt;44</title>
<path fill="none" stroke="grey" stroke-width="2" d="M1636.71,-290.607C1639.68,-289.695 1642.63,-288.817 1645.5,-288 1703.39,-271.538 1770.7,-256.102 1816.3,-246.182"/>
<polygon fill="grey" stroke="grey" stroke-width="2" points="1817.23,-249.562 1826.26,-244.028 1815.75,-242.72 1817.23,-249.562"/>
</g>
<!-- 35 -->
<g id="node36" class="node"><title>35</title>
<path fill="none" stroke="#d8d356" stroke-width="2" d="M1496,-108C1496,-108 1449,-108 1449,-108 1443,-108 1437,-102 1437,-96 1437,-96 1437,-84 1437,-84 1437,-78 1443,-72 1449,-72 1449,-72 1496,-72 1496,-72 1502,-72 1508,-78 1508,-84 1508,-84 1508,-96 1508,-96 1508,-102 1502,-108 1496,-108"/>
<text text-anchor="middle" x="1472.5" y="-87.5" font-family="sans" font-size="10.00">mikado_cfg</text>
</g>
<!-- 35&#45;&gt;10 -->
<g id="edge12" class="edge"><title>35&#45;&gt;10</title>
<path fill="none" stroke="grey" stroke-width="2" d="M1452.72,-71.6966C1442.75,-62.9655 1430.49,-52.2405 1419.64,-42.7503"/>
<polygon fill="grey" stroke="grey" stroke-width="2" points="1421.88,-40.0554 1412.05,-36.1043 1417.27,-45.3234 1421.88,-40.0554"/>
</g>
<!-- 36 -->
<g id="node37" class="node"><title>36</title>
<path fill="none" stroke="#56c9d8" stroke-width="2" d="M1705.5,-252C1705.5,-252 1643.5,-252 1643.5,-252 1637.5,-252 1631.5,-246 1631.5,-240 1631.5,-240 1631.5,-228 1631.5,-228 1631.5,-222 1637.5,-216 1643.5,-216 1643.5,-216 1705.5,-216 1705.5,-216 1711.5,-216 1717.5,-222 1717.5,-228 1717.5,-228 1717.5,-240 1717.5,-240 1717.5,-246 1711.5,-252 1705.5,-252"/>
<text text-anchor="middle" x="1674.5" y="-231.5" font-family="sans" font-size="10.00">portcullis_filter</text>
</g>
<!-- 36&#45;&gt;45 -->
<g id="edge62" class="edge"><title>36&#45;&gt;45</title>
<path fill="none" stroke="grey" stroke-width="2" d="M1717.52,-220.807C1758,-209.336 1818.91,-192.075 1863.63,-179.401"/>
<polygon fill="grey" stroke="grey" stroke-width="2" points="1864.82,-182.702 1873.48,-176.608 1862.91,-175.968 1864.82,-182.702"/>
</g>
<!-- 37 -->
<g id="node38" class="node"><title>37</title>
<path fill="none" stroke="#56d87b" stroke-width="2" d="M1648.5,-838C1648.5,-838 1578.5,-838 1578.5,-838 1572.5,-838 1566.5,-832 1566.5,-826 1566.5,-826 1566.5,-814 1566.5,-814 1566.5,-808 1572.5,-802 1578.5,-802 1578.5,-802 1648.5,-802 1648.5,-802 1654.5,-802 1660.5,-808 1660.5,-814 1660.5,-814 1660.5,-826 1660.5,-826 1660.5,-832 1654.5,-838 1648.5,-838"/>
<text text-anchor="middle" x="1613.5" y="-817.5" font-family="sans" font-size="10.00">align_star_index</text>
</g>
<!-- 37&#45;&gt;18 -->
<g id="edge28" class="edge"><title>37&#45;&gt;18</title>
<path fill="none" stroke="grey" stroke-width="2" d="M1585.06,-801.819C1570.09,-792.774 1551.46,-781.515 1534.91,-771.52"/>
<polygon fill="grey" stroke="grey" stroke-width="2" points="1536.34,-768.295 1525.97,-766.12 1532.72,-774.286 1536.34,-768.295"/>
</g>
<!-- 64 -->
<g id="node65" class="node"><title>64</title>
<path fill="none" stroke="#afd856" stroke-width="2" d="M1758.5,-766C1758.5,-766 1708.5,-766 1708.5,-766 1702.5,-766 1696.5,-760 1696.5,-754 1696.5,-754 1696.5,-737 1696.5,-737 1696.5,-731 1702.5,-725 1708.5,-725 1708.5,-725 1758.5,-725 1758.5,-725 1764.5,-725 1770.5,-731 1770.5,-737 1770.5,-737 1770.5,-754 1770.5,-754 1770.5,-760 1764.5,-766 1758.5,-766"/>
<text text-anchor="middle" x="1733.5" y="-754" font-family="sans" font-size="10.00">align_star</text>
<text text-anchor="middle" x="1733.5" y="-743" font-family="sans" font-size="10.00">run: 1</text>
<text text-anchor="middle" x="1733.5" y="-732" font-family="sans" font-size="10.00">sample: Ath</text>
</g>
<!-- 37&#45;&gt;64 -->
<g id="edge97" class="edge"><title>37&#45;&gt;64</title>
<path fill="none" stroke="grey" stroke-width="2" d="M1641.94,-801.819C1656.91,-792.774 1675.54,-781.515 1692.09,-771.52"/>
<polygon fill="grey" stroke="grey" stroke-width="2" points="1694.28,-774.286 1701.03,-766.12 1690.66,-768.295 1694.28,-774.286"/>
</g>
<!-- 39 -->
<g id="node40" class="node"><title>39</title>
<path fill="none" stroke="#56b9d8" stroke-width="2" d="M1178.5,-689C1178.5,-689 1074.5,-689 1074.5,-689 1068.5,-689 1062.5,-683 1062.5,-677 1062.5,-677 1062.5,-665 1062.5,-665 1062.5,-659 1068.5,-653 1074.5,-653 1074.5,-653 1178.5,-653 1178.5,-653 1184.5,-653 1190.5,-659 1190.5,-665 1190.5,-665 1190.5,-677 1190.5,-677 1190.5,-683 1184.5,-689 1178.5,-689"/>
<text text-anchor="middle" x="1126.5" y="-674" font-family="sans" font-size="10.00">bam_sort</text>
<text text-anchor="middle" x="1126.5" y="-663" font-family="sans" font-size="10.00">align_run: tophat&#45;Ath&#45;0</text>
</g>
<!-- 38&#45;&gt;39 -->
<g id="edge53" class="edge"><title>38&#45;&gt;39</title>
<path fill="none" stroke="grey" stroke-width="2" d="M1099.61,-724.689C1103.76,-716.561 1108.62,-707.033 1113.06,-698.332"/>
<polygon fill="grey" stroke="grey" stroke-width="2" points="1116.23,-699.818 1117.66,-689.319 1110,-696.636 1116.23,-699.818"/>
</g>
<!-- 39&#45;&gt;1 -->
<g id="edge2" class="edge"><title>39&#45;&gt;1</title>
<path fill="none" stroke="grey" stroke-width="2" d="M1120.84,-652.817C1105.13,-605.113 1060.85,-470.632 1041.15,-410.816"/>
<polygon fill="grey" stroke="grey" stroke-width="2" points="1044.44,-409.62 1037.99,-401.216 1037.8,-411.809 1044.44,-409.62"/>
</g>
<!-- 39&#45;&gt;6 -->
<g id="edge7" class="edge"><title>39&#45;&gt;6</title>
<path fill="none" stroke="grey" stroke-width="2" d="M1136.61,-652.856C1147.57,-634.624 1165.85,-605.145 1183.5,-581 1190.35,-571.635 1198.32,-561.758 1205.59,-553.101"/>
<polygon fill="grey" stroke="grey" stroke-width="2" points="1208.47,-555.118 1212.28,-545.232 1203.13,-550.585 1208.47,-555.118"/>
</g>
<!-- 39&#45;&gt;30 -->
<g id="edge43" class="edge"><title>39&#45;&gt;30</title>
<path fill="none" stroke="grey" stroke-width="2" d="M1151.21,-652.876C1164.17,-643.893 1180.23,-632.763 1194.27,-623.034"/>
<polygon fill="grey" stroke="grey" stroke-width="2" points="1196.47,-625.763 1202.7,-617.19 1192.48,-620.009 1196.47,-625.763"/>
</g>
<!-- 39&#45;&gt;46 -->
<g id="edge65" class="edge"><title>39&#45;&gt;46</title>
<path fill="none" stroke="grey" stroke-width="2" d="M1128.35,-652.817C1133.46,-605.212 1147.86,-471.187 1154.31,-411.188"/>
<polygon fill="grey" stroke="grey" stroke-width="2" points="1157.79,-411.533 1155.38,-401.216 1150.83,-410.785 1157.79,-411.533"/>
</g>
<!-- 40 -->
<g id="node41" class="node"><title>40</title>
<path fill="none" stroke="#68d856" stroke-width="2" d="M1522.5,-324C1522.5,-324 1462.5,-324 1462.5,-324 1456.5,-324 1450.5,-318 1450.5,-312 1450.5,-312 1450.5,-300 1450.5,-300 1450.5,-294 1456.5,-288 1462.5,-288 1462.5,-288 1522.5,-288 1522.5,-288 1528.5,-288 1534.5,-294 1534.5,-300 1534.5,-300 1534.5,-312 1534.5,-312 1534.5,-318 1528.5,-324 1522.5,-324"/>
<text text-anchor="middle" x="1492.5" y="-303.5" font-family="sans" font-size="10.00">portcullis_junc</text>
</g>
<!-- 40&#45;&gt;36 -->
<g id="edge51" class="edge"><title>40&#45;&gt;36</title>
<path fill="none" stroke="grey" stroke-width="2" d="M1534.71,-288.765C1560.64,-278.793 1594.06,-265.937 1621.73,-255.296"/>
<polygon fill="grey" stroke="grey" stroke-width="2" points="1623.18,-258.49 1631.25,-251.633 1620.66,-251.957 1623.18,-258.49"/>
</g>
<!-- 41&#45;&gt;13 -->
<g id="edge19" class="edge"><title>41&#45;&gt;13</title>
<path fill="none" stroke="grey" stroke-width="2" d="M1711.4,-519.91C1638.37,-506.869 1467.33,-476.326 1391.2,-462.732"/>
<polygon fill="grey" stroke="grey" stroke-width="2" points="1391.56,-459.242 1381.1,-460.929 1390.33,-466.133 1391.56,-459.242"/>
</g>
<!-- 42 -->
<g id="node43" class="node"><title>42</title>
<path fill="none" stroke="#56b9d8" stroke-width="2" d="M1010.5,-689C1010.5,-689 906.5,-689 906.5,-689 900.5,-689 894.5,-683 894.5,-677 894.5,-677 894.5,-665 894.5,-665 894.5,-659 900.5,-653 906.5,-653 906.5,-653 1010.5,-653 1010.5,-653 1016.5,-653 1022.5,-659 1022.5,-665 1022.5,-665 1022.5,-677 1022.5,-677 1022.5,-683 1016.5,-689 1010.5,-689"/>
<text text-anchor="middle" x="958.5" y="-674" font-family="sans" font-size="10.00">bam_sort</text>
<text text-anchor="middle" x="958.5" y="-663" font-family="sans" font-size="10.00">align_run: tophat&#45;Ath&#45;1</text>
</g>
<!-- 42&#45;&gt;22 -->
<g id="edge34" class="edge"><title>42&#45;&gt;22</title>
<path fill="none" stroke="grey" stroke-width="2" d="M955.343,-652.817C946.598,-605.212 921.976,-471.187 910.954,-411.188"/>
<polygon fill="grey" stroke="grey" stroke-width="2" points="914.371,-410.419 909.122,-401.216 907.487,-411.684 914.371,-410.419"/>
</g>
<!-- 42&#45;&gt;23 -->
<g id="edge35" class="edge"><title>42&#45;&gt;23</title>
<path fill="none" stroke="grey" stroke-width="2" d="M974.073,-652.697C981.702,-644.22 991.023,-633.864 999.376,-624.583"/>
<polygon fill="grey" stroke="grey" stroke-width="2" points="1002.02,-626.879 1006.11,-617.104 996.815,-622.196 1002.02,-626.879"/>
</g>
<!-- 42&#45;&gt;27 -->
<g id="edge40" class="edge"><title>42&#45;&gt;27</title>
<path fill="none" stroke="grey" stroke-width="2" d="M947.839,-652.817C918.119,-604.916 834.111,-469.519 797.232,-410.079"/>
<polygon fill="grey" stroke="grey" stroke-width="2" points="799.979,-407.868 791.733,-401.216 794.031,-411.559 799.979,-407.868"/>
</g>
<!-- 42&#45;&gt;33 -->
<g id="edge47" class="edge"><title>42&#45;&gt;33</title>
<path fill="none" stroke="grey" stroke-width="2" d="M959.717,-652.811C961.575,-634.282 966.192,-604.314 977.5,-581 982.404,-570.889 989.637,-561.06 996.827,-552.668"/>
<polygon fill="grey" stroke="grey" stroke-width="2" points="999.548,-554.876 1003.63,-545.1 994.342,-550.196 999.548,-554.876"/>
</g>
<!-- 43 -->
<g id="node44" class="node"><title>43</title>
<path fill="none" stroke="#68d856" stroke-width="2" d="M2396.5,-324C2396.5,-324 2336.5,-324 2336.5,-324 2330.5,-324 2324.5,-318 2324.5,-312 2324.5,-312 2324.5,-300 2324.5,-300 2324.5,-294 2330.5,-288 2336.5,-288 2336.5,-288 2396.5,-288 2396.5,-288 2402.5,-288 2408.5,-294 2408.5,-300 2408.5,-300 2408.5,-312 2408.5,-312 2408.5,-318 2402.5,-324 2396.5,-324"/>
<text text-anchor="middle" x="2366.5" y="-303.5" font-family="sans" font-size="10.00">portcullis_junc</text>
</g>
<!-- 43&#45;&gt;2 -->
<g id="edge4" class="edge"><title>43&#45;&gt;2</title>
<path fill="none" stroke="grey" stroke-width="2" d="M2336.41,-287.876C2320.18,-278.639 2299.96,-267.131 2282.53,-257.212"/>
<polygon fill="grey" stroke="grey" stroke-width="2" points="2284.13,-254.094 2273.7,-252.19 2280.66,-260.178 2284.13,-254.094"/>
</g>
<!-- 44&#45;&gt;45 -->
<g id="edge64" class="edge"><title>44&#45;&gt;45</title>
<path fill="none" stroke="grey" stroke-width="2" d="M1882.35,-215.697C1888.53,-207.389 1896.04,-197.277 1902.82,-188.141"/>
<polygon fill="grey" stroke="grey" stroke-width="2" points="1905.64,-190.219 1908.79,-180.104 1900.02,-186.045 1905.64,-190.219"/>
</g>
<!-- 45&#45;&gt;35 -->
<g id="edge49" class="edge"><title>45&#45;&gt;35</title>
<path fill="none" stroke="grey" stroke-width="2" d="M1873.45,-153.509C1786.27,-139.918 1603.21,-111.378 1517.97,-98.0888"/>
<polygon fill="grey" stroke="grey" stroke-width="2" points="1518.49,-94.6281 1508.07,-96.5458 1517.41,-101.545 1518.49,-94.6281"/>
</g>
<!-- 46&#45;&gt;31 -->
<g id="edge44" class="edge"><title>46&#45;&gt;31</title>
<path fill="none" stroke="grey" stroke-width="2" d="M1143.29,-359.689C1137.27,-351.301 1130.19,-341.424 1123.79,-332.501"/>
<polygon fill="grey" stroke="grey" stroke-width="2" points="1126.59,-330.406 1117.92,-324.319 1120.91,-334.485 1126.59,-330.406"/>
</g>
<!-- 47&#45;&gt;49 -->
<g id="edge77" class="edge"><title>47&#45;&gt;49</title>
<path fill="none" stroke="grey" stroke-width="2" d="M785.073,-289.582C788.254,-289.046 791.404,-288.517 794.5,-288 899.071,-270.522 1022.65,-250.643 1083.23,-240.949"/>
<polygon fill="grey" stroke="grey" stroke-width="2" points="1084.12,-244.351 1093.44,-239.316 1083.01,-237.439 1084.12,-244.351"/>
</g>
<!-- 50 -->
<g id="node51" class="node"><title>50</title>
<path fill="none" stroke="#56b9d8" stroke-width="2" d="M724,-689C724,-689 629,-689 629,-689 623,-689 617,-683 617,-677 617,-677 617,-665 617,-665 617,-659 623,-653 629,-653 629,-653 724,-653 724,-653 730,-653 736,-659 736,-665 736,-665 736,-677 736,-677 736,-683 730,-689 724,-689"/>
<text text-anchor="middle" x="676.5" y="-674" font-family="sans" font-size="10.00">bam_sort</text>
<text text-anchor="middle" x="676.5" y="-663" font-family="sans" font-size="10.00">align_run: hisat&#45;Ath&#45;0</text>
</g>
<!-- 48&#45;&gt;50 -->
<g id="edge79" class="edge"><title>48&#45;&gt;50</title>
<path fill="none" stroke="grey" stroke-width="2" d="M676.5,-724.689C676.5,-716.907 676.5,-707.842 676.5,-699.447"/>
<polygon fill="grey" stroke="grey" stroke-width="2" points="680,-699.319 676.5,-689.319 673,-699.32 680,-699.319"/>
</g>
<!-- 49&#45;&gt;4 -->
<g id="edge6" class="edge"><title>49&#45;&gt;4</title>
<path fill="none" stroke="grey" stroke-width="2" d="M1129.43,-215.871C1142.2,-191.35 1165.82,-146.032 1180.82,-117.259"/>
<polygon fill="grey" stroke="grey" stroke-width="2" points="1184.02,-118.675 1185.54,-108.189 1177.82,-115.44 1184.02,-118.675"/>
</g>
<!-- 49&#45;&gt;35 -->
<g id="edge50" class="edge"><title>49&#45;&gt;35</title>
<path fill="none" stroke="grey" stroke-width="2" d="M1147.6,-232.502C1218.95,-230.617 1409.55,-221.704 1453.5,-180 1470.02,-164.329 1473.96,-138.1 1474.25,-118.165"/>
<polygon fill="grey" stroke="grey" stroke-width="2" points="1477.75,-118.073 1474.1,-108.125 1470.75,-118.174 1477.75,-118.073"/>
</g>
<!-- 50&#45;&gt;15 -->
<g id="edge24" class="edge"><title>50&#45;&gt;15</title>
<path fill="none" stroke="grey" stroke-width="2" d="M668.34,-652.817C645.64,-605.015 581.562,-470.076 553.246,-410.447"/>
<polygon fill="grey" stroke="grey" stroke-width="2" points="556.314,-408.748 548.863,-401.216 549.991,-411.751 556.314,-408.748"/>
</g>
<!-- 50&#45;&gt;17 -->
<g id="edge26" class="edge"><title>50&#45;&gt;17</title>
<path fill="none" stroke="grey" stroke-width="2" d="M682.132,-652.89C688.584,-634.428 700.14,-604.516 714.5,-581 720.451,-571.254 728.084,-561.405 735.316,-552.886"/>
<polygon fill="grey" stroke="grey" stroke-width="2" points="738.113,-555.005 742.06,-545.172 732.843,-550.397 738.113,-555.005"/>
</g>
<!-- 50&#45;&gt;59 -->
<g id="edge90" class="edge"><title>50&#45;&gt;59</title>
<path fill="none" stroke="grey" stroke-width="2" d="M675.368,-652.817C672.24,-605.311 663.443,-471.742 659.48,-411.562"/>
<polygon fill="grey" stroke="grey" stroke-width="2" points="662.948,-410.965 658.798,-401.216 655.963,-411.425 662.948,-410.965"/>
</g>
<!-- 60 -->
<g id="node61" class="node"><title>60</title>
<path fill="none" stroke="#d8c356" stroke-width="2" d="M781,-617C781,-617 736,-617 736,-617 730,-617 724,-611 724,-605 724,-605 724,-593 724,-593 724,-587 730,-581 736,-581 736,-581 781,-581 781,-581 787,-581 793,-587 793,-593 793,-593 793,-605 793,-605 793,-611 787,-617 781,-617"/>
<text text-anchor="middle" x="758.5" y="-596.5" font-family="sans" font-size="10.00">bam_index</text>
</g>
<!-- 50&#45;&gt;60 -->
<g id="edge91" class="edge"><title>50&#45;&gt;60</title>
<path fill="none" stroke="grey" stroke-width="2" d="M696.77,-652.697C706.998,-643.965 719.561,-633.24 730.678,-623.75"/>
<polygon fill="grey" stroke="grey" stroke-width="2" points="733.13,-626.259 738.463,-617.104 728.585,-620.935 733.13,-626.259"/>
</g>
<!-- 51&#45;&gt;40 -->
<g id="edge54" class="edge"><title>51&#45;&gt;40</title>
<path fill="none" stroke="grey" stroke-width="2" d="M1456.64,-362.319C1462.37,-353.47 1469.48,-342.503 1475.86,-332.673"/>
<polygon fill="grey" stroke="grey" stroke-width="2" points="1478.94,-334.353 1481.44,-324.058 1473.06,-330.545 1478.94,-334.353"/>
</g>
<!-- 52&#45;&gt;42 -->
<g id="edge57" class="edge"><title>52&#45;&gt;42</title>
<path fill="none" stroke="grey" stroke-width="2" d="M971.581,-724.689C969.628,-716.82 967.349,-707.64 965.245,-699.168"/>
<polygon fill="grey" stroke="grey" stroke-width="2" points="968.607,-698.181 962.8,-689.319 961.813,-699.868 968.607,-698.181"/>
</g>
<!-- 57 -->
<g id="node58" class="node"><title>57</title>
<path fill="none" stroke="#88d856" stroke-width="2" d="M1808.5,-324C1808.5,-324 1666.5,-324 1666.5,-324 1660.5,-324 1654.5,-318 1654.5,-312 1654.5,-312 1654.5,-300 1654.5,-300 1654.5,-294 1660.5,-288 1666.5,-288 1666.5,-288 1808.5,-288 1808.5,-288 1814.5,-288 1820.5,-294 1820.5,-300 1820.5,-300 1820.5,-312 1820.5,-312 1820.5,-318 1814.5,-324 1808.5,-324"/>
<text text-anchor="middle" x="1737.5" y="-309" font-family="sans" font-size="10.00">asm_gff_stats</text>
<text text-anchor="middle" x="1737.5" y="-298" font-family="sans" font-size="10.00">asm_run: class&#45;0&#45;star&#45;Ath&#45;0.gtf</text>
</g>
<!-- 53&#45;&gt;57 -->
<g id="edge87" class="edge"><title>53&#45;&gt;57</title>
<path fill="none" stroke="grey" stroke-width="2" d="M1845.45,-359.88C1825.7,-350.207 1801.84,-338.516 1781.57,-328.59"/>
<polygon fill="grey" stroke="grey" stroke-width="2" points="1783.06,-325.423 1772.54,-324.166 1779.98,-331.709 1783.06,-325.423"/>
</g>
<!-- 54&#45;&gt;45 -->
<g id="edge63" class="edge"><title>54&#45;&gt;45</title>
<path fill="none" stroke="grey" stroke-width="2" d="M1994.52,-215.697C1982.19,-206.796 1966.98,-195.823 1953.65,-186.199"/>
<polygon fill="grey" stroke="grey" stroke-width="2" points="1955.36,-183.118 1945.2,-180.104 1951.26,-188.794 1955.36,-183.118"/>
</g>
<!-- 55&#45;&gt;10 -->
<g id="edge14" class="edge"><title>55&#45;&gt;10</title>
<path fill="none" stroke="grey" stroke-width="2" d="M1392.5,-143.871C1392.5,-119.67 1392.5,-75.2108 1392.5,-46.3932"/>
<polygon fill="grey" stroke="grey" stroke-width="2" points="1396,-46.1892 1392.5,-36.1893 1389,-46.1893 1396,-46.1892"/>
</g>
<!-- 56&#45;&gt;43 -->
<g id="edge58" class="edge"><title>56&#45;&gt;43</title>
<path fill="none" stroke="grey" stroke-width="2" d="M2077.52,-362.467C2081.23,-361.594 2084.91,-360.764 2088.5,-360 2187.99,-338.847 2215.63,-347.877 2314.5,-324 2314.6,-323.976 2314.7,-323.951 2314.8,-323.927"/>
<polygon fill="grey" stroke="grey" stroke-width="2" points="2315.61,-327.335 2324.37,-321.389 2313.81,-320.569 2315.61,-327.335"/>
</g>
<!-- 57&#45;&gt;49 -->
<g id="edge76" class="edge"><title>57&#45;&gt;49</title>
<path fill="none" stroke="grey" stroke-width="2" d="M1654.31,-289.311C1651.34,-288.852 1648.39,-288.413 1645.5,-288 1463.33,-262.018 1243.81,-244.179 1157.71,-237.7"/>
<polygon fill="grey" stroke="grey" stroke-width="2" points="1157.88,-234.203 1147.64,-236.949 1157.36,-241.184 1157.88,-234.203"/>
</g>
<!-- 58&#45;&gt;3 -->
<g id="edge5" class="edge"><title>58&#45;&gt;3</title>
<path fill="none" stroke="grey" stroke-width="2" d="M2453.42,-287.697C2446.11,-279.305 2437.19,-269.07 2429.16,-259.861"/>
<polygon fill="grey" stroke="grey" stroke-width="2" points="2431.61,-257.344 2422.41,-252.104 2426.34,-261.943 2431.61,-257.344"/>
</g>
<!-- 59&#45;&gt;12 -->
<g id="edge16" class="edge"><title>59&#45;&gt;12</title>
<path fill="none" stroke="grey" stroke-width="2" d="M607.44,-362.376C604.429,-361.526 601.432,-360.726 598.5,-360 595.845,-359.343 477.069,-339.47 385.924,-324.252"/>
<polygon fill="grey" stroke="grey" stroke-width="2" points="386.237,-320.756 375.798,-322.561 385.085,-327.66 386.237,-320.756"/>
</g>
<!-- 60&#45;&gt;17 -->
<g id="edge27" class="edge"><title>60&#45;&gt;17</title>
<path fill="none" stroke="grey" stroke-width="2" d="M758.5,-580.697C758.5,-572.983 758.5,-563.712 758.5,-555.112"/>
<polygon fill="grey" stroke="grey" stroke-width="2" points="762,-555.104 758.5,-545.104 755,-555.104 762,-555.104"/>
</g>
<!-- 61&#45;&gt;41 -->
<g id="edge56" class="edge"><title>61&#45;&gt;41</title>
<path fill="none" stroke="grey" stroke-width="2" d="M1745.5,-580.697C1745.5,-572.983 1745.5,-563.712 1745.5,-555.112"/>
<polygon fill="grey" stroke="grey" stroke-width="2" points="1749,-555.104 1745.5,-545.104 1742,-555.104 1749,-555.104"/>
</g>
<!-- 62&#45;&gt;24 -->
<g id="edge36" class="edge"><title>62&#45;&gt;24</title>
<path fill="none" stroke="grey" stroke-width="2" d="M2097.94,-363.141C2094.75,-362.07 2091.58,-361.015 2088.5,-360 2054.87,-348.914 2017.3,-336.951 1986.32,-327.202"/>
<polygon fill="grey" stroke="grey" stroke-width="2" points="1987.1,-323.777 1976.51,-324.118 1985,-330.455 1987.1,-323.777"/>
</g>
<!-- 63&#45;&gt;13 -->
<g id="edge20" class="edge"><title>63&#45;&gt;13</title>
<path fill="none" stroke="grey" stroke-width="2" d="M1355.76,-508.697C1355.43,-500.983 1355.03,-491.712 1354.66,-483.112"/>
<polygon fill="grey" stroke="grey" stroke-width="2" points="1358.16,-482.945 1354.23,-473.104 1351.16,-483.245 1358.16,-482.945"/>
</g>
<!-- 64&#45;&gt;11 -->
<g id="edge15" class="edge"><title>64&#45;&gt;11</title>
<path fill="none" stroke="grey" stroke-width="2" d="M1753.99,-724.689C1763.03,-715.955 1773.73,-705.607 1783.26,-696.403"/>
<polygon fill="grey" stroke="grey" stroke-width="2" points="1785.83,-698.786 1790.58,-689.319 1780.96,-693.753 1785.83,-698.786"/>
</g>
</g>
</svg>
