<?xml version="1.0" encoding="UTF-8" standalone="no"?>
<!DOCTYPE svg PUBLIC "-//W3C//DTD SVG 1.1//EN"
 "http://www.w3.org/Graphics/SVG/1.1/DTD/svg11.dtd">
<!-- Generated by graphviz version 2.38.0 (20140413.2041)
 -->
<!-- Title: snakemake_dag Pages: 1 -->
<svg width="540pt" height="846pt"
 viewBox="0.00 0.00 539.50 846.00" xmlns="http://www.w3.org/2000/svg" xmlns:xlink="http://www.w3.org/1999/xlink">
<g id="graph0" class="graph" transform="scale(1 1) rotate(0) translate(4 842)">
<title>snakemake_dag</title>
<polygon fill="white" stroke="none" points="-4,4 -4,-842 535.5,-842 535.5,4 -4,4"/>
<!-- 0 -->
<g id="node1" class="node"><title>0</title>
<path fill="none" stroke="#56d87b" stroke-width="2" d="M310,-766C310,-766 260,-766 260,-766 254,-766 248,-760 248,-754 248,-754 248,-737 248,-737 248,-731 254,-725 260,-725 260,-725 310,-725 310,-725 316,-725 322,-731 322,-737 322,-737 322,-754 322,-754 322,-760 316,-766 310,-766"/>
<text text-anchor="middle" x="285" y="-754" font-family="sans" font-size="10.00">align_hisat</text>
<text text-anchor="middle" x="285" y="-743" font-family="sans" font-size="10.00">run: 0</text>
<text text-anchor="middle" x="285" y="-732" font-family="sans" font-size="10.00">sample: Ath</text>
</g>
<!-- 9 -->
<g id="node10" class="node"><title>9</title>
<path fill="none" stroke="#569ad8" stroke-width="2" d="M332.5,-689C332.5,-689 237.5,-689 237.5,-689 231.5,-689 225.5,-683 225.5,-677 225.5,-677 225.5,-665 225.5,-665 225.5,-659 231.5,-653 237.5,-653 237.5,-653 332.5,-653 332.5,-653 338.5,-653 344.5,-659 344.5,-665 344.5,-665 344.5,-677 344.5,-677 344.5,-683 338.5,-689 332.5,-689"/>
<text text-anchor="middle" x="285" y="-674" font-family="sans" font-size="10.00">bam_sort</text>
<text text-anchor="middle" x="285" y="-663" font-family="sans" font-size="10.00">align_run: hisat&#45;Ath&#45;0</text>
</g>
<!-- 0&#45;&gt;9 -->
<g id="edge13" class="edge"><title>0&#45;&gt;9</title>
<path fill="none" stroke="grey" stroke-width="2" d="M285,-724.689C285,-716.907 285,-707.842 285,-699.447"/>
<polygon fill="grey" stroke="grey" stroke-width="2" points="288.5,-699.319 285,-689.319 281.5,-699.32 288.5,-699.319"/>
</g>
<!-- 1 -->
<g id="node2" class="node"><title>1</title>
<path fill="none" stroke="#56a9d8" stroke-width="2" d="M304.5,-108C304.5,-108 225.5,-108 225.5,-108 219.5,-108 213.5,-102 213.5,-96 213.5,-96 213.5,-84 213.5,-84 213.5,-78 219.5,-72 225.5,-72 225.5,-72 304.5,-72 304.5,-72 310.5,-72 316.5,-78 316.5,-84 316.5,-84 316.5,-96 316.5,-96 316.5,-102 310.5,-108 304.5,-108"/>
<text text-anchor="middle" x="265" y="-87.5" font-family="sans" font-size="10.00">asm_collect_stats</text>
</g>
<!-- 18 -->
<g id="node19" class="node"><title>18</title>
<path fill="none" stroke="#5663d8" stroke-width="2" d="M280,-36C280,-36 250,-36 250,-36 244,-36 238,-30 238,-24 238,-24 238,-12 238,-12 238,-6 244,-0 250,-0 250,-0 280,-0 280,-0 286,-0 292,-6 292,-12 292,-12 292,-24 292,-24 292,-30 286,-36 280,-36"/>
<text text-anchor="middle" x="265" y="-15.5" font-family="sans" font-size="10.00">all</text>
</g>
<!-- 1&#45;&gt;18 -->
<g id="edge23" class="edge"><title>1&#45;&gt;18</title>
<path fill="none" stroke="grey" stroke-width="2" d="M265,-71.6966C265,-63.9827 265,-54.7125 265,-46.1124"/>
<polygon fill="grey" stroke="grey" stroke-width="2" points="268.5,-46.1043 265,-36.1043 261.5,-46.1044 268.5,-46.1043"/>
</g>
<!-- 2 -->
<g id="node3" class="node"><title>2</title>
<path fill="none" stroke="#d8ac56" stroke-width="2" d="M140,-401C140,-401 64,-401 64,-401 58,-401 52,-395 52,-389 52,-389 52,-372 52,-372 52,-366 58,-360 64,-360 64,-360 140,-360 140,-360 146,-360 152,-366 152,-372 152,-372 152,-389 152,-389 152,-395 146,-401 140,-401"/>
<text text-anchor="middle" x="102" y="-389" font-family="sans" font-size="10.00">asm_stringtie</text>
<text text-anchor="middle" x="102" y="-378" font-family="sans" font-size="10.00">alrun: hisat&#45;Ath&#45;0</text>
<text text-anchor="middle" x="102" y="-367" font-family="sans" font-size="10.00">run2: 0</text>
</g>
<!-- 13 -->
<g id="node14" class="node"><title>13</title>
<path fill="none" stroke="#97d856" stroke-width="2" d="M174,-324C174,-324 12,-324 12,-324 6,-324 1.42109e-14,-318 1.42109e-14,-312 1.42109e-14,-312 1.42109e-14,-300 1.42109e-14,-300 1.42109e-14,-294 6,-288 12,-288 12,-288 174,-288 174,-288 180,-288 186,-294 186,-300 186,-300 186,-312 186,-312 186,-318 180,-324 174,-324"/>
<text text-anchor="middle" x="93" y="-309" font-family="sans" font-size="10.00">asm_gff_stats</text>
<text text-anchor="middle" x="93" y="-298" font-family="sans" font-size="10.00">asm_run: stringtie&#45;0&#45;hisat&#45;Ath&#45;0.gtf</text>
</g>
<!-- 2&#45;&gt;13 -->
<g id="edge18" class="edge"><title>2&#45;&gt;13</title>
<path fill="none" stroke="grey" stroke-width="2" d="M99.5407,-359.689C98.5746,-351.907 97.4493,-342.842 96.4072,-334.447"/>
<polygon fill="grey" stroke="grey" stroke-width="2" points="99.8554,-333.812 95.15,-324.319 92.9087,-334.675 99.8554,-333.812"/>
</g>
<!-- 3 -->
<g id="node4" class="node"><title>3</title>
<path fill="none" stroke="#d89c56" stroke-width="2" d="M273,-252C273,-252 243,-252 243,-252 237,-252 231,-246 231,-240 231,-240 231,-228 231,-228 231,-222 237,-216 243,-216 243,-216 273,-216 273,-216 279,-216 285,-222 285,-228 285,-228 285,-240 285,-240 285,-246 279,-252 273,-252"/>
<text text-anchor="middle" x="258" y="-231.5" font-family="sans" font-size="10.00">asm_all</text>
</g>
<!-- 3&#45;&gt;1 -->
<g id="edge2" class="edge"><title>3&#45;&gt;1</title>
<path fill="none" stroke="grey" stroke-width="2" d="M258.844,-215.871C260.037,-191.67 262.229,-147.211 263.65,-118.393"/>
<polygon fill="grey" stroke="grey" stroke-width="2" points="267.156,-118.349 264.153,-108.189 260.164,-118.005 267.156,-118.349"/>
</g>
<!-- 15 -->
<g id="node16" class="node"><title>15</title>
<path fill="none" stroke="#56d88a" stroke-width="2" d="M183.5,-108C183.5,-108 136.5,-108 136.5,-108 130.5,-108 124.5,-102 124.5,-96 124.5,-96 124.5,-84 124.5,-84 124.5,-78 130.5,-72 136.5,-72 136.5,-72 183.5,-72 183.5,-72 189.5,-72 195.5,-78 195.5,-84 195.5,-84 195.5,-96 195.5,-96 195.5,-102 189.5,-108 183.5,-108"/>
<text text-anchor="middle" x="160" y="-87.5" font-family="sans" font-size="10.00">mikado_cfg</text>
</g>
<!-- 3&#45;&gt;15 -->
<g id="edge21" class="edge"><title>3&#45;&gt;15</title>
<path fill="none" stroke="grey" stroke-width="2" d="M249.848,-215.918C240.724,-197.481 224.98,-167.59 208,-144 201.004,-134.28 192.464,-124.36 184.538,-115.77"/>
<polygon fill="grey" stroke="grey" stroke-width="2" points="186.9,-113.174 177.493,-108.3 181.808,-117.976 186.9,-113.174"/>
</g>
<!-- 4 -->
<g id="node5" class="node"><title>4</title>
<path fill="none" stroke="#56d8b1" stroke-width="2" d="M385,-180C385,-180 305,-180 305,-180 299,-180 293,-174 293,-168 293,-168 293,-156 293,-156 293,-150 299,-144 305,-144 305,-144 385,-144 385,-144 391,-144 397,-150 397,-156 397,-156 397,-168 397,-168 397,-174 391,-180 385,-180"/>
<text text-anchor="middle" x="345" y="-159.5" font-family="sans" font-size="10.00">align_collect_stats</text>
</g>
<!-- 4&#45;&gt;18 -->
<g id="edge25" class="edge"><title>4&#45;&gt;18</title>
<path fill="none" stroke="grey" stroke-width="2" d="M344.258,-143.783C342.766,-124.962 338.303,-94.4906 325,-72 318.422,-60.8786 308.708,-50.845 299.004,-42.5758"/>
<polygon fill="grey" stroke="grey" stroke-width="2" points="300.905,-39.6128 290.924,-36.0596 296.511,-45.0616 300.905,-39.6128"/>
</g>
<!-- 5 -->
<g id="node6" class="node"><title>5</title>
<path fill="none" stroke="#d8d356" stroke-width="2" d="M187,-180C187,-180 115,-180 115,-180 109,-180 103,-174 103,-168 103,-168 103,-156 103,-156 103,-150 109,-144 115,-144 115,-144 187,-144 187,-144 193,-144 199,-150 199,-156 199,-156 199,-168 199,-168 199,-174 193,-180 187,-180"/>
<text text-anchor="middle" x="151" y="-159.5" font-family="sans" font-size="10.00">portcullis_merge</text>
</g>
<!-- 5&#45;&gt;15 -->
<g id="edge20" class="edge"><title>5&#45;&gt;15</title>
<path fill="none" stroke="grey" stroke-width="2" d="M153.225,-143.697C154.217,-135.983 155.408,-126.712 156.514,-118.112"/>
<polygon fill="grey" stroke="grey" stroke-width="2" points="159.997,-118.469 157.801,-108.104 153.054,-117.576 159.997,-118.469"/>
</g>
<!-- 6 -->
<g id="node7" class="node"><title>6</title>
<path fill="none" stroke="#97d856" stroke-width="2" d="M519.5,-324C519.5,-324 372.5,-324 372.5,-324 366.5,-324 360.5,-318 360.5,-312 360.5,-312 360.5,-300 360.5,-300 360.5,-294 366.5,-288 372.5,-288 372.5,-288 519.5,-288 519.5,-288 525.5,-288 531.5,-294 531.5,-300 531.5,-300 531.5,-312 531.5,-312 531.5,-318 525.5,-324 519.5,-324"/>
<text text-anchor="middle" x="446" y="-309" font-family="sans" font-size="10.00">asm_gff_stats</text>
<text text-anchor="middle" x="446" y="-298" font-family="sans" font-size="10.00">asm_run: class&#45;0&#45;hisat&#45;Ath&#45;0.gtf</text>
</g>
<!-- 6&#45;&gt;3 -->
<g id="edge6" class="edge"><title>6&#45;&gt;3</title>
<path fill="none" stroke="grey" stroke-width="2" d="M400.01,-287.876C367.683,-275.839 325,-259.947 294.898,-248.738"/>
<polygon fill="grey" stroke="grey" stroke-width="2" points="295.797,-245.339 285.204,-245.129 293.354,-251.899 295.797,-245.339"/>
</g>
<!-- 7 -->
<g id="node8" class="node"><title>7</title>
<path fill="none" stroke="#afd856" stroke-width="2" d="M448,-401C448,-401 372,-401 372,-401 366,-401 360,-395 360,-389 360,-389 360,-372 360,-372 360,-366 366,-360 372,-360 372,-360 448,-360 448,-360 454,-360 460,-366 460,-372 460,-372 460,-389 460,-389 460,-395 454,-401 448,-401"/>
<text text-anchor="middle" x="410" y="-389" font-family="sans" font-size="10.00">asm_class</text>
<text text-anchor="middle" x="410" y="-378" font-family="sans" font-size="10.00">alrun: hisat&#45;Ath&#45;0</text>
<text text-anchor="middle" x="410" y="-367" font-family="sans" font-size="10.00">run2: 0</text>
</g>
<!-- 7&#45;&gt;6 -->
<g id="edge9" class="edge"><title>7&#45;&gt;6</title>
<path fill="none" stroke="grey" stroke-width="2" d="M419.837,-359.689C423.873,-351.561 428.604,-342.033 432.925,-333.332"/>
<polygon fill="grey" stroke="grey" stroke-width="2" points="436.087,-334.833 437.4,-324.319 429.818,-331.719 436.087,-334.833"/>
</g>
<!-- 8 -->
<g id="node9" class="node"><title>8</title>
<path fill="none" stroke="#56c9d8" stroke-width="2" d="M276,-324C276,-324 216,-324 216,-324 210,-324 204,-318 204,-312 204,-312 204,-300 204,-300 204,-294 210,-288 216,-288 216,-288 276,-288 276,-288 282,-288 288,-294 288,-300 288,-300 288,-312 288,-312 288,-318 282,-324 276,-324"/>
<text text-anchor="middle" x="246" y="-303.5" font-family="sans" font-size="10.00">portcullis_junc</text>
</g>
<!-- 14 -->
<g id="node15" class="node"><title>14</title>
<path fill="none" stroke="#5682d8" stroke-width="2" d="M188,-252C188,-252 126,-252 126,-252 120,-252 114,-246 114,-240 114,-240 114,-228 114,-228 114,-222 120,-216 126,-216 126,-216 188,-216 188,-216 194,-216 200,-222 200,-228 200,-228 200,-240 200,-240 200,-246 194,-252 188,-252"/>
<text text-anchor="middle" x="157" y="-231.5" font-family="sans" font-size="10.00">portcullis_filter</text>
</g>
<!-- 8&#45;&gt;14 -->
<g id="edge19" class="edge"><title>8&#45;&gt;14</title>
<path fill="none" stroke="grey" stroke-width="2" d="M224,-287.697C212.791,-278.881 198.998,-268.032 186.846,-258.474"/>
<polygon fill="grey" stroke="grey" stroke-width="2" points="188.771,-255.535 178.747,-252.104 184.443,-261.038 188.771,-255.535"/>
</g>
<!-- 9&#45;&gt;2 -->
<g id="edge3" class="edge"><title>9&#45;&gt;2</title>
<path fill="none" stroke="grey" stroke-width="2" d="M253.216,-652.788C238.604,-643.658 221.914,-631.354 210,-617 156.739,-552.834 123.979,-458.093 109.96,-410.716"/>
<polygon fill="grey" stroke="grey" stroke-width="2" points="113.314,-409.718 107.176,-401.083 106.59,-411.661 113.314,-409.718"/>
</g>
<!-- 9&#45;&gt;7 -->
<g id="edge10" class="edge"><title>9&#45;&gt;7</title>
<path fill="none" stroke="grey" stroke-width="2" d="M294.092,-652.978C299.496,-642.664 306.37,-629.187 312,-617 345.841,-543.745 381.158,-455.459 398.704,-410.654"/>
<polygon fill="grey" stroke="grey" stroke-width="2" points="401.995,-411.848 402.372,-401.26 395.475,-409.302 401.995,-411.848"/>
</g>
<!-- 10 -->
<g id="node11" class="node"><title>10</title>
<path fill="none" stroke="#56d86b" stroke-width="2" d="M302,-545C302,-545 258,-545 258,-545 252,-545 246,-539 246,-533 246,-533 246,-521 246,-521 246,-515 252,-509 258,-509 258,-509 302,-509 302,-509 308,-509 314,-515 314,-521 314,-521 314,-533 314,-533 314,-539 308,-545 302,-545"/>
<text text-anchor="middle" x="280" y="-524.5" font-family="sans" font-size="10.00">bam_stats</text>
</g>
<!-- 9&#45;&gt;10 -->
<g id="edge14" class="edge"><title>9&#45;&gt;10</title>
<path fill="none" stroke="grey" stroke-width="2" d="M290.245,-652.907C295.062,-634.966 300.904,-605.954 297,-581 295.641,-572.312 293.1,-563.104 290.389,-554.843"/>
<polygon fill="grey" stroke="grey" stroke-width="2" points="293.669,-553.62 287.066,-545.335 287.061,-555.93 293.669,-553.62"/>
</g>
<!-- 12 -->
<g id="node13" class="node"><title>12</title>
<path fill="none" stroke="#56d8d0" stroke-width="2" d="M276.5,-617C276.5,-617 231.5,-617 231.5,-617 225.5,-617 219.5,-611 219.5,-605 219.5,-605 219.5,-593 219.5,-593 219.5,-587 225.5,-581 231.5,-581 231.5,-581 276.5,-581 276.5,-581 282.5,-581 288.5,-587 288.5,-593 288.5,-593 288.5,-605 288.5,-605 288.5,-611 282.5,-617 276.5,-617"/>
<text text-anchor="middle" x="254" y="-596.5" font-family="sans" font-size="10.00">bam_index</text>
</g>
<!-- 9&#45;&gt;12 -->
<g id="edge17" class="edge"><title>9&#45;&gt;12</title>
<path fill="none" stroke="grey" stroke-width="2" d="M277.337,-652.697C273.808,-644.728 269.544,-635.1 265.631,-626.264"/>
<polygon fill="grey" stroke="grey" stroke-width="2" points="268.824,-624.831 261.575,-617.104 262.424,-627.665 268.824,-624.831"/>
</g>
<!-- 17 -->
<g id="node18" class="node"><title>17</title>
<path fill="none" stroke="#56d8d8" stroke-width="2" d="M295.5,-473C295.5,-473 264.5,-473 264.5,-473 258.5,-473 252.5,-467 252.5,-461 252.5,-461 252.5,-449 252.5,-449 252.5,-443 258.5,-437 264.5,-437 264.5,-437 295.5,-437 295.5,-437 301.5,-437 307.5,-443 307.5,-449 307.5,-449 307.5,-461 307.5,-461 307.5,-467 301.5,-473 295.5,-473"/>
<text text-anchor="middle" x="280" y="-452.5" font-family="sans" font-size="10.00">align_all</text>
</g>
<!-- 10&#45;&gt;17 -->
<g id="edge22" class="edge"><title>10&#45;&gt;17</title>
<path fill="none" stroke="grey" stroke-width="2" d="M280,-508.697C280,-500.983 280,-491.712 280,-483.112"/>
<polygon fill="grey" stroke="grey" stroke-width="2" points="283.5,-483.104 280,-473.104 276.5,-483.104 283.5,-483.104"/>
</g>
<!-- 11 -->
<g id="node12" class="node"><title>11</title>
<path fill="none" stroke="#d85656" stroke-width="2" d="M291.5,-398.5C291.5,-398.5 182.5,-398.5 182.5,-398.5 176.5,-398.5 170.5,-392.5 170.5,-386.5 170.5,-386.5 170.5,-374.5 170.5,-374.5 170.5,-368.5 176.5,-362.5 182.5,-362.5 182.5,-362.5 291.5,-362.5 291.5,-362.5 297.5,-362.5 303.5,-368.5 303.5,-374.5 303.5,-374.5 303.5,-386.5 303.5,-386.5 303.5,-392.5 297.5,-398.5 291.5,-398.5"/>
<text text-anchor="middle" x="237" y="-383.5" font-family="sans" font-size="10.00">portcullis_prep</text>
<text text-anchor="middle" x="237" y="-372.5" font-family="sans" font-size="10.00">aln_method: hisat&#45;Ath&#45;0</text>
</g>
<!-- 11&#45;&gt;8 -->
<g id="edge12" class="edge"><title>11&#45;&gt;8</title>
<path fill="none" stroke="grey" stroke-width="2" d="M239.133,-362.319C240.175,-353.922 241.455,-343.616 242.625,-334.186"/>
<polygon fill="grey" stroke="grey" stroke-width="2" points="246.124,-334.413 243.882,-324.058 239.177,-333.551 246.124,-334.413"/>
</g>
<!-- 12&#45;&gt;10 -->
<g id="edge15" class="edge"><title>12&#45;&gt;10</title>
<path fill="none" stroke="grey" stroke-width="2" d="M260.427,-580.697C263.355,-572.813 266.887,-563.304 270.14,-554.546"/>
<polygon fill="grey" stroke="grey" stroke-width="2" points="273.446,-555.697 273.647,-545.104 266.884,-553.26 273.446,-555.697"/>
</g>
<!-- 13&#45;&gt;3 -->
<g id="edge5" class="edge"><title>13&#45;&gt;3</title>
<path fill="none" stroke="grey" stroke-width="2" d="M133.364,-287.876C160.266,-276.463 195.34,-261.583 221.424,-250.517"/>
<polygon fill="grey" stroke="grey" stroke-width="2" points="223.107,-253.605 230.946,-246.478 220.373,-247.161 223.107,-253.605"/>
</g>
<!-- 14&#45;&gt;5 -->
<g id="edge8" class="edge"><title>14&#45;&gt;5</title>
<path fill="none" stroke="grey" stroke-width="2" d="M155.517,-215.697C154.856,-207.983 154.061,-198.712 153.324,-190.112"/>
<polygon fill="grey" stroke="grey" stroke-width="2" points="156.807,-189.769 152.466,-180.104 149.833,-190.367 156.807,-189.769"/>
</g>
<!-- 15&#45;&gt;18 -->
<g id="edge24" class="edge"><title>15&#45;&gt;18</title>
<path fill="none" stroke="grey" stroke-width="2" d="M185.686,-71.8761C199.288,-62.8083 216.172,-51.5523 230.861,-41.7592"/>
<polygon fill="grey" stroke="grey" stroke-width="2" points="232.836,-44.649 239.215,-36.1898 228.953,-38.8246 232.836,-44.649"/>
</g>
<!-- 16 -->
<g id="node17" class="node"><title>16</title>
<path fill="none" stroke="#68d856" stroke-width="2" d="M322,-838C322,-838 248,-838 248,-838 242,-838 236,-832 236,-826 236,-826 236,-814 236,-814 236,-808 242,-802 248,-802 248,-802 322,-802 322,-802 328,-802 334,-808 334,-814 334,-814 334,-826 334,-826 334,-832 328,-838 322,-838"/>
<text text-anchor="middle" x="285" y="-817.5" font-family="sans" font-size="10.00">align_hisat_index</text>
</g>
<!-- 16&#45;&gt;0 -->
<g id="edge1" class="edge"><title>16&#45;&gt;0</title>
<path fill="none" stroke="grey" stroke-width="2" d="M285,-801.819C285,-794.198 285,-785.005 285,-776.32"/>
<polygon fill="grey" stroke="grey" stroke-width="2" points="288.5,-776.12 285,-766.12 281.5,-776.12 288.5,-776.12"/>
</g>
<!-- 17&#45;&gt;2 -->
<g id="edge4" class="edge"><title>17&#45;&gt;2</title>
<path fill="none" stroke="grey" stroke-width="2" d="M252.188,-442.672C227.465,-432.602 190.533,-417.56 159.48,-404.912"/>
<polygon fill="grey" stroke="grey" stroke-width="2" points="160.634,-401.603 150.052,-401.072 157.993,-408.085 160.634,-401.603"/>
</g>
<!-- 17&#45;&gt;4 -->
<g id="edge7" class="edge"><title>17&#45;&gt;4</title>
<path fill="none" stroke="grey" stroke-width="2" d="M292.876,-436.755C299.655,-426.804 307.477,-413.766 312,-401 337.867,-327.987 343.571,-235.674 344.753,-190.475"/>
<polygon fill="grey" stroke="grey" stroke-width="2" points="348.256,-190.362 344.962,-180.292 341.258,-190.218 348.256,-190.362"/>
</g>
<!-- 17&#45;&gt;7 -->
<g id="edge11" class="edge"><title>17&#45;&gt;7</title>
<path fill="none" stroke="grey" stroke-width="2" d="M307.57,-438.625C324.556,-429.151 346.716,-416.793 366.077,-405.995"/>
<polygon fill="grey" stroke="grey" stroke-width="2" points="368.005,-408.928 375.034,-401 364.596,-402.814 368.005,-408.928"/>
</g>
<!-- 17&#45;&gt;11 -->
<g id="edge16" class="edge"><title>17&#45;&gt;11</title>
<path fill="none" stroke="grey" stroke-width="2" d="M269.81,-436.819C264.562,-427.97 258.057,-417.003 252.227,-407.173"/>
<polygon fill="grey" stroke="grey" stroke-width="2" points="255.229,-405.374 247.117,-398.558 249.208,-408.945 255.229,-405.374"/>
</g>
</g>
</svg>
