<?xml version="1.0" encoding="UTF-8" standalone="no"?>
<!DOCTYPE svg PUBLIC "-//W3C//DTD SVG 1.1//EN"
 "http://www.w3.org/Graphics/SVG/1.1/DTD/svg11.dtd">
<!-- Generated by graphviz version 2.38.0 (20140413.2041)
 -->
<!-- Title: snakemake_dag Pages: 1 -->
<svg width="598pt" height="846pt"
 viewBox="0.00 0.00 597.50 846.00" xmlns="http://www.w3.org/2000/svg" xmlns:xlink="http://www.w3.org/1999/xlink">
<g id="graph0" class="graph" transform="scale(1 1) rotate(0) translate(4 842)">
<title>snakemake_dag</title>
<polygon fill="white" stroke="none" points="-4,4 -4,-842 593.5,-842 593.5,4 -4,4"/>
<!-- 0 -->
<g id="node1" class="node"><title>0</title>
<path fill="none" stroke="#68d856" stroke-width="2" d="M452.5,-324C452.5,-324 392.5,-324 392.5,-324 386.5,-324 380.5,-318 380.5,-312 380.5,-312 380.5,-300 380.5,-300 380.5,-294 386.5,-288 392.5,-288 392.5,-288 452.5,-288 452.5,-288 458.5,-288 464.5,-294 464.5,-300 464.5,-300 464.5,-312 464.5,-312 464.5,-318 458.5,-324 452.5,-324"/>
<text text-anchor="middle" x="422.5" y="-303.5" font-family="sans" font-size="10.00">portcullis_junc</text>
</g>
<!-- 10 -->
<g id="node11" class="node"><title>10</title>
<path fill="none" stroke="#d87d56" stroke-width="2" d="M450.5,-252C450.5,-252 388.5,-252 388.5,-252 382.5,-252 376.5,-246 376.5,-240 376.5,-240 376.5,-228 376.5,-228 376.5,-222 382.5,-216 388.5,-216 388.5,-216 450.5,-216 450.5,-216 456.5,-216 462.5,-222 462.5,-228 462.5,-228 462.5,-240 462.5,-240 462.5,-246 456.5,-252 450.5,-252"/>
<text text-anchor="middle" x="419.5" y="-231.5" font-family="sans" font-size="10.00">portcullis_filter</text>
</g>
<!-- 0&#45;&gt;10 -->
<g id="edge16" class="edge"><title>0&#45;&gt;10</title>
<path fill="none" stroke="grey" stroke-width="2" d="M421.758,-287.697C421.428,-279.983 421.031,-270.712 420.662,-262.112"/>
<polygon fill="grey" stroke="grey" stroke-width="2" points="424.158,-261.945 420.233,-252.104 417.165,-262.245 424.158,-261.945"/>
</g>
<!-- 1 -->
<g id="node2" class="node"><title>1</title>
<path fill="none" stroke="#d8bc56" stroke-width="2" d="M142.5,-401C142.5,-401 22.5,-401 22.5,-401 16.5,-401 10.5,-395 10.5,-389 10.5,-389 10.5,-372 10.5,-372 10.5,-366 16.5,-360 22.5,-360 22.5,-360 142.5,-360 142.5,-360 148.5,-360 154.5,-366 154.5,-372 154.5,-372 154.5,-389 154.5,-389 154.5,-395 148.5,-401 142.5,-401"/>
<text text-anchor="middle" x="82.5" y="-389" font-family="sans" font-size="10.00">asm_class</text>
<text text-anchor="middle" x="82.5" y="-378" font-family="sans" font-size="10.00">alrun: hisat&#45;SRR1617247&#45;0</text>
<text text-anchor="middle" x="82.5" y="-367" font-family="sans" font-size="10.00">run2: 0</text>
</g>
<!-- 5 -->
<g id="node6" class="node"><title>5</title>
<path fill="none" stroke="#d86656" stroke-width="2" d="M203,-252C203,-252 12,-252 12,-252 6,-252 0,-246 0,-240 0,-240 0,-228 0,-228 0,-222 6,-216 12,-216 12,-216 203,-216 203,-216 209,-216 215,-222 215,-228 215,-228 215,-240 215,-240 215,-246 209,-252 203,-252"/>
<text text-anchor="middle" x="107.5" y="-237" font-family="sans" font-size="10.00">asm_gff_stats</text>
<text text-anchor="middle" x="107.5" y="-226" font-family="sans" font-size="10.00">asm_run: class&#45;0&#45;hisat&#45;SRR1617247&#45;0.gtf</text>
</g>
<!-- 1&#45;&gt;5 -->
<g id="edge8" class="edge"><title>1&#45;&gt;5</title>
<path fill="none" stroke="grey" stroke-width="2" d="M85.9237,-359.711C90.2874,-334.489 97.8529,-290.76 102.767,-262.359"/>
<polygon fill="grey" stroke="grey" stroke-width="2" points="106.252,-262.746 104.508,-252.296 99.3541,-261.552 106.252,-262.746"/>
</g>
<!-- 2 -->
<g id="node3" class="node"><title>2</title>
<path fill="none" stroke="#5692d8" stroke-width="2" d="M313,-108C313,-108 234,-108 234,-108 228,-108 222,-102 222,-96 222,-96 222,-84 222,-84 222,-78 228,-72 234,-72 234,-72 313,-72 313,-72 319,-72 325,-78 325,-84 325,-84 325,-96 325,-96 325,-102 319,-108 313,-108"/>
<text text-anchor="middle" x="273.5" y="-87.5" font-family="sans" font-size="10.00">asm_collect_stats</text>
</g>
<!-- 6 -->
<g id="node7" class="node"><title>6</title>
<path fill="none" stroke="#56d85b" stroke-width="2" d="M425.5,-36C425.5,-36 395.5,-36 395.5,-36 389.5,-36 383.5,-30 383.5,-24 383.5,-24 383.5,-12 383.5,-12 383.5,-6 389.5,-0 395.5,-0 395.5,-0 425.5,-0 425.5,-0 431.5,-0 437.5,-6 437.5,-12 437.5,-12 437.5,-24 437.5,-24 437.5,-30 431.5,-36 425.5,-36"/>
<text text-anchor="middle" x="410.5" y="-15.5" font-family="sans" font-size="10.00">all</text>
</g>
<!-- 2&#45;&gt;6 -->
<g id="edge10" class="edge"><title>2&#45;&gt;6</title>
<path fill="none" stroke="grey" stroke-width="2" d="M307.014,-71.8761C327.348,-61.4865 353.304,-48.2243 374.134,-37.5812"/>
<polygon fill="grey" stroke="grey" stroke-width="2" points="375.993,-40.5619 383.305,-32.8951 372.808,-34.3284 375.993,-40.5619"/>
</g>
<!-- 3 -->
<g id="node4" class="node"><title>3</title>
<path fill="none" stroke="#5663d8" stroke-width="2" d="M272.5,-180C272.5,-180 242.5,-180 242.5,-180 236.5,-180 230.5,-174 230.5,-168 230.5,-168 230.5,-156 230.5,-156 230.5,-150 236.5,-144 242.5,-144 242.5,-144 272.5,-144 272.5,-144 278.5,-144 284.5,-150 284.5,-156 284.5,-156 284.5,-168 284.5,-168 284.5,-174 278.5,-180 272.5,-180"/>
<text text-anchor="middle" x="257.5" y="-159.5" font-family="sans" font-size="10.00">asm_all</text>
</g>
<!-- 3&#45;&gt;2 -->
<g id="edge4" class="edge"><title>3&#45;&gt;2</title>
<path fill="none" stroke="grey" stroke-width="2" d="M261.455,-143.697C263.218,-135.983 265.337,-126.712 267.303,-118.112"/>
<polygon fill="grey" stroke="grey" stroke-width="2" points="270.774,-118.633 269.59,-108.104 263.95,-117.073 270.774,-118.633"/>
</g>
<!-- 12 -->
<g id="node13" class="node"><title>12</title>
<path fill="none" stroke="#56d88a" stroke-width="2" d="M434,-108C434,-108 387,-108 387,-108 381,-108 375,-102 375,-96 375,-96 375,-84 375,-84 375,-78 381,-72 387,-72 387,-72 434,-72 434,-72 440,-72 446,-78 446,-84 446,-84 446,-96 446,-96 446,-102 440,-108 434,-108"/>
<text text-anchor="middle" x="410.5" y="-87.5" font-family="sans" font-size="10.00">mikado_cfg</text>
</g>
<!-- 3&#45;&gt;12 -->
<g id="edge19" class="edge"><title>3&#45;&gt;12</title>
<path fill="none" stroke="grey" stroke-width="2" d="M284.501,-148.647C306.888,-138.404 339.185,-123.628 365.475,-111.6"/>
<polygon fill="grey" stroke="grey" stroke-width="2" points="367.223,-114.649 374.86,-107.306 364.31,-108.284 367.223,-114.649"/>
</g>
<!-- 4 -->
<g id="node5" class="node"><title>4</title>
<path fill="none" stroke="#56d8d0" stroke-width="2" d="M291,-473C291,-473 260,-473 260,-473 254,-473 248,-467 248,-461 248,-461 248,-449 248,-449 248,-443 254,-437 260,-437 260,-437 291,-437 291,-437 297,-437 303,-443 303,-449 303,-449 303,-461 303,-461 303,-467 297,-473 291,-473"/>
<text text-anchor="middle" x="275.5" y="-452.5" font-family="sans" font-size="10.00">align_all</text>
</g>
<!-- 4&#45;&gt;1 -->
<g id="edge2" class="edge"><title>4&#45;&gt;1</title>
<path fill="none" stroke="grey" stroke-width="2" d="M247.848,-443.613C220.885,-433.484 178.961,-417.735 144.075,-404.631"/>
<polygon fill="grey" stroke="grey" stroke-width="2" points="145.033,-401.252 134.441,-401.011 142.571,-407.804 145.033,-401.252"/>
</g>
<!-- 8 -->
<g id="node9" class="node"><title>8</title>
<path fill="none" stroke="#d8d356" stroke-width="2" d="M304.5,-401C304.5,-401 184.5,-401 184.5,-401 178.5,-401 172.5,-395 172.5,-389 172.5,-389 172.5,-372 172.5,-372 172.5,-366 178.5,-360 184.5,-360 184.5,-360 304.5,-360 304.5,-360 310.5,-360 316.5,-366 316.5,-372 316.5,-372 316.5,-389 316.5,-389 316.5,-395 310.5,-401 304.5,-401"/>
<text text-anchor="middle" x="244.5" y="-389" font-family="sans" font-size="10.00">asm_stringtie</text>
<text text-anchor="middle" x="244.5" y="-378" font-family="sans" font-size="10.00">alrun: hisat&#45;SRR1617247&#45;0</text>
<text text-anchor="middle" x="244.5" y="-367" font-family="sans" font-size="10.00">run2: 0</text>
</g>
<!-- 4&#45;&gt;8 -->
<g id="edge13" class="edge"><title>4&#45;&gt;8</title>
<path fill="none" stroke="grey" stroke-width="2" d="M268.153,-436.819C264.787,-428.946 260.704,-419.397 256.884,-410.463"/>
<polygon fill="grey" stroke="grey" stroke-width="2" points="260.039,-408.938 252.889,-401.12 253.602,-411.69 260.039,-408.938"/>
</g>
<!-- 11 -->
<g id="node12" class="node"><title>11</title>
<path fill="none" stroke="#56d8d8" stroke-width="2" d="M500,-398.5C500,-398.5 347,-398.5 347,-398.5 341,-398.5 335,-392.5 335,-386.5 335,-386.5 335,-374.5 335,-374.5 335,-368.5 341,-362.5 347,-362.5 347,-362.5 500,-362.5 500,-362.5 506,-362.5 512,-368.5 512,-374.5 512,-374.5 512,-386.5 512,-386.5 512,-392.5 506,-398.5 500,-398.5"/>
<text text-anchor="middle" x="423.5" y="-383.5" font-family="sans" font-size="10.00">portcullis_prep</text>
<text text-anchor="middle" x="423.5" y="-372.5" font-family="sans" font-size="10.00">aln_method: hisat&#45;SRR1617247&#45;0</text>
</g>
<!-- 4&#45;&gt;11 -->
<g id="edge17" class="edge"><title>4&#45;&gt;11</title>
<path fill="none" stroke="grey" stroke-width="2" d="M303.338,-440.363C324.796,-429.852 354.876,-415.117 379.572,-403.019"/>
<polygon fill="grey" stroke="grey" stroke-width="2" points="381.303,-406.068 388.744,-398.526 378.223,-399.782 381.303,-406.068"/>
</g>
<!-- 13 -->
<g id="node14" class="node"><title>13</title>
<path fill="none" stroke="#56d892" stroke-width="2" d="M577.5,-324C577.5,-324 497.5,-324 497.5,-324 491.5,-324 485.5,-318 485.5,-312 485.5,-312 485.5,-300 485.5,-300 485.5,-294 491.5,-288 497.5,-288 497.5,-288 577.5,-288 577.5,-288 583.5,-288 589.5,-294 589.5,-300 589.5,-300 589.5,-312 589.5,-312 589.5,-318 583.5,-324 577.5,-324"/>
<text text-anchor="middle" x="537.5" y="-303.5" font-family="sans" font-size="10.00">align_collect_stats</text>
</g>
<!-- 4&#45;&gt;13 -->
<g id="edge20" class="edge"><title>4&#45;&gt;13</title>
<path fill="none" stroke="grey" stroke-width="2" d="M303.356,-451.803C361.03,-446.668 490.635,-431.902 520.5,-401 537.381,-383.533 540.51,-355.283 540.097,-334.306"/>
<polygon fill="grey" stroke="grey" stroke-width="2" points="543.583,-333.918 539.613,-324.095 536.591,-334.25 543.583,-333.918"/>
</g>
<!-- 5&#45;&gt;3 -->
<g id="edge5" class="edge"><title>5&#45;&gt;3</title>
<path fill="none" stroke="grey" stroke-width="2" d="M144.194,-215.876C167.521,-204.99 197.605,-190.951 220.911,-180.075"/>
<polygon fill="grey" stroke="grey" stroke-width="2" points="222.541,-183.177 230.123,-175.776 219.581,-176.833 222.541,-183.177"/>
</g>
<!-- 7 -->
<g id="node8" class="node"><title>7</title>
<path fill="none" stroke="#d86656" stroke-width="2" d="M348.5,-324C348.5,-324 142.5,-324 142.5,-324 136.5,-324 130.5,-318 130.5,-312 130.5,-312 130.5,-300 130.5,-300 130.5,-294 136.5,-288 142.5,-288 142.5,-288 348.5,-288 348.5,-288 354.5,-288 360.5,-294 360.5,-300 360.5,-300 360.5,-312 360.5,-312 360.5,-318 354.5,-324 348.5,-324"/>
<text text-anchor="middle" x="245.5" y="-309" font-family="sans" font-size="10.00">asm_gff_stats</text>
<text text-anchor="middle" x="245.5" y="-298" font-family="sans" font-size="10.00">asm_run: stringtie&#45;0&#45;hisat&#45;SRR1617247&#45;0.gtf</text>
</g>
<!-- 7&#45;&gt;3 -->
<g id="edge6" class="edge"><title>7&#45;&gt;3</title>
<path fill="none" stroke="grey" stroke-width="2" d="M246.947,-287.871C248.993,-263.67 252.75,-219.211 255.185,-190.393"/>
<polygon fill="grey" stroke="grey" stroke-width="2" points="258.693,-190.449 256.047,-180.189 251.718,-189.859 258.693,-190.449"/>
</g>
<!-- 8&#45;&gt;7 -->
<g id="edge12" class="edge"><title>8&#45;&gt;7</title>
<path fill="none" stroke="grey" stroke-width="2" d="M244.773,-359.689C244.881,-351.907 245.006,-342.842 245.121,-334.447"/>
<polygon fill="grey" stroke="grey" stroke-width="2" points="248.623,-334.367 245.261,-324.319 241.623,-334.27 248.623,-334.367"/>
</g>
<!-- 9 -->
<g id="node10" class="node"><title>9</title>
<path fill="none" stroke="#78d856" stroke-width="2" d="M283.5,-689C283.5,-689 143.5,-689 143.5,-689 137.5,-689 131.5,-683 131.5,-677 131.5,-677 131.5,-665 131.5,-665 131.5,-659 137.5,-653 143.5,-653 143.5,-653 283.5,-653 283.5,-653 289.5,-653 295.5,-659 295.5,-665 295.5,-665 295.5,-677 295.5,-677 295.5,-683 289.5,-689 283.5,-689"/>
<text text-anchor="middle" x="213.5" y="-674" font-family="sans" font-size="10.00">bam_sort</text>
<text text-anchor="middle" x="213.5" y="-663" font-family="sans" font-size="10.00">align_run: hisat&#45;SRR1617247&#45;0</text>
</g>
<!-- 9&#45;&gt;1 -->
<g id="edge3" class="edge"><title>9&#45;&gt;1</title>
<path fill="none" stroke="grey" stroke-width="2" d="M205.698,-652.817C183.992,-605.015 122.72,-470.076 95.6439,-410.447"/>
<polygon fill="grey" stroke="grey" stroke-width="2" points="98.774,-408.874 91.4526,-401.216 92.4003,-411.769 98.774,-408.874"/>
</g>
<!-- 9&#45;&gt;8 -->
<g id="edge14" class="edge"><title>9&#45;&gt;8</title>
<path fill="none" stroke="grey" stroke-width="2" d="M215.346,-652.754C219.481,-614.122 229.809,-517.697 238.5,-437 239.405,-428.599 240.389,-419.482 241.294,-411.113"/>
<polygon fill="grey" stroke="grey" stroke-width="2" points="244.79,-411.339 242.386,-401.02 237.831,-410.586 244.79,-411.339"/>
</g>
<!-- 16 -->
<g id="node17" class="node"><title>16</title>
<path fill="none" stroke="#569ad8" stroke-width="2" d="M297.5,-545C297.5,-545 253.5,-545 253.5,-545 247.5,-545 241.5,-539 241.5,-533 241.5,-533 241.5,-521 241.5,-521 241.5,-515 247.5,-509 253.5,-509 253.5,-509 297.5,-509 297.5,-509 303.5,-509 309.5,-515 309.5,-521 309.5,-521 309.5,-533 309.5,-533 309.5,-539 303.5,-545 297.5,-545"/>
<text text-anchor="middle" x="275.5" y="-524.5" font-family="sans" font-size="10.00">bam_stats</text>
</g>
<!-- 9&#45;&gt;16 -->
<g id="edge23" class="edge"><title>9&#45;&gt;16</title>
<path fill="none" stroke="grey" stroke-width="2" d="M220.675,-652.891C228.235,-634.936 240.542,-605.914 251.5,-581 255.341,-572.267 259.615,-562.763 263.479,-554.246"/>
<polygon fill="grey" stroke="grey" stroke-width="2" points="266.665,-555.695 267.623,-545.144 260.294,-552.795 266.665,-555.695"/>
</g>
<!-- 17 -->
<g id="node18" class="node"><title>17</title>
<path fill="none" stroke="#56d87b" stroke-width="2" d="M318,-617C318,-617 273,-617 273,-617 267,-617 261,-611 261,-605 261,-605 261,-593 261,-593 261,-587 267,-581 273,-581 273,-581 318,-581 318,-581 324,-581 330,-587 330,-593 330,-593 330,-605 330,-605 330,-611 324,-617 318,-617"/>
<text text-anchor="middle" x="295.5" y="-596.5" font-family="sans" font-size="10.00">bam_index</text>
</g>
<!-- 9&#45;&gt;17 -->
<g id="edge24" class="edge"><title>9&#45;&gt;17</title>
<path fill="none" stroke="grey" stroke-width="2" d="M233.77,-652.697C243.998,-643.965 256.561,-633.24 267.678,-623.75"/>
<polygon fill="grey" stroke="grey" stroke-width="2" points="270.13,-626.259 275.463,-617.104 265.585,-620.935 270.13,-626.259"/>
</g>
<!-- 18 -->
<g id="node19" class="node"><title>18</title>
<path fill="none" stroke="#d8c356" stroke-width="2" d="M448.5,-180C448.5,-180 376.5,-180 376.5,-180 370.5,-180 364.5,-174 364.5,-168 364.5,-168 364.5,-156 364.5,-156 364.5,-150 370.5,-144 376.5,-144 376.5,-144 448.5,-144 448.5,-144 454.5,-144 460.5,-150 460.5,-156 460.5,-156 460.5,-168 460.5,-168 460.5,-174 454.5,-180 448.5,-180"/>
<text text-anchor="middle" x="412.5" y="-159.5" font-family="sans" font-size="10.00">portcullis_merge</text>
</g>
<!-- 10&#45;&gt;18 -->
<g id="edge25" class="edge"><title>10&#45;&gt;18</title>
<path fill="none" stroke="grey" stroke-width="2" d="M417.77,-215.697C416.998,-207.983 416.071,-198.712 415.211,-190.112"/>
<polygon fill="grey" stroke="grey" stroke-width="2" points="418.688,-189.706 414.21,-180.104 411.723,-190.403 418.688,-189.706"/>
</g>
<!-- 11&#45;&gt;0 -->
<g id="edge1" class="edge"><title>11&#45;&gt;0</title>
<path fill="none" stroke="grey" stroke-width="2" d="M423.263,-362.319C423.147,-353.922 423.005,-343.616 422.875,-334.186"/>
<polygon fill="grey" stroke="grey" stroke-width="2" points="426.373,-334.009 422.735,-324.058 419.374,-334.106 426.373,-334.009"/>
</g>
<!-- 12&#45;&gt;6 -->
<g id="edge9" class="edge"><title>12&#45;&gt;6</title>
<path fill="none" stroke="grey" stroke-width="2" d="M410.5,-71.6966C410.5,-63.9827 410.5,-54.7125 410.5,-46.1124"/>
<polygon fill="grey" stroke="grey" stroke-width="2" points="414,-46.1043 410.5,-36.1043 407,-46.1044 414,-46.1043"/>
</g>
<!-- 13&#45;&gt;6 -->
<g id="edge11" class="edge"><title>13&#45;&gt;6</title>
<path fill="none" stroke="grey" stroke-width="2" d="M533.566,-287.744C524.016,-247.868 497.203,-147.008 454.5,-72 448.94,-62.234 441.534,-52.4964 434.385,-44.0823"/>
<polygon fill="grey" stroke="grey" stroke-width="2" points="436.913,-41.6573 427.679,-36.4629 431.659,-46.282 436.913,-41.6573"/>
</g>
<!-- 14 -->
<g id="node15" class="node"><title>14</title>
<path fill="none" stroke="#d87556" stroke-width="2" d="M261,-766C261,-766 166,-766 166,-766 160,-766 154,-760 154,-754 154,-754 154,-737 154,-737 154,-731 160,-725 166,-725 166,-725 261,-725 261,-725 267,-725 273,-731 273,-737 273,-737 273,-754 273,-754 273,-760 267,-766 261,-766"/>
<text text-anchor="middle" x="213.5" y="-754" font-family="sans" font-size="10.00">align_hisat</text>
<text text-anchor="middle" x="213.5" y="-743" font-family="sans" font-size="10.00">run: 0</text>
<text text-anchor="middle" x="213.5" y="-732" font-family="sans" font-size="10.00">sample: SRR1617247</text>
</g>
<!-- 14&#45;&gt;9 -->
<g id="edge15" class="edge"><title>14&#45;&gt;9</title>
<path fill="none" stroke="grey" stroke-width="2" d="M213.5,-724.689C213.5,-716.907 213.5,-707.842 213.5,-699.447"/>
<polygon fill="grey" stroke="grey" stroke-width="2" points="217,-699.319 213.5,-689.319 210,-699.32 217,-699.319"/>
</g>
<!-- 15 -->
<g id="node16" class="node"><title>15</title>
<path fill="none" stroke="#d89c56" stroke-width="2" d="M250.5,-838C250.5,-838 176.5,-838 176.5,-838 170.5,-838 164.5,-832 164.5,-826 164.5,-826 164.5,-814 164.5,-814 164.5,-808 170.5,-802 176.5,-802 176.5,-802 250.5,-802 250.5,-802 256.5,-802 262.5,-808 262.5,-814 262.5,-814 262.5,-826 262.5,-826 262.5,-832 256.5,-838 250.5,-838"/>
<text text-anchor="middle" x="213.5" y="-817.5" font-family="sans" font-size="10.00">align_hisat_index</text>
</g>
<!-- 15&#45;&gt;14 -->
<g id="edge21" class="edge"><title>15&#45;&gt;14</title>
<path fill="none" stroke="grey" stroke-width="2" d="M213.5,-801.819C213.5,-794.198 213.5,-785.005 213.5,-776.32"/>
<polygon fill="grey" stroke="grey" stroke-width="2" points="217,-776.12 213.5,-766.12 210,-776.12 217,-776.12"/>
</g>
<!-- 16&#45;&gt;4 -->
<g id="edge7" class="edge"><title>16&#45;&gt;4</title>
<path fill="none" stroke="grey" stroke-width="2" d="M275.5,-508.697C275.5,-500.983 275.5,-491.712 275.5,-483.112"/>
<polygon fill="grey" stroke="grey" stroke-width="2" points="279,-483.104 275.5,-473.104 272,-483.104 279,-483.104"/>
</g>
<!-- 17&#45;&gt;16 -->
<g id="edge22" class="edge"><title>17&#45;&gt;16</title>
<path fill="none" stroke="grey" stroke-width="2" d="M290.556,-580.697C288.328,-572.898 285.645,-563.509 283.165,-554.829"/>
<polygon fill="grey" stroke="grey" stroke-width="2" points="286.5,-553.758 280.387,-545.104 279.769,-555.681 286.5,-553.758"/>
</g>
<!-- 18&#45;&gt;12 -->
<g id="edge18" class="edge"><title>18&#45;&gt;12</title>
<path fill="none" stroke="grey" stroke-width="2" d="M412.006,-143.697C411.785,-135.983 411.52,-126.712 411.275,-118.112"/>
<polygon fill="grey" stroke="grey" stroke-width="2" points="414.773,-118 410.989,-108.104 407.776,-118.2 414.773,-118"/>
</g>
</g>
</svg>
