<?xml version="1.0" encoding="UTF-8" standalone="no"?>
<!DOCTYPE svg PUBLIC "-//W3C//DTD SVG 1.1//EN"
 "http://www.w3.org/Graphics/SVG/1.1/DTD/svg11.dtd">
<!-- Generated by graphviz version 2.38.0 (20140413.2041)
 -->
<!-- Title: SchemaCrawler_Diagram Pages: 1 -->
<svg width="504pt" height="952pt"
 viewBox="0.00 0.00 504.00 952.00" xmlns="http://www.w3.org/2000/svg" xmlns:xlink="http://www.w3.org/1999/xlink">
<g id="graph0" class="graph" transform="scale(1 1) rotate(0) translate(4 948)">
<title>SchemaCrawler_Diagram</title>
<polygon fill="white" stroke="none" points="-4,4 -4,-948 500,-948 500,4 -4,4"/>
<text text-anchor="start" x="341.5" y="-48.6" font-family="Helvetica,sans-Serif" font-size="8.00" fill="#999999">generated by</text>
<text text-anchor="start" x="393.5" y="-48.6" font-family="Helvetica,sans-Serif" font-size="8.00" fill="#999999">SchemaCrawler 14.09.02</text>
<text text-anchor="start" x="340.5" y="-35.6" font-family="Helvetica,sans-Serif" font-size="8.00" fill="#999999">generated on</text>
<text text-anchor="start" x="393.5" y="-35.6" font-family="Helvetica,sans-Serif" font-size="8.00" fill="#999999">2017&#45;06&#45;22 17:58:35</text>
<text text-anchor="start" x="328.5" y="-22.6" font-family="Helvetica,sans-Serif" font-size="8.00" fill="#999999">database version</text>
<text text-anchor="start" x="393.5" y="-22.6" font-family="Helvetica,sans-Serif" font-size="8.00" fill="#999999">SQLite 3.7.8</text>
<text text-anchor="start" x="340.5" y="-9.6" font-family="Helvetica,sans-Serif" font-size="8.00" fill="#999999">driver version</text>
<text text-anchor="start" x="393.5" y="-9.6" font-family="Helvetica,sans-Serif" font-size="8.00" fill="#999999">SQLiteJDBC native</text>
<polygon fill="none" stroke="#999999" points="325,-4 325,-58 488,-58 488,-4 325,-4"/>
<!-- chrom_5a4174b -->
<g id="node1" class="node"><title>chrom_5a4174b</title>
<polygon fill="white" stroke="none" points="20,-131 20,-185 153,-185 153,-131 20,-131"/>
<polygon fill="#f2e9ce" stroke="none" points="21.5,-171 21.5,-184 69.5,-184 69.5,-171 21.5,-171"/>
<text text-anchor="start" x="23.5" y="-176.6" font-family="Helvetica,sans-Serif" font-weight="bold" font-style="italic" font-size="8.00">chrom</text>
<polygon fill="#f2e9ce" stroke="none" points="69.5,-171 69.5,-184 152.5,-184 152.5,-171 69.5,-171"/>
<text text-anchor="start" x="128.5" y="-175.6" font-family="Helvetica,sans-Serif" font-size="8.00">[table]</text>
<text text-anchor="start" x="23.5" y="-163.6" font-family="Helvetica,sans-Serif" font-weight="bold" font-style="italic" font-size="8.00">chrom_id</text>
<text text-anchor="start" x="64.5" y="-162.6" font-family="Helvetica,sans-Serif" font-size="8.00"> </text>
<text text-anchor="start" x="71.5" y="-162.6" font-family="Helvetica,sans-Serif" font-size="8.00">INTEGER NOT NULL</text>
<text text-anchor="start" x="23.5" y="-149.6" font-family="Helvetica,sans-Serif" font-size="8.00">name</text>
<text text-anchor="start" x="64.5" y="-149.6" font-family="Helvetica,sans-Serif" font-size="8.00"> </text>
<text text-anchor="start" x="71.5" y="-149.6" font-family="Helvetica,sans-Serif" font-size="8.00">VARCHAR(200)</text>
<text text-anchor="start" x="23.5" y="-136.6" font-family="Helvetica,sans-Serif" font-size="8.00">length</text>
<text text-anchor="start" x="64.5" y="-136.6" font-family="Helvetica,sans-Serif" font-size="8.00"> </text>
<text text-anchor="start" x="71.5" y="-136.6" font-family="Helvetica,sans-Serif" font-size="8.00">INTEGER</text>
<polygon fill="none" stroke="#999999" points="20,-131 20,-185 153,-185 153,-131 20,-131"/>
</g>
<!-- junctions_48b0c39f -->
<g id="node2" class="node"><title>junctions_48b0c39f</title>
<polygon fill="white" stroke="none" points="329,-66 329,-198 473,-198 473,-66 329,-66"/>
<polygon fill="#f2e9ce" stroke="none" points="330,-184 330,-197 389,-197 389,-184 330,-184"/>
<text text-anchor="start" x="332" y="-189.6" font-family="Helvetica,sans-Serif" font-weight="bold" font-style="italic" font-size="8.00">junctions</text>
<polygon fill="#f2e9ce" stroke="none" points="389,-184 389,-197 472,-197 472,-184 389,-184"/>
<text text-anchor="start" x="448" y="-188.6" font-family="Helvetica,sans-Serif" font-size="8.00">[table]</text>
<text text-anchor="start" x="332" y="-176.6" font-family="Helvetica,sans-Serif" font-weight="bold" font-style="italic" font-size="8.00">id</text>
<text text-anchor="start" x="384" y="-175.6" font-family="Helvetica,sans-Serif" font-size="8.00"> </text>
<text text-anchor="start" x="391" y="-175.6" font-family="Helvetica,sans-Serif" font-size="8.00">INTEGER NOT NULL</text>
<text text-anchor="start" x="332" y="-162.6" font-family="Helvetica,sans-Serif" font-size="8.00">chrom_id</text>
<text text-anchor="start" x="384" y="-162.6" font-family="Helvetica,sans-Serif" font-size="8.00"> </text>
<text text-anchor="start" x="391" y="-162.6" font-family="Helvetica,sans-Serif" font-size="8.00">INTEGER</text>
<text text-anchor="start" x="332" y="-149.6" font-family="Helvetica,sans-Serif" font-size="8.00">&quot;start&quot;</text>
<text text-anchor="start" x="384" y="-149.6" font-family="Helvetica,sans-Serif" font-size="8.00"> </text>
<text text-anchor="start" x="391" y="-149.6" font-family="Helvetica,sans-Serif" font-size="8.00">INTEGER NOT NULL</text>
<text text-anchor="start" x="332" y="-136.6" font-family="Helvetica,sans-Serif" font-size="8.00">&quot;end&quot;</text>
<text text-anchor="start" x="384" y="-136.6" font-family="Helvetica,sans-Serif" font-size="8.00"> </text>
<text text-anchor="start" x="391" y="-136.6" font-family="Helvetica,sans-Serif" font-size="8.00">INTEGER NOT NULL</text>
<text text-anchor="start" x="332" y="-123.6" font-family="Helvetica,sans-Serif" font-size="8.00">name</text>
<text text-anchor="start" x="384" y="-123.6" font-family="Helvetica,sans-Serif" font-size="8.00"> </text>
<text text-anchor="start" x="391" y="-123.6" font-family="Helvetica,sans-Serif" font-size="8.00">VARCHAR(200)</text>
<text text-anchor="start" x="332" y="-110.6" font-family="Helvetica,sans-Serif" font-size="8.00">strand</text>
<text text-anchor="start" x="384" y="-110.6" font-family="Helvetica,sans-Serif" font-size="8.00"> </text>
<text text-anchor="start" x="391" y="-110.6" font-family="Helvetica,sans-Serif" font-size="8.00">CHAR</text>
<text text-anchor="start" x="332" y="-97.6" font-family="Helvetica,sans-Serif" font-size="8.00">junction_start</text>
<text text-anchor="start" x="384" y="-97.6" font-family="Helvetica,sans-Serif" font-size="8.00"> </text>
<text text-anchor="start" x="391" y="-97.6" font-family="Helvetica,sans-Serif" font-size="8.00">INTEGER NOT NULL</text>
<text text-anchor="start" x="332" y="-84.6" font-family="Helvetica,sans-Serif" font-size="8.00">junction_end</text>
<text text-anchor="start" x="384" y="-84.6" font-family="Helvetica,sans-Serif" font-size="8.00"> </text>
<text text-anchor="start" x="391" y="-84.6" font-family="Helvetica,sans-Serif" font-size="8.00">INTEGER NOT NULL</text>
<text text-anchor="start" x="332" y="-71.6" font-family="Helvetica,sans-Serif" font-size="8.00">score</text>
<text text-anchor="start" x="384" y="-71.6" font-family="Helvetica,sans-Serif" font-size="8.00"> </text>
<text text-anchor="start" x="391" y="-71.6" font-family="Helvetica,sans-Serif" font-size="8.00">FLOAT</text>
<polygon fill="none" stroke="#999999" points="329,-66 329,-198 473,-198 473,-66 329,-66"/>
</g>
<!-- junctions_48b0c39f&#45;&gt;chrom_5a4174b -->
<g id="edge1" class="edge"><title>junctions_48b0c39f:chrom_id_3ed7e3fe.start:w&#45;&gt;chrom_5a4174b:chrom_id_5449f1d2.end:e</title>
<path fill="none" stroke="black" d="M314.201,-165C250.732,-165 228.093,-165 161.806,-165"/>
<polygon fill="black" stroke="black" points="321,-165 329,-168.6 325,-165 329,-165 329,-165 329,-165 325,-165 329,-161.4 321,-165 321,-165"/>
<ellipse fill="none" stroke="black" cx="317.8" cy="-165" rx="3.2" ry="3.2"/>
<polygon fill="black" stroke="black" points="154.3,-169 154.3,-161 155.9,-161 155.9,-169 154.3,-169"/>
<polyline fill="none" stroke="black" points="153.5,-165 157.5,-165 "/>
<polygon fill="black" stroke="black" points="158.3,-169 158.3,-161 159.9,-161 159.9,-169 158.3,-169"/>
<polyline fill="none" stroke="black" points="157.5,-165 161.5,-165 "/>
<text text-anchor="start" x="193" y="-167.6" font-family="Helvetica,sans-Serif" font-size="8.00">SC_5A4174B_48B0C39F</text>
</g>
<!-- external_4d741bd5 -->
<g id="node3" class="node"><title>external_4d741bd5</title>
<polygon fill="white" stroke="none" points="333,-886 333,-940 469,-940 469,-886 333,-886"/>
<polygon fill="#f2e9ce" stroke="none" points="334,-926 334,-939 385,-939 385,-926 334,-926"/>
<text text-anchor="start" x="336" y="-931.6" font-family="Helvetica,sans-Serif" font-weight="bold" font-style="italic" font-size="8.00">&quot;external&quot;</text>
<polygon fill="#f2e9ce" stroke="none" points="385,-926 385,-939 468,-939 468,-926 385,-926"/>
<text text-anchor="start" x="444" y="-930.6" font-family="Helvetica,sans-Serif" font-size="8.00">[table]</text>
<text text-anchor="start" x="336" y="-918.6" font-family="Helvetica,sans-Serif" font-weight="bold" font-style="italic" font-size="8.00">query_id</text>
<text text-anchor="start" x="380" y="-917.6" font-family="Helvetica,sans-Serif" font-size="8.00"> </text>
<text text-anchor="start" x="387" y="-917.6" font-family="Helvetica,sans-Serif" font-size="8.00">INTEGER NOT NULL</text>
<text text-anchor="start" x="336" y="-905.6" font-family="Helvetica,sans-Serif" font-weight="bold" font-style="italic" font-size="8.00">source_id</text>
<text text-anchor="start" x="380" y="-904.6" font-family="Helvetica,sans-Serif" font-size="8.00"> </text>
<text text-anchor="start" x="387" y="-904.6" font-family="Helvetica,sans-Serif" font-size="8.00">INTEGER NOT NULL</text>
<text text-anchor="start" x="336" y="-891.6" font-family="Helvetica,sans-Serif" font-size="8.00">score</text>
<text text-anchor="start" x="380" y="-891.6" font-family="Helvetica,sans-Serif" font-size="8.00"> </text>
<text text-anchor="start" x="387" y="-891.6" font-family="Helvetica,sans-Serif" font-size="8.00">FLOAT</text>
<polygon fill="none" stroke="#999999" points="333,-886 333,-940 469,-940 469,-886 333,-886"/>
</g>
<!-- external_sources_27b6ab44 -->
<g id="node4" class="node"><title>external_sources_27b6ab44</title>
<polygon fill="white" stroke="none" points="8,-873.5 8,-914.5 165,-914.5 165,-873.5 8,-873.5"/>
<polygon fill="#f2e9ce" stroke="none" points="9.5,-900 9.5,-913 81.5,-913 81.5,-900 9.5,-900"/>
<text text-anchor="start" x="11.5" y="-905.6" font-family="Helvetica,sans-Serif" font-weight="bold" font-style="italic" font-size="8.00">external_sources</text>
<polygon fill="#f2e9ce" stroke="none" points="81.5,-900 81.5,-913 164.5,-913 164.5,-900 81.5,-900"/>
<text text-anchor="start" x="140.5" y="-904.6" font-family="Helvetica,sans-Serif" font-size="8.00">[table]</text>
<text text-anchor="start" x="11.5" y="-892.6" font-family="Helvetica,sans-Serif" font-weight="bold" font-style="italic" font-size="8.00">source_id</text>
<text text-anchor="start" x="65.5" y="-891.6" font-family="Helvetica,sans-Serif" font-size="8.00"> </text>
<text text-anchor="start" x="83.5" y="-891.6" font-family="Helvetica,sans-Serif" font-size="8.00">INTEGER NOT NULL</text>
<text text-anchor="start" x="11.5" y="-878.6" font-family="Helvetica,sans-Serif" font-size="8.00">source</text>
<text text-anchor="start" x="65.5" y="-878.6" font-family="Helvetica,sans-Serif" font-size="8.00"> </text>
<text text-anchor="start" x="83.5" y="-878.6" font-family="Helvetica,sans-Serif" font-size="8.00">VARCHAR</text>
<polygon fill="none" stroke="#999999" points="8,-873.5 8,-914.5 165,-914.5 165,-873.5 8,-873.5"/>
</g>
<!-- external_4d741bd5&#45;&gt;external_sources_27b6ab44 -->
<g id="edge2" class="edge"><title>external_4d741bd5:source_id_8d8db8e6.start:w&#45;&gt;external_sources_27b6ab44:source_id_4c530995.end:e</title>
<path fill="none" stroke="black" d="M318.509,-904.155C309.131,-901.534 303.053,-896.846 289,-895 237.335,-888.215 221.94,-892.509 173.559,-892.962"/>
<polygon fill="black" stroke="black" points="325.064,-904.99 332.545,-909.571 329.032,-905.495 333,-906 333,-906 333,-906 329.032,-905.495 333.455,-902.429 325.064,-904.99 325.064,-904.99"/>
<ellipse fill="none" stroke="black" cx="321.89" cy="-904.586" rx="3.2" ry="3.2"/>
<polygon fill="black" stroke="black" points="166.319,-896.996 166.281,-888.996 167.881,-888.989 167.919,-896.989 166.319,-896.996"/>
<polyline fill="none" stroke="black" points="165.5,-893 169.5,-892.981 "/>
<polygon fill="black" stroke="black" points="170.319,-896.978 170.281,-888.978 171.881,-888.97 171.919,-896.97 170.319,-896.978"/>
<polyline fill="none" stroke="black" points="169.5,-892.981 173.5,-892.963 "/>
<text text-anchor="start" x="190" y="-897.6" font-family="Helvetica,sans-Serif" font-size="8.00">SC_27B6AB44_4D741BD5</text>
</g>
<!-- query_66f18c8 -->
<g id="node8" class="node"><title>query_66f18c8</title>
<polygon fill="white" stroke="none" points="15,-756 15,-810 158,-810 158,-756 15,-756"/>
<polygon fill="#f2e9ce" stroke="none" points="16.5,-796 16.5,-809 74.5,-809 74.5,-796 16.5,-796"/>
<text text-anchor="start" x="18.5" y="-801.6" font-family="Helvetica,sans-Serif" font-weight="bold" font-style="italic" font-size="8.00">query</text>
<polygon fill="#f2e9ce" stroke="none" points="74.5,-796 74.5,-809 157.5,-809 157.5,-796 74.5,-796"/>
<text text-anchor="start" x="133.5" y="-800.6" font-family="Helvetica,sans-Serif" font-size="8.00">[table]</text>
<text text-anchor="start" x="18.5" y="-788.6" font-family="Helvetica,sans-Serif" font-weight="bold" font-style="italic" font-size="8.00">query_id</text>
<text text-anchor="start" x="69.5" y="-787.6" font-family="Helvetica,sans-Serif" font-size="8.00"> </text>
<text text-anchor="start" x="76.5" y="-787.6" font-family="Helvetica,sans-Serif" font-size="8.00">INTEGER NOT NULL</text>
<text text-anchor="start" x="18.5" y="-774.6" font-family="Helvetica,sans-Serif" font-size="8.00">query_name</text>
<text text-anchor="start" x="69.5" y="-774.6" font-family="Helvetica,sans-Serif" font-size="8.00"> </text>
<text text-anchor="start" x="76.5" y="-774.6" font-family="Helvetica,sans-Serif" font-size="8.00">VARCHAR(200)</text>
<text text-anchor="start" x="18.5" y="-761.6" font-family="Helvetica,sans-Serif" font-size="8.00">query_length</text>
<text text-anchor="start" x="69.5" y="-761.6" font-family="Helvetica,sans-Serif" font-size="8.00"> </text>
<text text-anchor="start" x="76.5" y="-761.6" font-family="Helvetica,sans-Serif" font-size="8.00">INTEGER</text>
<polygon fill="none" stroke="#999999" points="15,-756 15,-810 158,-810 158,-756 15,-756"/>
</g>
<!-- external_4d741bd5&#45;&gt;query_66f18c8 -->
<g id="edge3" class="edge"><title>external_4d741bd5:query_id_f3d799eb.start:w&#45;&gt;query_66f18c8:query_id_e12e7e58.end:e</title>
<path fill="none" stroke="black" d="M318.59,-920.408C264.136,-923.447 234.798,-941.399 190,-903 152.734,-871.058 203.922,-799.111 166.55,-790.789"/>
<polygon fill="black" stroke="black" points="325.003,-920.226 333.102,-923.599 329.002,-920.113 333,-920 333,-920 333,-920 329.002,-920.113 332.898,-916.401 325.003,-920.226 325.003,-920.226"/>
<ellipse fill="none" stroke="black" cx="321.804" cy="-920.317" rx="3.2" ry="3.2"/>
<polygon fill="black" stroke="black" points="158.906,-794.059 159.687,-786.097 161.279,-786.253 160.498,-794.215 158.906,-794.059"/>
<polyline fill="none" stroke="black" points="158.5,-790 162.481,-790.39 "/>
<polygon fill="black" stroke="black" points="162.887,-794.449 163.668,-786.488 165.26,-786.644 164.479,-794.606 162.887,-794.449"/>
<polyline fill="none" stroke="black" points="162.481,-790.39 166.462,-790.781 "/>
<text text-anchor="start" x="192.5" y="-929.6" font-family="Helvetica,sans-Serif" font-size="8.00">SC_66F18C8_4D741BD5</text>
</g>
<!-- hit_19393 -->
<g id="node5" class="node"><title>hit_19393</title>
<polygon fill="white" stroke="none" points="314,-655 314,-865 488,-865 488,-655 314,-655"/>
<polygon fill="#f2e9ce" stroke="none" points="315,-851 315,-864 404,-864 404,-851 315,-851"/>
<text text-anchor="start" x="317" y="-856.6" font-family="Helvetica,sans-Serif" font-weight="bold" font-style="italic" font-size="8.00">hit</text>
<polygon fill="#f2e9ce" stroke="none" points="404,-851 404,-864 487,-864 487,-851 404,-851"/>
<text text-anchor="start" x="463" y="-855.6" font-family="Helvetica,sans-Serif" font-size="8.00">[table]</text>
<text text-anchor="start" x="317" y="-843.6" font-family="Helvetica,sans-Serif" font-weight="bold" font-style="italic" font-size="8.00">query_id</text>
<text text-anchor="start" x="399" y="-842.6" font-family="Helvetica,sans-Serif" font-size="8.00"> </text>
<text text-anchor="start" x="406" y="-842.6" font-family="Helvetica,sans-Serif" font-size="8.00">INTEGER NOT NULL</text>
<text text-anchor="start" x="317" y="-830.6" font-family="Helvetica,sans-Serif" font-weight="bold" font-style="italic" font-size="8.00">target_id</text>
<text text-anchor="start" x="399" y="-829.6" font-family="Helvetica,sans-Serif" font-size="8.00"> </text>
<text text-anchor="start" x="406" y="-829.6" font-family="Helvetica,sans-Serif" font-size="8.00">INTEGER NOT NULL</text>
<text text-anchor="start" x="317" y="-816.6" font-family="Helvetica,sans-Serif" font-size="8.00">evalue</text>
<text text-anchor="start" x="399" y="-816.6" font-family="Helvetica,sans-Serif" font-size="8.00"> </text>
<text text-anchor="start" x="406" y="-816.6" font-family="Helvetica,sans-Serif" font-size="8.00">FLOAT</text>
<text text-anchor="start" x="317" y="-803.6" font-family="Helvetica,sans-Serif" font-size="8.00">bits</text>
<text text-anchor="start" x="399" y="-803.6" font-family="Helvetica,sans-Serif" font-size="8.00"> </text>
<text text-anchor="start" x="406" y="-803.6" font-family="Helvetica,sans-Serif" font-size="8.00">FLOAT</text>
<text text-anchor="start" x="317" y="-790.6" font-family="Helvetica,sans-Serif" font-size="8.00">global_identity</text>
<text text-anchor="start" x="399" y="-790.6" font-family="Helvetica,sans-Serif" font-size="8.00"> </text>
<text text-anchor="start" x="406" y="-790.6" font-family="Helvetica,sans-Serif" font-size="8.00">FLOAT</text>
<text text-anchor="start" x="317" y="-777.6" font-family="Helvetica,sans-Serif" font-size="8.00">global_positives</text>
<text text-anchor="start" x="399" y="-777.6" font-family="Helvetica,sans-Serif" font-size="8.00"> </text>
<text text-anchor="start" x="406" y="-777.6" font-family="Helvetica,sans-Serif" font-size="8.00">FLOAT</text>
<text text-anchor="start" x="317" y="-764.6" font-family="Helvetica,sans-Serif" font-size="8.00">query_start</text>
<text text-anchor="start" x="399" y="-764.6" font-family="Helvetica,sans-Serif" font-size="8.00"> </text>
<text text-anchor="start" x="406" y="-764.6" font-family="Helvetica,sans-Serif" font-size="8.00">INTEGER</text>
<text text-anchor="start" x="317" y="-751.6" font-family="Helvetica,sans-Serif" font-size="8.00">query_end</text>
<text text-anchor="start" x="399" y="-751.6" font-family="Helvetica,sans-Serif" font-size="8.00"> </text>
<text text-anchor="start" x="406" y="-751.6" font-family="Helvetica,sans-Serif" font-size="8.00">INTEGER</text>
<text text-anchor="start" x="317" y="-738.6" font-family="Helvetica,sans-Serif" font-size="8.00">target_start</text>
<text text-anchor="start" x="399" y="-738.6" font-family="Helvetica,sans-Serif" font-size="8.00"> </text>
<text text-anchor="start" x="406" y="-738.6" font-family="Helvetica,sans-Serif" font-size="8.00">INTEGER</text>
<text text-anchor="start" x="317" y="-725.6" font-family="Helvetica,sans-Serif" font-size="8.00">target_end</text>
<text text-anchor="start" x="399" y="-725.6" font-family="Helvetica,sans-Serif" font-size="8.00"> </text>
<text text-anchor="start" x="406" y="-725.6" font-family="Helvetica,sans-Serif" font-size="8.00">INTEGER</text>
<text text-anchor="start" x="317" y="-712.6" font-family="Helvetica,sans-Serif" font-size="8.00">hit_number</text>
<text text-anchor="start" x="399" y="-712.6" font-family="Helvetica,sans-Serif" font-size="8.00"> </text>
<text text-anchor="start" x="406" y="-712.6" font-family="Helvetica,sans-Serif" font-size="8.00">INTEGER</text>
<text text-anchor="start" x="317" y="-699.6" font-family="Helvetica,sans-Serif" font-size="8.00">query_multiplier</text>
<text text-anchor="start" x="399" y="-699.6" font-family="Helvetica,sans-Serif" font-size="8.00"> </text>
<text text-anchor="start" x="406" y="-699.6" font-family="Helvetica,sans-Serif" font-size="8.00">FLOAT</text>
<text text-anchor="start" x="317" y="-686.6" font-family="Helvetica,sans-Serif" font-size="8.00">target_multiplier</text>
<text text-anchor="start" x="399" y="-686.6" font-family="Helvetica,sans-Serif" font-size="8.00"> </text>
<text text-anchor="start" x="406" y="-686.6" font-family="Helvetica,sans-Serif" font-size="8.00">FLOAT</text>
<text text-anchor="start" x="317" y="-673.6" font-family="Helvetica,sans-Serif" font-size="8.00">query_aligned_length</text>
<text text-anchor="start" x="399" y="-673.6" font-family="Helvetica,sans-Serif" font-size="8.00"> </text>
<text text-anchor="start" x="406" y="-673.6" font-family="Helvetica,sans-Serif" font-size="8.00">INTEGER</text>
<text text-anchor="start" x="317" y="-660.6" font-family="Helvetica,sans-Serif" font-size="8.00">target_aligned_length</text>
<text text-anchor="start" x="399" y="-660.6" font-family="Helvetica,sans-Serif" font-size="8.00"> </text>
<text text-anchor="start" x="406" y="-660.6" font-family="Helvetica,sans-Serif" font-size="8.00">INTEGER</text>
<polygon fill="none" stroke="#999999" points="314,-655 314,-865 488,-865 488,-655 314,-655"/>
</g>
<!-- hit_19393&#45;&gt;query_66f18c8 -->
<g id="edge4" class="edge"><title>hit_19393:query_id_4201f7ed.start:w&#45;&gt;query_66f18c8:query_id_e12e7e58.end:e</title>
<path fill="none" stroke="black" d="M299.654,-842.977C262.184,-833.83 201.4,-796.525 166.723,-790.752"/>
<polygon fill="black" stroke="black" points="306.078,-843.883 313.497,-848.565 310.039,-844.442 314,-845 314,-845 314,-845 310.039,-844.442 314.503,-841.435 306.078,-843.883 306.078,-843.883"/>
<ellipse fill="none" stroke="black" cx="302.91" cy="-843.436" rx="3.2" ry="3.2"/>
<polygon fill="black" stroke="black" points="158.932,-794.056 159.661,-786.089 161.254,-786.235 160.526,-794.202 158.932,-794.056"/>
<polyline fill="none" stroke="black" points="158.5,-790 162.483,-790.364 "/>
<polygon fill="black" stroke="black" points="162.916,-794.421 163.644,-786.454 165.238,-786.6 164.509,-794.566 162.916,-794.421"/>
<polyline fill="none" stroke="black" points="162.483,-790.364 166.467,-790.729 "/>
<text text-anchor="start" x="201" y="-841.6" font-family="Helvetica,sans-Serif" font-size="8.00">SC_66F18C8_19393</text>
</g>
<!-- target_cb7e7191 -->
<g id="node9" class="node"><title>target_cb7e7191</title>
<polygon fill="white" stroke="none" points="14.5,-597 14.5,-651 158.5,-651 158.5,-597 14.5,-597"/>
<polygon fill="#f2e9ce" stroke="none" points="15.5,-637 15.5,-650 74.5,-650 74.5,-637 15.5,-637"/>
<text text-anchor="start" x="17.5" y="-642.6" font-family="Helvetica,sans-Serif" font-weight="bold" font-style="italic" font-size="8.00">target</text>
<polygon fill="#f2e9ce" stroke="none" points="74.5,-637 74.5,-650 157.5,-650 157.5,-637 74.5,-637"/>
<text text-anchor="start" x="133.5" y="-641.6" font-family="Helvetica,sans-Serif" font-size="8.00">[table]</text>
<text text-anchor="start" x="17.5" y="-629.6" font-family="Helvetica,sans-Serif" font-weight="bold" font-style="italic" font-size="8.00">target_id</text>
<text text-anchor="start" x="69.5" y="-628.6" font-family="Helvetica,sans-Serif" font-size="8.00"> </text>
<text text-anchor="start" x="76.5" y="-628.6" font-family="Helvetica,sans-Serif" font-size="8.00">INTEGER NOT NULL</text>
<text text-anchor="start" x="17.5" y="-615.6" font-family="Helvetica,sans-Serif" font-size="8.00">target_name</text>
<text text-anchor="start" x="69.5" y="-615.6" font-family="Helvetica,sans-Serif" font-size="8.00"> </text>
<text text-anchor="start" x="76.5" y="-615.6" font-family="Helvetica,sans-Serif" font-size="8.00">VARCHAR(200)</text>
<text text-anchor="start" x="17.5" y="-602.6" font-family="Helvetica,sans-Serif" font-size="8.00">target_length</text>
<text text-anchor="start" x="69.5" y="-602.6" font-family="Helvetica,sans-Serif" font-size="8.00"> </text>
<text text-anchor="start" x="76.5" y="-602.6" font-family="Helvetica,sans-Serif" font-size="8.00">INTEGER</text>
<polygon fill="none" stroke="#999999" points="14.5,-597 14.5,-651 158.5,-651 158.5,-597 14.5,-597"/>
</g>
<!-- hit_19393&#45;&gt;target_cb7e7191 -->
<g id="edge7" class="edge"><title>hit_19393:target_id_394e15ee.start:w&#45;&gt;target_cb7e7191:target_id_3040e6c.end:e</title>
<path fill="none" stroke="black" d="M301.181,-824.863C296.617,-814.929 300.436,-796.826 289,-785 253.706,-748.502 221.972,-767.441 190,-728 163.463,-695.265 198.22,-639.558 166.816,-631.886"/>
<polygon fill="black" stroke="black" points="307.01,-828.108 312.249,-835.145 310.505,-830.054 314,-832 314,-832 314,-832 310.505,-830.054 315.751,-828.855 307.01,-828.108 307.01,-828.108"/>
<ellipse fill="none" stroke="black" cx="304.214" cy="-826.552" rx="3.20001" ry="3.20001"/>
<polygon fill="black" stroke="black" points="158.872,-635.062 159.719,-627.107 161.31,-627.277 160.463,-635.232 158.872,-635.062"/>
<polyline fill="none" stroke="black" points="158.5,-631 162.478,-631.424 "/>
<polygon fill="black" stroke="black" points="162.849,-635.486 163.697,-627.531 165.288,-627.7 164.44,-635.655 162.849,-635.486"/>
<polyline fill="none" stroke="black" points="162.478,-631.424 166.455,-631.847 "/>
<text text-anchor="start" x="198.5" y="-787.6" font-family="Helvetica,sans-Serif" font-size="8.00">SC_CB7E7191_19393</text>
</g>
<!-- hsp_194c5 -->
<g id="node6" class="node"><title>hsp_194c5</title>
<polygon fill="white" stroke="none" points="323.5,-424 323.5,-634 478.5,-634 478.5,-424 323.5,-424"/>
<polygon fill="#f2e9ce" stroke="none" points="325,-620 325,-633 395,-633 395,-620 325,-620"/>
<text text-anchor="start" x="327" y="-625.6" font-family="Helvetica,sans-Serif" font-weight="bold" font-style="italic" font-size="8.00">hsp</text>
<polygon fill="#f2e9ce" stroke="none" points="395,-620 395,-633 478,-633 478,-620 395,-620"/>
<text text-anchor="start" x="454" y="-624.6" font-family="Helvetica,sans-Serif" font-size="8.00">[table]</text>
<text text-anchor="start" x="327" y="-612.6" font-family="Helvetica,sans-Serif" font-weight="bold" font-style="italic" font-size="8.00">counter</text>
<text text-anchor="start" x="390" y="-611.6" font-family="Helvetica,sans-Serif" font-size="8.00"> </text>
<text text-anchor="start" x="397" y="-611.6" font-family="Helvetica,sans-Serif" font-size="8.00">INTEGER NOT NULL</text>
<text text-anchor="start" x="327" y="-599.6" font-family="Helvetica,sans-Serif" font-weight="bold" font-style="italic" font-size="8.00">query_id</text>
<text text-anchor="start" x="390" y="-598.6" font-family="Helvetica,sans-Serif" font-size="8.00"> </text>
<text text-anchor="start" x="397" y="-598.6" font-family="Helvetica,sans-Serif" font-size="8.00">INTEGER NOT NULL</text>
<text text-anchor="start" x="327" y="-586.6" font-family="Helvetica,sans-Serif" font-weight="bold" font-style="italic" font-size="8.00">target_id</text>
<text text-anchor="start" x="390" y="-585.6" font-family="Helvetica,sans-Serif" font-size="8.00"> </text>
<text text-anchor="start" x="397" y="-585.6" font-family="Helvetica,sans-Serif" font-size="8.00">INTEGER NOT NULL</text>
<text text-anchor="start" x="327" y="-572.6" font-family="Helvetica,sans-Serif" font-size="8.00">query_hsp_start</text>
<text text-anchor="start" x="390" y="-572.6" font-family="Helvetica,sans-Serif" font-size="8.00"> </text>
<text text-anchor="start" x="397" y="-572.6" font-family="Helvetica,sans-Serif" font-size="8.00">INTEGER</text>
<text text-anchor="start" x="327" y="-559.6" font-family="Helvetica,sans-Serif" font-size="8.00">query_hsp_end</text>
<text text-anchor="start" x="390" y="-559.6" font-family="Helvetica,sans-Serif" font-size="8.00"> </text>
<text text-anchor="start" x="397" y="-559.6" font-family="Helvetica,sans-Serif" font-size="8.00">INTEGER</text>
<text text-anchor="start" x="327" y="-546.6" font-family="Helvetica,sans-Serif" font-size="8.00">query_frame</text>
<text text-anchor="start" x="390" y="-546.6" font-family="Helvetica,sans-Serif" font-size="8.00"> </text>
<text text-anchor="start" x="397" y="-546.6" font-family="Helvetica,sans-Serif" font-size="8.00">INTEGER</text>
<text text-anchor="start" x="327" y="-533.6" font-family="Helvetica,sans-Serif" font-size="8.00">target_hsp_start</text>
<text text-anchor="start" x="390" y="-533.6" font-family="Helvetica,sans-Serif" font-size="8.00"> </text>
<text text-anchor="start" x="397" y="-533.6" font-family="Helvetica,sans-Serif" font-size="8.00">INTEGER</text>
<text text-anchor="start" x="327" y="-520.6" font-family="Helvetica,sans-Serif" font-size="8.00">target_hsp_end</text>
<text text-anchor="start" x="390" y="-520.6" font-family="Helvetica,sans-Serif" font-size="8.00"> </text>
<text text-anchor="start" x="397" y="-520.6" font-family="Helvetica,sans-Serif" font-size="8.00">INTEGER</text>
<text text-anchor="start" x="327" y="-507.6" font-family="Helvetica,sans-Serif" font-size="8.00">target_frame</text>
<text text-anchor="start" x="390" y="-507.6" font-family="Helvetica,sans-Serif" font-size="8.00"> </text>
<text text-anchor="start" x="397" y="-507.6" font-family="Helvetica,sans-Serif" font-size="8.00">INTEGER</text>
<text text-anchor="start" x="327" y="-494.6" font-family="Helvetica,sans-Serif" font-size="8.00">&quot;match&quot;</text>
<text text-anchor="start" x="390" y="-494.6" font-family="Helvetica,sans-Serif" font-size="8.00"> </text>
<text text-anchor="start" x="397" y="-494.6" font-family="Helvetica,sans-Serif" font-size="8.00">VARCHAR(10000)</text>
<text text-anchor="start" x="327" y="-481.6" font-family="Helvetica,sans-Serif" font-size="8.00">hsp_evalue</text>
<text text-anchor="start" x="390" y="-481.6" font-family="Helvetica,sans-Serif" font-size="8.00"> </text>
<text text-anchor="start" x="397" y="-481.6" font-family="Helvetica,sans-Serif" font-size="8.00">FLOAT</text>
<text text-anchor="start" x="327" y="-468.6" font-family="Helvetica,sans-Serif" font-size="8.00">hsp_bits</text>
<text text-anchor="start" x="390" y="-468.6" font-family="Helvetica,sans-Serif" font-size="8.00"> </text>
<text text-anchor="start" x="397" y="-468.6" font-family="Helvetica,sans-Serif" font-size="8.00">FLOAT</text>
<text text-anchor="start" x="327" y="-455.6" font-family="Helvetica,sans-Serif" font-size="8.00">hsp_identity</text>
<text text-anchor="start" x="390" y="-455.6" font-family="Helvetica,sans-Serif" font-size="8.00"> </text>
<text text-anchor="start" x="397" y="-455.6" font-family="Helvetica,sans-Serif" font-size="8.00">FLOAT</text>
<text text-anchor="start" x="327" y="-442.6" font-family="Helvetica,sans-Serif" font-size="8.00">hsp_positives</text>
<text text-anchor="start" x="390" y="-442.6" font-family="Helvetica,sans-Serif" font-size="8.00"> </text>
<text text-anchor="start" x="397" y="-442.6" font-family="Helvetica,sans-Serif" font-size="8.00">FLOAT</text>
<text text-anchor="start" x="327" y="-429.6" font-family="Helvetica,sans-Serif" font-size="8.00">hsp_length</text>
<text text-anchor="start" x="390" y="-429.6" font-family="Helvetica,sans-Serif" font-size="8.00"> </text>
<text text-anchor="start" x="397" y="-429.6" font-family="Helvetica,sans-Serif" font-size="8.00">INTEGER</text>
<polygon fill="none" stroke="#999999" points="323.5,-424 323.5,-634 478.5,-634 478.5,-424 323.5,-424"/>
</g>
<!-- hsp_194c5&#45;&gt;query_66f18c8 -->
<g id="edge5" class="edge"><title>hsp_194c5:query_id_41cb2efb.start:w&#45;&gt;query_66f18c8:query_id_e12e7e58.end:e</title>
<path fill="none" stroke="black" d="M311.958,-609.811C279.348,-636.318 192.41,-713.711 190,-717 170.992,-742.943 189.762,-782.134 166.647,-788.966"/>
<polygon fill="black" stroke="black" points="317.544,-605.724 326.126,-603.905 320.772,-603.362 324,-601 324,-601 324,-601 320.772,-603.362 321.874,-598.095 317.544,-605.724 317.544,-605.724"/>
<ellipse fill="none" stroke="black" cx="314.961" cy="-607.614" rx="3.20001" ry="3.20001"/>
<polygon fill="black" stroke="black" points="159.797,-793.867 158.79,-785.931 160.377,-785.73 161.384,-793.666 159.797,-793.867"/>
<polyline fill="none" stroke="black" points="158.5,-790 162.468,-789.496 "/>
<polygon fill="black" stroke="black" points="163.765,-793.364 162.758,-785.428 164.346,-785.226 165.353,-793.163 163.765,-793.364"/>
<polyline fill="none" stroke="black" points="162.468,-789.496 166.436,-788.993 "/>
<text text-anchor="start" x="200" y="-719.6" font-family="Helvetica,sans-Serif" font-size="8.00">SC_66F18C8_194C5</text>
</g>
<!-- hsp_194c5&#45;&gt;target_cb7e7191 -->
<g id="edge8" class="edge"><title>hsp_194c5:target_id_32abc0a0.start:w&#45;&gt;target_cb7e7191:target_id_3040e6c.end:e</title>
<path fill="none" stroke="black" d="M309.449,-587.501C260.556,-584.13 238.655,-565.571 190,-590 172.512,-598.78 178.629,-622.338 166.641,-629.138"/>
<polygon fill="black" stroke="black" points="316.005,-587.726 323.876,-591.598 320.002,-587.863 324,-588 324,-588 324,-588 320.002,-587.863 324.124,-584.402 316.005,-587.726 316.005,-587.726"/>
<ellipse fill="none" stroke="black" cx="312.807" cy="-587.616" rx="3.2" ry="3.2"/>
<polygon fill="black" stroke="black" points="160.172,-634.721 158.388,-626.922 159.948,-626.566 161.731,-634.364 160.172,-634.721"/>
<polyline fill="none" stroke="black" points="158.5,-631 162.399,-630.108 "/>
<polygon fill="black" stroke="black" points="164.071,-633.829 162.288,-626.031 163.847,-625.674 165.631,-633.473 164.071,-633.829"/>
<polyline fill="none" stroke="black" points="162.399,-630.108 166.299,-629.217 "/>
<text text-anchor="start" x="197.5" y="-592.6" font-family="Helvetica,sans-Serif" font-size="8.00">SC_CB7E7191_194C5</text>
</g>
<!-- orf_1aee3 -->
<g id="node7" class="node"><title>orf_1aee3</title>
<polygon fill="white" stroke="none" points="323,-219 323,-403 479,-403 479,-219 323,-219"/>
<polygon fill="#f2e9ce" stroke="none" points="324,-389 324,-402 395,-402 395,-389 324,-389"/>
<text text-anchor="start" x="326" y="-394.6" font-family="Helvetica,sans-Serif" font-weight="bold" font-style="italic" font-size="8.00">orf</text>
<polygon fill="#f2e9ce" stroke="none" points="395,-389 395,-402 478,-402 478,-389 395,-389"/>
<text text-anchor="start" x="454" y="-393.6" font-family="Helvetica,sans-Serif" font-size="8.00">[table]</text>
<text text-anchor="start" x="326" y="-381.6" font-family="Helvetica,sans-Serif" font-weight="bold" font-style="italic" font-size="8.00">orf_id</text>
<text text-anchor="start" x="390" y="-380.6" font-family="Helvetica,sans-Serif" font-size="8.00"> </text>
<text text-anchor="start" x="397" y="-380.6" font-family="Helvetica,sans-Serif" font-size="8.00">INTEGER NOT NULL</text>
<text text-anchor="start" x="326" y="-367.6" font-family="Helvetica,sans-Serif" font-size="8.00">query_id</text>
<text text-anchor="start" x="390" y="-367.6" font-family="Helvetica,sans-Serif" font-size="8.00"> </text>
<text text-anchor="start" x="397" y="-367.6" font-family="Helvetica,sans-Serif" font-size="8.00">INTEGER</text>
<text text-anchor="start" x="326" y="-354.6" font-family="Helvetica,sans-Serif" font-size="8.00">&quot;start&quot;</text>
<text text-anchor="start" x="390" y="-354.6" font-family="Helvetica,sans-Serif" font-size="8.00"> </text>
<text text-anchor="start" x="397" y="-354.6" font-family="Helvetica,sans-Serif" font-size="8.00">INTEGER NOT NULL</text>
<text text-anchor="start" x="326" y="-341.6" font-family="Helvetica,sans-Serif" font-size="8.00">&quot;end&quot;</text>
<text text-anchor="start" x="390" y="-341.6" font-family="Helvetica,sans-Serif" font-size="8.00"> </text>
<text text-anchor="start" x="397" y="-341.6" font-family="Helvetica,sans-Serif" font-size="8.00">INTEGER NOT NULL</text>
<text text-anchor="start" x="326" y="-328.6" font-family="Helvetica,sans-Serif" font-size="8.00">orf_name</text>
<text text-anchor="start" x="390" y="-328.6" font-family="Helvetica,sans-Serif" font-size="8.00"> </text>
<text text-anchor="start" x="397" y="-328.6" font-family="Helvetica,sans-Serif" font-size="8.00">VARCHAR(200)</text>
<text text-anchor="start" x="326" y="-315.6" font-family="Helvetica,sans-Serif" font-size="8.00">strand</text>
<text text-anchor="start" x="390" y="-315.6" font-family="Helvetica,sans-Serif" font-size="8.00"> </text>
<text text-anchor="start" x="397" y="-315.6" font-family="Helvetica,sans-Serif" font-size="8.00">CHAR</text>
<text text-anchor="start" x="326" y="-302.6" font-family="Helvetica,sans-Serif" font-size="8.00">thick_start</text>
<text text-anchor="start" x="390" y="-302.6" font-family="Helvetica,sans-Serif" font-size="8.00"> </text>
<text text-anchor="start" x="397" y="-302.6" font-family="Helvetica,sans-Serif" font-size="8.00">INTEGER NOT NULL</text>
<text text-anchor="start" x="326" y="-289.6" font-family="Helvetica,sans-Serif" font-size="8.00">thick_end</text>
<text text-anchor="start" x="390" y="-289.6" font-family="Helvetica,sans-Serif" font-size="8.00"> </text>
<text text-anchor="start" x="397" y="-289.6" font-family="Helvetica,sans-Serif" font-size="8.00">INTEGER NOT NULL</text>
<text text-anchor="start" x="326" y="-276.6" font-family="Helvetica,sans-Serif" font-size="8.00">score</text>
<text text-anchor="start" x="390" y="-276.6" font-family="Helvetica,sans-Serif" font-size="8.00"> </text>
<text text-anchor="start" x="397" y="-276.6" font-family="Helvetica,sans-Serif" font-size="8.00">FLOAT</text>
<text text-anchor="start" x="326" y="-263.6" font-family="Helvetica,sans-Serif" font-size="8.00">has_start_codon</text>
<text text-anchor="start" x="390" y="-263.6" font-family="Helvetica,sans-Serif" font-size="8.00"> </text>
<text text-anchor="start" x="397" y="-263.6" font-family="Helvetica,sans-Serif" font-size="8.00">BOOLEAN</text>
<text text-anchor="start" x="326" y="-250.6" font-family="Helvetica,sans-Serif" font-size="8.00">has_stop_codon</text>
<text text-anchor="start" x="390" y="-250.6" font-family="Helvetica,sans-Serif" font-size="8.00"> </text>
<text text-anchor="start" x="397" y="-250.6" font-family="Helvetica,sans-Serif" font-size="8.00">BOOLEAN</text>
<text text-anchor="start" x="326" y="-237.6" font-family="Helvetica,sans-Serif" font-size="8.00">cds_len</text>
<text text-anchor="start" x="390" y="-237.6" font-family="Helvetica,sans-Serif" font-size="8.00"> </text>
<text text-anchor="start" x="397" y="-237.6" font-family="Helvetica,sans-Serif" font-size="8.00">INTEGER</text>
<text text-anchor="start" x="326" y="-224.6" font-family="Helvetica,sans-Serif" font-size="8.00">phase</text>
<text text-anchor="start" x="390" y="-224.6" font-family="Helvetica,sans-Serif" font-size="8.00"> </text>
<text text-anchor="start" x="397" y="-224.6" font-family="Helvetica,sans-Serif" font-size="8.00">INTEGER NOT NULL</text>
<polygon fill="none" stroke="#999999" points="323,-219 323,-403 479,-403 479,-219 323,-219"/>
</g>
<!-- orf_1aee3&#45;&gt;query_66f18c8 -->
<g id="edge6" class="edge"><title>orf_1aee3:query_id_57e3969d.start:w&#45;&gt;query_66f18c8:query_id_e12e7e58.end:e</title>
<path fill="none" stroke="black" d="M309.624,-376.362C281.966,-409.689 319.313,-563.902 289,-598 259.116,-631.616 221.375,-586.771 190,-619 138.2,-672.21 228.225,-781.059 166.766,-789.481"/>
<polygon fill="black" stroke="black" points="315.776,-373.436 324.546,-373.251 319.388,-371.718 323,-370 323,-370 323,-370 319.388,-371.718 321.454,-366.749 315.776,-373.436 315.776,-373.436"/>
<ellipse fill="none" stroke="black" cx="312.886" cy="-374.811" rx="3.20001" ry="3.20001"/>
<polygon fill="black" stroke="black" points="159.549,-793.942 159.048,-785.958 160.645,-785.857 161.146,-793.842 159.549,-793.942"/>
<polyline fill="none" stroke="black" points="158.5,-790 162.492,-789.749 "/>
<polygon fill="black" stroke="black" points="163.541,-793.691 163.04,-785.707 164.637,-785.607 165.138,-793.591 163.541,-793.691"/>
<polyline fill="none" stroke="black" points="162.492,-789.749 166.484,-789.499 "/>
<text text-anchor="start" x="200" y="-621.6" font-family="Helvetica,sans-Serif" font-size="8.00">SC_66F18C8_1AEE3</text>
</g>
</g>
</svg>
